<svg viewBox="0 0 482 696" xmlns="http://www.w3.org/2000/svg">
<g opacity="0.3">
	<path d="M21.484 37.3178L14.6236 44.1622V-6H13.7209V19.3062L8.48529 14.0829V-6H7.5826V13.1823L0.90269 6.51802V-6H0V696H0.90269V674.026L7.5826 680.69V696H8.48529V681.591L13.7209 686.814V696H14.6236V687.715L21.484 694.559V696H22.3867V-6H21.484V37.3178ZM21.484 38.5786V46.1434L21.3938 46.0534L14.6236 52.8077V45.3329L21.484 38.5786ZM13.7209 54.1586V59.0217L0.90269 46.1434V41.2803L13.7209 54.1586ZM13.7209 267.055L8.48529 261.832V231.302L13.7209 236.525V267.055ZM14.6236 237.426L21.484 244.27V274.8L14.6236 267.956V237.426ZM8.48529 616.209L13.7209 621.432V643.857L8.48529 638.633V616.209ZM7.5826 318.028L0.90269 311.363V303.078L7.5826 309.742V318.028ZM7.5826 402.322L0.90269 395.657V387.732L7.5826 394.397V402.322ZM0.90269 386.472V362.786L7.5826 369.451V393.136L0.90269 386.472ZM0.90269 361.526V312.624L7.5826 319.289V368.19L0.90269 361.526ZM7.5826 403.583V433.842L0.90269 427.178V396.918L7.5826 403.583ZM8.48529 414.57L13.7209 419.793V440.056L8.48529 434.833V414.57ZM21.484 456.627L14.6236 463.471V420.784L21.484 427.628V456.627ZM21.484 540.47L14.6236 533.626V473.467L21.484 466.623V540.47ZM14.6236 588.111V543.622L21.484 550.467V594.955L14.6236 588.111ZM21.484 596.216V620.171L14.6236 613.327V589.462L21.484 596.216ZM14.6236 542.362V534.887L21.484 541.731V549.206L14.6236 542.362ZM13.7209 529.303L8.48529 524.08V474.368L13.7209 479.591V529.303ZM7.5826 523.179L0.90269 516.515V466.803L7.5826 473.467V523.179ZM7.5826 524.44L13.7209 530.564V535.427L0.90269 522.549V517.686L7.5826 524.44ZM8.48529 531.465L13.7209 536.688V541.461L8.48529 536.238V531.465ZM13.7209 441.317V472.207L8.48529 466.983V436.093L13.7209 441.317ZM13.7209 473.467V478.33L0.90269 465.452V460.589L13.7209 473.467ZM7.5826 530.564V581.086L0.90269 574.422V523.9L7.5826 530.564ZM8.48529 537.498L13.7209 542.722V587.21L8.48529 581.987V537.498ZM13.7209 588.561V612.426L8.48529 607.203V583.248L13.7209 588.561ZM8.48529 608.464L13.7209 613.687V620.171L8.48529 614.948V608.464ZM14.6236 614.588L21.484 621.432V651.602L14.6236 644.757V614.588ZM21.484 465.452L14.6236 472.207V464.732L21.484 457.887V465.452ZM14.6236 419.433V410.607L21.484 417.451V426.277L14.6236 419.433ZM13.7209 418.532L8.48529 413.309V404.483L13.7209 409.706V418.532ZM8.48529 403.222V394.036V369.09V320.189L13.7209 325.412V408.446L8.48529 403.222ZM8.48529 318.928V309.382V270.837L13.7209 276.061V324.152L8.48529 318.928ZM13.7209 274.8L8.48529 269.577V263.092L13.7209 268.316V274.8ZM7.5826 268.676L0.90269 262.012V223.737L7.5826 230.402V268.676ZM8.48529 230.041V220.585L13.7209 225.809V235.265L8.48529 230.041ZM8.48529 219.324V196.9L13.7209 202.123V224.548L8.48529 219.324ZM14.6236 168.802V124.314L21.484 131.158V175.646L14.6236 168.802ZM21.484 176.907V200.773L14.6236 193.928V170.063L21.484 176.907ZM14.6236 123.053V115.578L21.484 122.422V129.897L14.6236 123.053ZM7.5826 105.131L13.7209 111.255V116.118L0.90269 103.24V98.3769L7.5826 105.131ZM8.48529 112.156L13.7209 117.379V122.152L8.48529 116.929V112.156ZM13.7209 109.994L8.48529 104.771V55.0591L13.7209 60.2825V109.994ZM7.5826 103.87L0.90269 97.2062V47.4042L7.5826 54.0685V103.87ZM7.5826 111.255V161.778L0.90269 155.113V104.591L7.5826 111.255ZM8.48529 118.19L13.7209 123.413V167.901L8.48529 162.678V118.19ZM13.7209 169.162V193.028L8.48529 187.804V163.939L13.7209 169.162ZM8.48529 189.155L13.7209 194.378V200.863L8.48529 195.639V189.155ZM14.6236 195.279L21.484 202.123V232.293L14.6236 225.448V195.279ZM21.484 121.162L14.6236 114.317V54.1586L21.484 47.3142V121.162ZM7.5826 163.038V194.649L0.90269 187.984V156.374L7.5826 163.038ZM7.5826 195.999V229.141L0.90269 222.476V189.335L7.5826 195.999ZM7.5826 269.937V308.482L0.90269 301.817V263.273L7.5826 269.937ZM7.5826 435.193V466.083L0.90269 459.418V428.529L7.5826 435.193ZM7.5826 582.347V613.957L0.90269 607.293V575.683L7.5826 582.347ZM0.90269 643.046L7.5826 649.71V669.883L0.90269 663.219V643.046ZM0.90269 641.785V608.644L7.5826 615.308V648.45L0.90269 641.785ZM8.48529 639.894L13.7209 645.117V654.573L8.48529 649.35V639.894ZM14.6236 646.018L21.484 652.862V662.318L14.6236 655.474V646.018ZM14.6236 409.346V326.313L21.484 333.157V416.191L14.6236 409.346ZM14.6236 325.052V269.216L21.484 276.061V331.897L14.6236 325.052ZM14.6236 236.165V226.709L21.484 233.554V243.01L14.6236 236.165ZM13.7209 20.567V52.8077L8.48529 47.5843V15.3437L13.7209 20.567ZM7.5826 14.4431V46.7738L0.90269 40.1096V7.68878L7.5826 14.4431ZM0.90269 672.765V664.48L7.5826 671.144V679.429L0.90269 672.765ZM8.48529 680.33V670.784V650.611L13.7209 655.834V685.553L8.48529 680.33ZM14.6236 686.454V656.735L21.484 663.579V693.298L14.6236 686.454Z"/>
	<path d="M455.564 37.3178L448.704 44.1622V-6H447.801V19.3062L442.566 14.0829V-6H441.663V13.1823L434.983 6.51802V-6H434.081V209.148H417.833V-6H416.931V209.148H414.584V-6H413.681V69.1081H405.738V-6H404.835V69.1081H394.004V-6H393.101V209.148H377.485V-6H376.583V69.1081H365.751V-6H364.848V69.1081H356.815V-6H355.912V209.148H353.385V-6H352.482V209.148H336.325V-6H335.422V6.42797L328.743 13.0922V-6H327.84V14.0829L322.605 19.3062V-6H321.702V44.1622L314.842 37.3178V-6H313.939V696H314.842V694.559L321.702 687.715V696H322.605V686.814L327.84 681.591V696H328.743V680.69L335.422 674.026V696H336.325V480.762H352.843V695.91H353.746V480.762H356.093V695.91H356.995V620.802H364.939V695.91H365.841V620.802H376.673V695.91H377.576V480.762H393.191V695.91H394.094V620.802H404.926V695.91H405.828V620.802H413.771V695.91H414.674V480.762H417.201V695.91H418.104V480.762H434.081V696H434.983V674.026L441.663 680.69V696H442.566V681.591L447.801 686.814V696H448.704V687.715L455.564 694.559V696H456.466V-6H455.564V37.3178ZM455.564 38.5786V46.1434L455.473 46.0534L448.704 52.8077V45.3329L455.564 38.5786ZM394.094 453.294H404.926V479.861H394.094V453.294ZM365.841 453.294H376.673V479.861H365.841V453.294ZM335.422 663.219L328.743 669.883V649.71L335.422 643.046V663.219ZM335.422 641.785L328.743 648.45V615.308L335.422 608.644V641.785ZM314.842 47.3142L321.702 54.1586V114.317L314.842 121.162V47.3142ZM335.422 41.2803V46.1434L322.605 59.0217V54.1586L335.422 41.2803ZM335.422 465.452L322.605 478.33V473.467L335.422 460.589V465.452ZM328.743 524.44L335.422 517.686V522.549L322.605 535.427V530.564L328.743 524.44ZM327.84 638.633L322.605 643.857V621.432L327.84 616.209V638.633ZM322.605 620.171V613.687L327.84 608.464V614.948L322.605 620.171ZM327.84 607.203L322.605 612.426V588.561L327.84 583.338V607.203ZM322.605 587.21V542.722L327.84 537.498V581.987L322.605 587.21ZM322.605 60.2825L327.84 55.0591V104.771L322.605 109.994V60.2825ZM322.605 111.255L328.743 105.131L335.422 98.467V103.33L322.605 116.208V111.255ZM328.743 111.255L335.422 104.591V155.113L328.743 161.778V111.255ZM335.422 97.1161L328.743 103.78V54.0685L335.422 47.4042V97.1161ZM322.605 117.379L327.84 112.156V116.929L322.605 122.152V117.379ZM327.84 118.19V162.678L322.605 167.901V123.413L327.84 118.19ZM327.84 163.939V187.894L322.605 193.118V169.252L327.84 163.939ZM327.84 189.155V195.639L322.605 200.863V194.378L327.84 189.155ZM322.605 202.123L327.84 196.9V219.324L322.605 224.548V202.123ZM327.84 220.585V230.041L322.605 235.265V225.809L327.84 220.585ZM327.84 231.302V261.832L322.605 267.055V236.525L327.84 231.302ZM335.422 262.012L328.743 268.676V230.402L335.422 223.737V262.012ZM327.84 263.092V269.577L322.605 274.8V268.316L327.84 263.092ZM322.605 276.061L327.84 270.837V309.382V318.928L322.605 324.152V276.061ZM328.743 403.583L335.422 396.918V427.178L328.743 433.842V403.583ZM335.422 361.526L328.743 368.19V319.289L335.422 312.624V361.526ZM328.743 369.451L335.422 362.786V386.472L328.743 393.136V369.451ZM328.743 394.397L335.422 387.732V395.657L328.743 402.322V394.397ZM335.422 311.363L328.743 318.028V309.742L335.422 303.078V311.363ZM327.84 320.189V369.09V394.036V403.222L322.605 408.446V325.412L327.84 320.189ZM327.84 404.483V413.309L322.605 418.532V409.706L327.84 404.483ZM327.84 414.57V434.742L322.605 439.966V419.793L327.84 414.57ZM322.605 472.207V441.317L327.84 436.093V466.983L322.605 472.207ZM321.702 463.471L314.842 456.627V427.538L321.702 420.694V463.471ZM322.605 536.778L327.84 531.555V536.328L322.605 541.551V536.778ZM328.743 530.564L335.422 523.9V574.422L328.743 581.086V530.564ZM322.605 529.303V479.591L327.84 474.368V524.08L322.605 529.303ZM335.422 459.328L328.743 465.993V435.103L335.422 428.438V459.328ZM335.422 301.817L328.743 308.482V269.937L335.422 263.273V301.817ZM335.422 222.476L328.743 229.141V195.999L335.422 189.335V222.476ZM335.422 187.984L328.743 194.649V163.038L335.422 156.374V187.984ZM314.842 122.422L321.702 115.578V123.053L314.842 129.897V122.422ZM314.842 131.158L321.702 124.314V168.802L314.842 175.646V131.158ZM314.842 176.907L321.702 170.063V193.928L314.842 200.773V176.907ZM314.842 202.123L321.702 195.279V225.448L314.842 232.293V202.123ZM314.842 233.554L321.702 226.709V236.165L314.842 243.01V233.554ZM314.842 244.27L321.702 237.426V267.956L314.842 274.8V244.27ZM314.842 276.061L321.702 269.216V325.052L314.842 331.897V276.061ZM314.842 333.157L321.702 326.313V409.346L314.842 416.191V333.157ZM314.842 417.451L321.702 410.607V419.433L314.842 426.277V417.451ZM321.702 464.732V472.207L314.932 465.452L314.842 465.542V457.977L321.702 464.732ZM314.842 466.623L321.702 473.467V533.626L314.842 540.47V466.623ZM314.842 541.731L321.702 534.887V542.362L314.842 549.206V541.731ZM314.842 550.467L321.702 543.622V588.111L314.842 594.955V550.467ZM314.842 596.216L321.702 589.372V613.237L314.842 620.081V596.216ZM314.842 621.432L321.702 614.588V644.757L314.842 651.602V621.432ZM314.842 652.862L321.702 646.018V655.474L314.842 662.318V652.862ZM322.605 645.117L327.84 639.894V649.35L322.605 654.573V645.117ZM335.422 607.293L328.743 613.957V582.347L335.422 575.683V607.293ZM335.422 516.515L328.743 523.179V473.467L335.422 466.803V516.515ZM336.325 237.516H352.482V452.394H336.325V237.516ZM353.385 237.516H355.732V452.394H353.385V237.516ZM376.492 236.616H365.661V210.049H376.492V236.616ZM404.745 236.616H393.913V210.049H404.745V236.616ZM393.823 377.736H404.655V452.394H393.823V377.736ZM356.634 302.178H364.578V376.835H356.634V302.178ZM365.57 302.178H376.402V376.835H365.57V302.178ZM376.312 452.394H365.48V377.736H376.312V452.394ZM377.215 237.516H392.92V452.394H377.305V237.516H377.215ZM393.823 302.178H404.655V376.835H393.823V302.178ZM405.467 302.178H413.41V376.835H405.467V302.178ZM413.501 301.277H393.823V237.606H413.501V301.277ZM393.101 236.616H377.485V210.049H393.101V236.616ZM376.312 301.277H356.634V237.606H376.312V301.277ZM356.634 377.736H364.578V452.394H356.634V377.736ZM377.576 453.294H393.191V479.861H377.576V453.294ZM405.467 377.736H413.41V452.394H405.467V377.736ZM414.403 237.516H416.931V452.394H414.403V237.516ZM417.833 237.516H434.081V452.394H417.833V237.516ZM447.801 54.1586V59.0217L434.983 46.1434V41.2803L447.801 54.1586ZM447.801 267.055L442.566 261.832V231.302L447.801 236.525V267.055ZM448.704 237.426L455.564 244.27V274.8L448.704 267.956V237.426ZM442.566 616.209L447.801 621.432V643.857L442.566 638.633V616.209ZM441.663 268.676L434.983 262.012V223.737L441.663 230.402V268.676ZM455.564 456.627L448.704 463.471V420.784L455.564 427.628V456.627ZM455.564 540.47L448.704 533.626V473.467L455.564 466.623V540.47ZM442.566 583.248L447.801 588.471V612.336L442.566 607.113V583.248ZM447.801 536.778V541.551L442.566 536.328V531.555L447.801 536.778ZM447.801 473.467V478.33L434.983 465.452V460.589L447.801 473.467ZM442.566 466.893V436.003L447.801 441.227V472.116L442.566 466.893ZM447.801 479.591V529.303L442.566 524.08V474.368L447.801 479.591ZM442.566 537.498L447.801 542.722V587.21L442.566 581.987V537.498ZM448.704 589.462L455.564 596.306V620.171L448.704 613.327V589.462ZM448.704 588.111V543.622L455.564 550.467V594.955L448.704 588.111ZM448.704 542.362V534.887L455.564 541.731V549.206L448.704 542.362ZM447.801 440.056L442.566 434.833V414.66L447.801 419.883V440.056ZM441.663 433.842L434.983 427.178V396.918L441.663 403.583V433.842ZM434.983 395.657V387.732L441.663 394.397V402.322L434.983 395.657ZM434.983 386.472V362.786L441.663 369.451V393.136L434.983 386.472ZM434.983 361.526V312.624L441.663 319.289V368.19L434.983 361.526ZM434.983 311.363V303.078L441.663 309.742V318.028L434.983 311.363ZM434.983 301.817V263.273L441.663 269.937V308.482L434.983 301.817ZM441.663 435.193V466.083L434.983 459.418V428.529L441.663 435.193ZM441.663 473.467V523.179L434.983 516.515V466.803L441.663 473.467ZM441.663 524.44L447.801 530.564V535.427L434.983 522.549V517.686L441.663 524.44ZM441.663 530.564V581.086L434.983 574.422V523.9L441.663 530.564ZM441.663 582.347V613.957L434.983 607.293V575.683L441.663 582.347ZM442.566 608.464L447.801 613.687V620.171L442.566 614.948V608.464ZM448.704 614.588L455.564 621.432V651.602L448.704 644.757V614.588ZM455.564 465.452L448.704 472.207V464.732L455.564 457.887V465.452ZM448.704 419.433V410.607L455.564 417.451V426.277L448.704 419.433ZM447.801 418.532L442.566 413.309V404.483L447.801 409.706V418.532ZM442.566 403.222V394.036V369.09V320.189L447.801 325.412V408.446L442.566 403.222ZM442.566 318.928V309.382V270.837L447.801 276.061V324.152L442.566 318.928ZM447.801 274.8L442.566 269.577V263.092L447.801 268.316V274.8ZM442.566 230.041V220.585L447.801 225.809V235.265L442.566 230.041ZM442.566 219.324V196.9L447.801 202.123V224.548L442.566 219.324ZM448.704 168.802V124.314L455.564 131.158V175.646L448.704 168.802ZM455.564 176.907V200.773L448.704 193.928V170.063L455.564 176.907ZM448.704 123.053V115.578L455.564 122.422V129.897L448.704 123.053ZM441.663 105.131L447.801 111.255V116.118L434.983 103.24V98.3769L441.663 105.131ZM442.566 112.156L447.801 117.379V122.152L442.566 116.929V112.156ZM447.801 109.994L442.566 104.771V55.0591L447.801 60.2825V109.994ZM441.663 103.87L434.983 97.2062V47.4042L441.663 54.0685V103.87ZM441.663 111.255V161.778L434.983 155.113V104.591L441.663 111.255ZM442.566 118.19L447.801 123.413V167.901L442.566 162.678V118.19ZM447.801 169.162V193.028L442.566 187.804V163.939L447.801 169.162ZM442.566 189.155L447.801 194.378V200.863L442.566 195.639V189.155ZM448.704 195.279L455.564 202.123V232.293L448.704 225.448V195.279ZM455.564 121.162L448.704 114.317V54.1586L455.564 47.3142V121.162ZM441.663 163.038V194.649L434.983 187.984V156.374L441.663 163.038ZM441.663 195.999V229.141L434.983 222.476V189.335L441.663 195.999ZM434.983 643.046L441.663 649.71V669.883L434.983 663.219V643.046ZM434.983 641.785V608.644L441.663 615.308V648.45L434.983 641.785ZM442.566 639.894L447.801 645.117V654.573L442.566 649.35V639.894ZM448.704 646.018L455.564 652.862V662.318L448.704 655.474V646.018ZM448.704 409.346V326.313L455.564 333.157V416.191L448.704 409.346ZM448.704 325.052V269.216L455.564 276.061V331.897L448.704 325.052ZM448.704 236.165V226.709L455.564 233.554V243.01L448.704 236.165ZM447.801 20.567V52.8077L442.566 47.5843V15.3437L447.801 20.567ZM441.663 14.4431V46.7738L434.983 40.1096V7.68878L441.663 14.4431ZM434.081 236.616H405.738V210.049H434.081V236.616ZM413.681 144.667H405.738V70.0087H413.681V144.667ZM404.745 144.667H393.913V70.0087H404.745V144.667ZM394.004 145.567H413.681V209.148H394.004V145.567ZM376.492 144.667H365.661V70.0087H376.492V144.667ZM364.848 144.667H356.815V70.0087H364.758V144.667H364.848ZM356.815 145.567H376.492V209.148H356.815V145.567ZM364.848 236.616H336.325V210.049H364.848V236.616ZM335.422 7.68878V40.0195L328.743 46.6838V14.4431L335.422 7.68878ZM327.84 15.3437V47.6744L322.605 52.8978V20.567L327.84 15.3437ZM321.702 45.423V52.8978L314.932 46.1434L314.842 46.2335V38.6686L321.702 45.423ZM314.842 693.298V663.579L321.702 656.735V686.454L314.842 693.298ZM322.605 685.553V655.834L327.84 650.611V670.784V680.33L322.605 685.553ZM328.743 679.429V671.144L335.422 664.48V672.765L328.743 679.429ZM336.325 453.294H364.939V479.861H336.325V453.294ZM356.995 545.243H364.939V619.901H356.995V545.243ZM365.841 545.243H376.673V619.901H365.841V545.243ZM376.673 544.343H356.995V480.762H376.673V544.343ZM394.094 545.243H404.926V619.901H394.094V545.243ZM405.828 545.243H413.771V619.901H405.828V545.243ZM413.771 544.343H394.094V480.762H413.771V544.343ZM405.828 453.294H434.081V479.861H405.828V453.294ZM434.983 672.765V664.48L441.663 671.144V679.429L434.983 672.765ZM442.566 680.33V670.784V650.611L447.801 655.834V685.553L442.566 680.33ZM448.704 686.454V656.735L455.564 663.579V693.298L448.704 686.454Z"/>
	<path d="M480.115 -6V6.42797L473.436 13.0922V-6H472.533V14.0829L467.298 19.3062V-6H466.395V44.1622L459.535 37.3178V-6H458.633V696H459.535V694.559L466.395 687.715V696H467.298V686.814L472.533 681.591V696H473.436V680.69L480.115 674.026V696H481.018V-6H480.115ZM480.115 663.219L473.436 669.883V649.71L480.115 643.046V663.219ZM480.115 641.785L473.436 648.45V615.308L480.115 608.644V641.785ZM459.535 47.3142L466.395 54.1586V114.317L459.535 121.162V47.3142ZM480.115 41.2803V46.1434L467.298 59.0217V54.1586L480.115 41.2803ZM472.533 638.633L467.298 643.857V621.432L472.533 616.209V638.633ZM472.533 369.09V394.036V403.222L467.298 408.446V325.412L472.533 320.189V369.09ZM472.533 404.483V413.309L467.298 418.532V409.706L472.533 404.483ZM466.395 419.433L459.535 426.277V417.451L466.395 410.607V419.433ZM467.298 529.303V479.591L472.533 474.368V524.08L467.298 529.303ZM472.533 536.238L467.298 541.461V536.688L472.533 531.465V536.238ZM459.535 457.887L466.395 464.732V472.207L459.626 465.452L459.535 465.542V457.887ZM466.395 463.471L459.535 456.627V427.538L466.395 420.694V463.471ZM459.535 466.623L466.395 473.467V533.626L459.535 540.47V466.623ZM459.535 541.731L466.395 534.887V542.362L459.535 549.206V541.731ZM459.535 550.467L466.395 543.622V588.111L459.535 594.955V550.467ZM459.535 596.216L466.395 589.372V613.237L459.535 620.081V596.216ZM459.535 621.432L466.395 614.588V644.757L459.535 651.602V621.432ZM467.298 620.171V613.687L472.533 608.464V614.948L467.298 620.171ZM472.533 607.203L467.298 612.426V588.561L472.533 583.338V607.203ZM467.298 587.21V542.722L472.533 537.498V581.987L467.298 587.21ZM473.436 530.564L480.115 523.9V574.422L473.436 581.086V530.564ZM480.115 522.639L467.298 535.517V530.654L473.436 524.53L480.115 517.866V522.639ZM480.115 516.515L473.436 523.179V473.467L480.115 466.803V516.515ZM480.115 465.452L467.298 478.33V473.467L480.115 460.589V465.452ZM467.298 472.207V441.317L472.533 436.093V466.983L467.298 472.207ZM467.298 440.056V419.883L472.533 414.66V434.833L467.298 440.056ZM473.436 403.583L480.115 396.918V427.178L473.436 433.842V403.583ZM480.115 395.657L473.436 402.322V394.397L480.115 387.732V395.657ZM480.115 386.472L473.436 393.136V369.451L480.115 362.786V386.472ZM480.115 361.526L473.436 368.19V319.289L480.115 312.624V361.526ZM480.115 311.363L473.436 318.028V309.742L480.115 303.078V311.363ZM472.533 309.382V318.928L467.298 324.152V276.061L472.533 270.837V309.382ZM467.298 274.8V268.316L472.533 263.092V269.577L467.298 274.8ZM473.436 230.402L480.115 223.737V262.012L473.436 268.676V230.402ZM472.533 261.832L467.298 267.055V236.525L472.533 231.302V261.832ZM466.395 267.956L459.535 274.8V244.27L466.395 237.426V267.956ZM467.298 235.265V225.809L472.533 220.585V230.041L467.298 235.265ZM472.533 219.324L467.298 224.548V202.123L472.533 196.9V219.324ZM467.298 200.863V194.378L472.533 189.155V195.639L467.298 200.863ZM472.533 187.804L467.298 193.028V169.162L472.533 163.939V187.804ZM467.298 167.901V123.413L472.533 118.19V162.678L467.298 167.901ZM467.298 60.2825L472.533 55.0591V104.771L467.298 109.994V60.2825ZM467.298 117.379L472.533 112.156V116.929L467.298 122.152V117.379ZM473.436 111.255L480.115 104.591V155.113L473.436 161.778V111.255ZM480.115 103.33L467.298 116.208V111.345L473.436 105.221L480.115 98.557V103.33ZM480.115 97.1161L473.436 103.78V54.0685L480.115 47.4042V97.1161ZM459.535 122.422L466.395 115.578V123.053L459.535 129.897V122.422ZM459.535 131.158L466.395 124.314V168.802L459.535 175.646V131.158ZM459.535 176.907L466.395 170.063V193.928L459.535 200.773V176.907ZM459.535 202.123L466.395 195.279V225.448L459.535 232.293V202.123ZM459.535 233.554L466.395 226.709V236.165L459.535 243.01V233.554ZM459.535 276.061L466.395 269.216V325.052L459.535 331.897V276.061ZM459.535 333.157L466.395 326.313V409.346L459.535 416.191V333.157ZM459.535 652.862L466.395 646.018V655.474L459.535 662.318V652.862ZM467.298 645.117L472.533 639.894V649.35L467.298 654.573V645.117ZM480.115 607.293L473.436 613.957V582.347L480.115 575.683V607.293ZM480.115 459.328L473.436 465.993V435.103L480.115 428.438V459.328ZM480.115 301.817L473.436 308.482V269.937L480.115 263.273V301.817ZM480.115 222.476L473.436 229.141V195.999L480.115 189.335V222.476ZM480.115 187.984L473.436 194.649V163.038L480.115 156.374V187.984ZM480.115 7.68878V40.0195L473.436 46.6838V14.4431L480.115 7.68878ZM472.533 15.3437V47.6744L467.298 52.8978V20.567L472.533 15.3437ZM466.395 45.423V52.8978L459.626 46.1434L459.535 46.2335V38.6686L466.395 45.423ZM459.535 693.298V663.579L466.395 656.735V686.454L459.535 693.298ZM467.298 685.553V655.834L472.533 650.611V670.784V680.33L467.298 685.553ZM473.436 679.429V671.144L480.115 664.48V672.765L473.436 679.429Z"/>
	<path d="M310.871 37.3178L304.011 44.1622V-6H303.108V19.3062L297.873 14.0829V-6H296.97V13.1823L290.29 6.51802V-6H289.388V209.148H273.05V-6H272.147V209.148H269.8V-6H268.898V69.1081H260.955V-6H260.052V69.1081H249.22V-6H248.318V209.148H232.702V-6H231.799V69.1081H220.968V-6H220.065V69.1081H212.122V-6H211.219V209.148H208.692V-6H207.789V209.148H191.632V-6H190.729V6.42797L184.049 13.0922V-6H183.147V14.0829L177.911 19.3062V-6H177.009V44.1622L170.149 37.3178V-6H169.246V696H170.149V694.559L177.009 687.715V696H177.911V686.814L183.147 681.591V696H184.049V680.69L190.729 674.026V696H191.632V480.762H207.969V695.91H208.872V480.762H211.219V695.91H212.122V620.802H220.065V695.91H220.968V620.802H231.799V695.91H232.702V480.762H248.318V695.91H249.22V620.802H260.052V695.91H260.955V620.802H268.898V695.91H269.8V480.762H272.328V695.91H273.231V480.762H289.298V696H290.2V674.026L296.88 680.69V696H297.782V681.591L303.018 686.814V696H303.92V687.715L310.78 694.559V696H311.683V-6H310.78V37.3178H310.871ZM310.871 38.5786V46.1434L310.78 46.0534L304.011 52.8077V45.3329L310.871 38.5786ZM249.31 453.294H260.142V479.861H249.31V453.294ZM221.058 453.294H231.89V479.861H221.058V453.294ZM190.729 663.219L184.049 669.883V649.71L190.729 643.046V663.219ZM190.729 641.785L184.049 648.45V615.308L190.729 608.644V641.785ZM170.149 47.3142L177.009 54.1586V114.317L170.149 121.162V47.3142ZM190.729 41.2803V46.1434L177.911 59.0217V54.1586L190.729 41.2803ZM190.729 465.452L177.911 478.33V473.467L190.729 460.589V465.452ZM184.049 524.44L190.729 517.686V522.549L177.911 535.427V530.564L184.049 524.44ZM183.147 638.633L177.911 643.857V621.432L183.147 616.209V638.633ZM177.911 620.171V613.687L183.147 608.464V614.948L177.911 620.171ZM183.147 607.203L177.911 612.426V588.561L183.147 583.338V607.203ZM177.911 587.21V542.722L183.147 537.498V581.987L177.911 587.21ZM177.911 60.2825L183.147 55.0591V104.771L177.911 109.994V60.2825ZM177.911 111.255L184.049 105.131L190.729 98.467V103.33L177.911 116.208V111.255ZM184.049 111.255L190.729 104.591V155.113L184.049 161.778V111.255ZM190.729 97.1161L184.049 103.78V54.0685L190.729 47.4042V97.1161ZM177.911 117.379L183.147 112.156V116.929L177.911 122.152V117.379ZM183.147 118.19V162.678L177.911 167.901V123.413L183.147 118.19ZM183.147 163.939V187.804L177.911 193.028V169.162L183.147 163.939ZM183.147 189.155V195.639L177.911 200.863V194.378L183.147 189.155ZM177.911 202.123L183.147 196.9V219.324L177.911 224.548V202.123ZM183.147 220.585V230.041L177.911 235.265V225.809L183.147 220.585ZM183.147 231.302V261.832L177.911 267.055V236.525L183.147 231.302ZM190.729 262.012L184.049 268.676V230.402L190.729 223.737V262.012ZM183.147 263.092V269.577L177.911 274.8V268.316L183.147 263.092ZM177.911 276.061L183.147 270.837V309.382V318.928L177.911 324.152V276.061ZM184.049 403.583L190.729 396.918V427.178L184.049 433.842V403.583ZM190.729 361.526L184.049 368.19V319.289L190.729 312.624V361.526ZM184.049 369.451L190.729 362.786V386.472L184.049 393.136V369.451ZM184.049 394.397L190.729 387.732V395.657L184.049 402.322V394.397ZM190.729 311.363L184.049 318.028V309.742L190.729 303.078V311.363ZM183.147 320.189V369.09V394.036V403.222L177.911 408.446V325.412L183.147 320.189ZM183.147 404.483V413.309L177.911 418.532V409.706L183.147 404.483ZM183.147 414.57V434.742L177.911 439.966V419.793L183.147 414.57ZM177.911 472.207V441.317L183.147 436.093V466.983L177.911 472.207ZM177.009 463.471L170.149 456.627V427.538L177.009 420.694V463.471ZM177.911 536.778L183.147 531.555V536.328L177.911 541.551V536.778ZM184.049 530.564L190.729 523.9V574.422L184.049 581.086V530.564ZM177.911 529.303V479.591L183.147 474.368V524.08L177.911 529.303ZM190.729 459.328L184.049 465.993V435.103L190.729 428.438V459.328ZM190.729 301.817L184.049 308.482V269.937L190.729 263.273V301.817ZM190.729 222.476L184.049 229.141V195.999L190.729 189.335V222.476ZM190.729 187.984L184.049 194.649V163.038L190.729 156.374V187.984ZM170.149 122.422L177.009 115.578V123.053L170.149 129.897V122.422ZM170.149 131.158L177.009 124.314V168.802L170.149 175.646V131.158ZM170.149 176.907L177.009 170.063V193.928L170.149 200.773V176.907ZM170.149 202.123L177.009 195.279V225.448L170.149 232.293V202.123ZM170.149 233.554L177.009 226.709V236.165L170.149 243.01V233.554ZM170.149 244.27L177.009 237.426V267.956L170.149 274.8V244.27ZM170.149 276.061L177.009 269.216V325.052L170.149 331.897V276.061ZM170.149 333.157L177.009 326.313V409.346L170.149 416.191V333.157ZM170.149 417.451L177.009 410.607V419.433L170.149 426.277V417.451ZM177.009 464.732V472.207L170.239 465.452L170.149 465.542V457.977L177.009 464.732ZM170.149 466.623L177.009 473.467V533.626L170.149 540.47V466.623ZM170.149 541.731L177.009 534.887V542.362L170.149 549.206V541.731ZM170.149 550.467L177.009 543.622V588.111L170.149 594.955V550.467ZM170.149 596.216L177.009 589.372V613.237L170.149 620.081V596.216ZM170.149 621.432L177.009 614.588V644.757L170.149 651.602V621.432ZM170.149 652.862L177.009 646.018V655.474L170.149 662.318V652.862ZM177.911 645.117L183.147 639.894V649.35L177.911 654.573V645.117ZM190.729 607.293L184.049 613.957V582.347L190.729 575.683V607.293ZM190.729 516.515L184.049 523.179V473.467L190.729 466.803V516.515ZM191.632 237.516H207.699V452.394H191.632V237.516ZM208.601 237.516H210.948V452.394H208.601V237.516ZM231.709 236.616H220.877V210.049H231.709V236.616ZM259.962 236.616H249.13V210.049H259.962V236.616ZM248.949 377.736H259.781V452.394H248.949V377.736ZM211.851 302.178H219.794V376.835H211.851V302.178ZM220.697 302.178H231.528V376.835H220.697V302.178ZM231.528 452.394H220.697V377.736H231.528V452.394ZM232.431 237.516H248.047V452.394H232.431V237.516ZM248.949 302.178H259.781V376.835H248.949V302.178ZM260.684 302.178H268.627V376.835H260.684V302.178ZM268.627 301.277H248.949V237.606H268.627V301.277ZM248.227 236.616H232.612V210.049H248.227V236.616ZM231.528 301.277H211.851V237.606H231.528V301.277ZM211.851 377.736H219.794V452.394H211.851V377.736ZM232.702 453.294H248.318V479.861H232.702V453.294ZM260.684 377.736H268.627V452.394H260.684V377.736ZM269.53 237.516H272.057V452.394H269.53V237.516ZM273.05 237.516H289.388V452.394H273.05V237.516ZM303.108 54.1586V59.0217L290.29 46.1434V41.2803L303.108 54.1586ZM303.108 267.055L297.873 261.832V231.302L303.108 236.525V267.055ZM304.011 237.426L310.871 244.27V274.8L304.011 267.956V237.426ZM297.873 616.209L303.108 621.432V643.857L297.873 638.633V616.209ZM296.97 268.676L290.29 262.012V223.737L296.97 230.402V268.676ZM310.871 456.627L304.011 463.471V420.784L310.871 427.628V456.627ZM310.871 540.47L304.011 533.626V473.467L310.871 466.623V540.47ZM297.873 583.248L303.108 588.471V612.336L297.873 607.113V583.248ZM303.108 536.778V541.551L297.873 536.328V531.555L303.108 536.778ZM303.108 473.467V478.33L290.29 465.452V460.589L303.108 473.467ZM297.873 466.893V436.003L303.108 441.227V472.116L297.873 466.893ZM303.108 479.591V529.303L297.873 524.08V474.368L303.108 479.591ZM297.873 537.498L303.108 542.722V587.21L297.873 581.987V537.498ZM304.011 589.462L310.871 596.306V620.171L304.011 613.327V589.462ZM304.011 588.111V543.622L310.871 550.467V594.955L304.011 588.111ZM304.011 542.362V534.887L310.871 541.731V549.206L304.011 542.362ZM303.108 440.056L297.873 434.833V414.66L303.108 419.883V440.056ZM296.97 433.842L290.29 427.178V396.918L296.97 403.583V433.842ZM290.29 395.657V387.732L296.97 394.397V402.322L290.29 395.657ZM290.29 386.472V362.786L296.97 369.451V393.136L290.29 386.472ZM290.29 361.526V312.624L296.97 319.289V368.19L290.29 361.526ZM290.29 311.363V303.078L296.97 309.742V318.028L290.29 311.363ZM290.29 301.817V263.273L296.97 269.937V308.482L290.29 301.817ZM296.97 435.193V466.083L290.29 459.418V428.529L296.97 435.193ZM296.97 473.467V523.179L290.29 516.515V466.803L296.97 473.467ZM296.97 524.44L303.108 530.564V535.427L290.29 522.549V517.686L296.97 524.44ZM296.97 530.564V581.086L290.29 574.422V523.9L296.97 530.564ZM296.97 582.347V613.957L290.29 607.293V575.683L296.97 582.347ZM297.873 608.464L303.108 613.687V620.171L297.873 614.948V608.464ZM304.011 614.588L310.871 621.432V651.602L304.011 644.757V614.588ZM310.871 465.452L304.011 472.207V464.732L310.871 457.887V465.452ZM304.011 419.433V410.607L310.871 417.451V426.277L304.011 419.433ZM303.108 418.532L297.873 413.309V404.483L303.108 409.706V418.532ZM297.873 403.222V394.036V369.09V320.189L303.108 325.412V408.446L297.873 403.222ZM297.873 318.928V309.382V270.837L303.108 276.061V324.152L297.873 318.928ZM303.108 274.8L297.873 269.577V263.092L303.108 268.316V274.8ZM297.873 230.041V220.585L303.108 225.809V235.265L297.873 230.041ZM297.873 219.324V196.9L303.108 202.123V224.548L297.873 219.324ZM304.011 168.802V124.314L310.871 131.158V175.646L304.011 168.802ZM310.871 176.907V200.773L304.011 193.928V170.063L310.871 176.907ZM304.011 123.053V115.578L310.871 122.422V129.897L304.011 123.053ZM296.97 105.131L303.108 111.255V116.118L290.29 103.24V98.3769L296.97 105.131ZM297.873 112.156L303.108 117.379V122.152L297.873 116.929V112.156ZM303.108 109.994L297.873 104.771V55.0591L303.108 60.2825V109.994ZM296.97 103.87L290.29 97.2062V47.4042L296.97 54.0685V103.87ZM296.97 111.255V161.778L290.29 155.113V104.591L296.97 111.255ZM297.873 118.19L303.108 123.413V167.901L297.873 162.678V118.19ZM303.108 169.162V193.028L297.873 187.804V163.939L303.108 169.162ZM297.873 189.155L303.108 194.378V200.863L297.873 195.639V189.155ZM304.011 195.279L310.871 202.123V232.293L304.011 225.448V195.279ZM310.871 121.162L304.011 114.317V54.1586L310.871 47.3142V121.162ZM296.97 163.038V194.649L290.29 187.984V156.374L296.97 163.038ZM296.97 195.999V229.141L290.29 222.476V189.335L296.97 195.999ZM290.29 643.046L296.97 649.71V669.883L290.29 663.219V643.046ZM290.29 641.785V608.644L296.97 615.308V648.45L290.29 641.785ZM297.873 639.894L303.108 645.117V654.573L297.873 649.35V639.894ZM304.011 646.018L310.871 652.862V662.318L304.011 655.474V646.018ZM304.011 409.346V326.313L310.871 333.157V416.191L304.011 409.346ZM304.011 325.052V269.216L310.871 276.061V331.897L304.011 325.052ZM304.011 236.165V226.709L310.871 233.554V243.01L304.011 236.165ZM303.108 20.567V52.8077L297.873 47.5843V15.3437L303.108 20.567ZM296.97 14.4431V46.7738L290.29 40.1096V7.68878L296.97 14.4431ZM289.388 236.616H260.864V210.049H289.388V236.616ZM268.808 144.667H260.864V70.0087H268.808V144.667ZM259.962 144.667H249.13V70.0087H259.962V144.667ZM249.13 145.567H268.808V209.148H249.13V145.567ZM231.709 144.667H220.877V70.0087H231.709V144.667ZM219.975 144.667H212.031V70.0087H219.975V144.667ZM212.031 145.567H231.709V209.148H212.031V145.567ZM219.975 236.616H191.632V210.049H219.975V236.616ZM190.729 7.68878V40.0195L184.049 46.6838V14.4431L190.729 7.68878ZM183.147 15.3437V47.6744L177.911 52.8978V20.567L183.147 15.3437ZM177.009 45.423V52.8978L170.239 46.1434L170.149 46.2335V38.6686L177.009 45.423ZM170.149 693.298V663.579L177.009 656.735V686.454L170.149 693.298ZM177.911 685.553V655.834L183.147 650.611V670.784V680.33L177.911 685.553ZM184.049 679.429V671.144L190.729 664.48V672.765L184.049 679.429ZM191.632 453.294H220.155V479.861H191.632V453.294ZM212.122 545.243H220.065V619.901H212.122V545.243ZM221.058 545.243H231.89V619.901H221.058V545.243ZM231.799 544.343H212.122V480.762H231.799V544.343ZM249.31 545.243H260.142V619.901H249.31V545.243ZM260.955 545.243H268.898V619.901H260.955V545.243ZM268.988 544.343H249.31V480.762H268.988V544.343ZM260.955 453.294H289.298V479.861H260.955V453.294ZM290.29 672.765V664.48L296.97 671.144V679.429L290.29 672.765ZM297.873 680.33V670.784V650.611L303.108 655.834V685.553L297.873 680.33ZM304.011 686.454V656.735L310.871 663.579V693.298L304.011 686.454Z"/>
	<path d="M166.177 37.3178L159.317 44.1622V-6H158.415V19.3062L153.179 14.0829V-6H152.277V13.1823L145.597 6.51802V-6H144.695V209.148H128.357V-6H127.454V209.148H125.107V-6H124.205V69.1081H116.261V-6H115.359V69.1081H104.527V-6H103.624V209.148H88.0085V-6H87.1059V69.1081H76.2742V-6H75.3715V69.1081H67.4283V-6H66.5256V209.148H63.9982V-6H63.0956V209.148H46.9383V-6H46.0356V6.42797L39.3561 13.1823V-6H38.4534V14.0829L33.2181 19.3062V-6H32.3155V44.1622L25.4554 37.3178V-6H24.5527V696H25.4554V694.559L32.3155 687.715V696H33.2181V686.814L38.4534 681.591V696H39.3561V680.69L46.0356 674.026V696H46.9383V480.762H63.2761V695.91H64.1788V480.762H66.5256V695.91H67.4283V620.802H75.3715V695.91H76.2742V620.802H87.1059V695.91H88.0085V480.762H103.624V695.91H104.527V620.802H115.359V695.91H116.261V620.802H124.205V695.91H125.107V480.762H127.635V695.91H128.537V480.762H144.695V696H145.597V674.026L152.277 680.69V696H153.179V681.591L158.415 686.814V696H159.317V687.715L166.177 694.559V696H167.08V-6H166.177V37.3178ZM166.177 38.5786V46.1434L166.087 46.0534L159.317 52.8077V45.3329L166.177 38.5786ZM104.617 453.294H115.449V479.861H104.617V453.294ZM76.3645 453.294H87.1962V479.861H76.3645V453.294ZM46.0356 663.219L39.3561 669.883V649.71L46.0356 643.046V663.219ZM46.0356 641.785L39.3561 648.45V615.308L46.0356 608.644V641.785ZM25.4554 47.3142L32.3155 54.1586V114.317L25.4554 121.162V47.3142ZM46.0356 41.2803V46.1434L33.2181 59.0217V54.1586L46.0356 41.2803ZM46.0356 465.452L33.2181 478.33V473.467L46.0356 460.589V465.452ZM39.3561 524.44L46.0356 517.776V522.639L33.2181 535.517V530.654L39.3561 524.44ZM38.4534 638.633L33.2181 643.857V621.432L38.4534 616.209V638.633ZM33.2181 620.171V613.687L38.4534 608.464V614.948L33.2181 620.171ZM38.4534 607.203L33.2181 612.426V588.561L38.4534 583.338V607.203ZM33.2181 587.21V542.722L38.4534 537.498V581.987L33.2181 587.21ZM33.2181 60.2825L38.4534 55.0591V104.771L33.2181 109.994V60.2825ZM33.2181 111.255L39.3561 105.131L46.0356 98.467V103.33L33.2181 116.208V111.255ZM39.3561 111.255L46.0356 104.591V155.113L39.3561 161.778V111.255ZM46.0356 97.2062L39.3561 103.87V54.1586L46.0356 47.4943V97.2062ZM33.2181 117.379L38.4534 112.156V116.929L33.2181 122.152V117.379ZM38.4534 118.19V162.678L33.2181 167.901V123.413L38.4534 118.19ZM38.4534 163.939V187.894L33.2181 193.118V169.252L38.4534 163.939ZM38.4534 189.155V195.639L33.2181 200.863V194.378L38.4534 189.155ZM33.2181 202.123L38.4534 196.9V219.324L33.2181 224.548V202.123ZM38.4534 220.585V230.041L33.2181 235.265V225.809L38.4534 220.585ZM38.4534 231.302V261.832L33.2181 267.055V236.525L38.4534 231.302ZM46.0356 262.012L39.3561 268.676V230.402L46.0356 223.737V262.012ZM38.4534 263.092V269.577L33.2181 274.8V268.316L38.4534 263.092ZM33.2181 276.061L38.4534 270.837V309.382V318.928L33.2181 324.152V276.061ZM39.3561 403.583L46.0356 396.918V427.178L39.3561 433.842V403.583ZM46.0356 361.526L39.3561 368.19V319.289L46.0356 312.624V361.526ZM39.3561 369.451L46.0356 362.786V386.472L39.3561 393.136V369.451ZM39.3561 394.397L46.0356 387.732V395.657L39.3561 402.322V394.397ZM46.0356 311.363L39.3561 318.028V309.742L46.0356 303.078V311.363ZM38.4534 320.189V369.09V394.036V403.222L33.2181 408.446V325.412L38.4534 320.189ZM38.4534 404.483V413.309L33.2181 418.532V409.706L38.4534 404.483ZM38.4534 414.57V434.742L33.2181 439.966V419.793L38.4534 414.57ZM33.2181 472.207V441.317L38.4534 436.093V466.983L33.2181 472.207ZM32.3155 463.471L25.4554 456.627V427.538L32.3155 420.694V463.471ZM33.2181 536.778L38.4534 531.555V536.328L33.2181 541.551V536.778ZM39.3561 530.564L46.0356 523.9V574.422L39.3561 581.086V530.564ZM33.2181 529.303V479.591L38.4534 474.368V524.08L33.2181 529.303ZM46.0356 459.328L39.3561 465.993V435.103L46.0356 428.438V459.328ZM46.0356 301.817L39.3561 308.482V269.937L46.0356 263.273V301.817ZM46.0356 222.476L39.3561 229.141V195.999L46.0356 189.335V222.476ZM46.0356 187.984L39.3561 194.649V163.038L46.0356 156.374V187.984ZM25.4554 122.422L32.3155 115.578V123.053L25.4554 129.897V122.422ZM25.4554 131.158L32.3155 124.314V168.802L25.4554 175.646V131.158ZM25.4554 176.907L32.3155 170.063V193.928L25.4554 200.773V176.907ZM25.4554 202.123L32.3155 195.279V225.448L25.4554 232.293V202.123ZM25.4554 233.554L32.3155 226.709V236.165L25.4554 243.01V233.554ZM25.4554 244.27L32.3155 237.426V267.956L25.4554 274.8V244.27ZM25.4554 276.061L32.3155 269.216V325.052L25.4554 331.897V276.061ZM25.4554 333.157L32.3155 326.313V409.346L25.4554 416.191V333.157ZM25.4554 417.451L32.3155 410.607V419.433L25.4554 426.277V417.451ZM32.3155 464.732V472.207L25.5456 465.452L25.4554 465.542V457.977L32.3155 464.732ZM25.4554 466.623L32.3155 473.467V533.626L25.4554 540.47V466.623ZM25.4554 541.731L32.3155 534.887V542.362L25.4554 549.206V541.731ZM25.4554 550.467L32.3155 543.622V588.111L25.4554 594.955V550.467ZM25.4554 596.216L32.3155 589.372V613.237L25.4554 620.081V596.216ZM25.4554 621.432L32.3155 614.588V644.757L25.4554 651.602V621.432ZM25.4554 652.862L32.3155 646.018V655.474L25.4554 662.318V652.862ZM33.2181 645.117L38.4534 639.894V649.35L33.2181 654.573V645.117ZM46.0356 607.293L39.3561 613.957V582.347L46.0356 575.683V607.293ZM46.0356 516.515L39.3561 523.179V473.467L46.0356 466.803V516.515ZM46.9383 237.516H63.0053V452.394H46.9383V237.516ZM63.908 237.516H66.2548V452.394H63.908V237.516ZM87.0156 236.616H76.1839V210.049H87.0156V236.616ZM115.268 236.616H104.437V210.049H115.268V236.616ZM104.256 377.736H115.088V452.394H104.256V377.736ZM67.1575 302.178H75.1007V376.835H67.1575V302.178ZM76.0034 302.178H86.8351V376.835H76.0034V302.178ZM86.8351 452.394H76.0034V377.736H86.8351V452.394ZM87.7377 237.516H103.353V452.394H87.7377V237.516ZM104.256 302.178H115.088V376.835H104.256V302.178ZM115.99 302.178H123.934V376.835H115.99V302.178ZM123.934 301.277H104.256V237.606H123.934V301.277ZM103.534 236.616H87.9183V210.049H103.534V236.616ZM86.8351 301.277H67.1575V237.606H86.8351V301.277ZM67.1575 377.736H75.1007V452.394H67.1575V377.736ZM88.0085 453.294H103.624V479.861H88.0085V453.294ZM115.99 377.736H123.934V452.394H115.99V377.736ZM124.836 237.516H127.364V452.394H124.836V237.516ZM128.357 237.516H144.695V452.394H128.357V237.516ZM158.415 54.1586V59.0217L145.597 46.1434V41.2803L158.415 54.1586ZM158.415 267.055L153.179 261.832V231.302L158.415 236.525V267.055ZM159.317 237.426L166.177 244.27V274.8L159.317 267.956V237.426ZM153.179 616.209L158.415 621.432V643.857L153.179 638.633V616.209ZM152.277 268.676L145.597 262.012V223.737L152.277 230.402V268.676ZM166.177 456.627L159.317 463.471V420.784L166.177 427.628V456.627ZM166.177 540.47L159.317 533.626V473.467L166.177 466.623V540.47ZM153.179 583.248L158.415 588.471V612.336L153.179 607.113V583.248ZM158.415 536.778V541.551L153.179 536.328V531.555L158.415 536.778ZM158.415 473.467V478.33L145.597 465.452V460.589L158.415 473.467ZM153.179 466.893V436.003L158.415 441.227V472.116L153.179 466.893ZM158.415 479.591V529.303L153.179 524.08V474.368L158.415 479.591ZM153.179 537.498L158.415 542.722V587.21L153.179 581.987V537.498ZM159.317 589.462L166.177 596.306V620.171L159.317 613.327V589.462ZM159.317 588.111V543.622L166.177 550.467V594.955L159.317 588.111ZM159.317 542.362V534.887L166.177 541.731V549.206L159.317 542.362ZM158.415 440.056L153.179 434.833V414.66L158.415 419.883V440.056ZM152.277 433.842L145.597 427.178V396.918L152.277 403.583V433.842ZM145.597 395.657V387.732L152.277 394.397V402.322L145.597 395.657ZM145.597 386.472V362.786L152.277 369.451V393.136L145.597 386.472ZM145.597 361.526V312.624L152.277 319.289V368.19L145.597 361.526ZM145.597 311.363V303.078L152.277 309.742V318.028L145.597 311.363ZM145.597 301.817V263.273L152.277 269.937V308.482L145.597 301.817ZM152.277 435.193V466.083L145.597 459.418V428.529L152.277 435.193ZM152.277 473.467V523.179L145.597 516.515V466.803L152.277 473.467ZM152.277 524.44L158.415 530.564V535.427L145.597 522.639V517.776L152.277 524.44ZM152.277 530.564V581.086L145.597 574.422V523.9L152.277 530.564ZM152.277 582.347V613.957L145.597 607.293V575.683L152.277 582.347ZM153.179 608.464L158.415 613.687V620.171L153.179 614.948V608.464ZM159.317 614.588L166.177 621.432V651.602L159.317 644.757V614.588ZM166.177 465.452L159.317 472.207V464.732L166.177 457.887V465.452ZM159.317 419.433V410.607L166.177 417.451V426.277L159.317 419.433ZM158.415 418.532L153.179 413.309V404.483L158.415 409.706V418.532ZM153.179 403.222V394.036V369.09V320.189L158.415 325.412V408.446L153.179 403.222ZM153.179 318.928V309.382V270.837L158.415 276.061V324.152L153.179 318.928ZM158.415 274.8L153.179 269.577V263.092L158.415 268.316V274.8ZM153.179 230.041V220.585L158.415 225.809V235.265L153.179 230.041ZM153.179 219.324V196.9L158.415 202.123V224.548L153.179 219.324ZM159.317 168.802V124.314L166.177 131.158V175.646L159.317 168.802ZM166.177 176.907V200.773L159.317 193.928V170.063L166.177 176.907ZM159.317 123.053V115.578L166.177 122.422V129.897L159.317 123.053ZM152.277 105.131L158.415 111.255V116.118L145.597 103.33V98.467L152.277 105.131ZM153.179 112.156L158.415 117.379V122.152L153.179 116.929V112.156ZM158.415 109.994L153.179 104.771V55.0591L158.415 60.2825V109.994ZM152.277 103.87L145.597 97.2062V47.4042L152.277 54.0685V103.87ZM152.277 111.255V161.778L145.597 155.113V104.591L152.277 111.255ZM153.179 118.19L158.415 123.413V167.901L153.179 162.678V118.19ZM158.415 169.162V193.028L153.179 187.804V163.939L158.415 169.162ZM153.179 189.155L158.415 194.378V200.863L153.179 195.639V189.155ZM159.317 195.279L166.177 202.123V232.293L159.317 225.448V195.279ZM166.177 121.162L159.317 114.317V54.1586L166.177 47.3142V121.162ZM152.277 163.038V194.649L145.597 187.984V156.374L152.277 163.038ZM152.277 195.999V229.141L145.597 222.476V189.335L152.277 195.999ZM145.597 643.046L152.277 649.71V669.883L145.597 663.219V643.046ZM145.597 641.785V608.644L152.277 615.308V648.45L145.597 641.785ZM153.179 639.894L158.415 645.117V654.573L153.179 649.35V639.894ZM159.317 646.018L166.177 652.862V662.318L159.317 655.474V646.018ZM159.317 409.346V326.313L166.177 333.157V416.191L159.317 409.346ZM159.317 325.052V269.216L166.177 276.061V331.897L159.317 325.052ZM159.317 236.165V226.709L166.177 233.554V243.01L159.317 236.165ZM158.415 20.567V52.8077L153.179 47.5843V15.3437L158.415 20.567ZM152.277 14.4431V46.7738L145.597 40.1096V7.68878L152.277 14.4431ZM144.695 236.616H116.171V210.049H144.695V236.616ZM124.114 144.667H116.171V70.0087H124.114V144.667ZM115.268 144.667H104.437V70.0087H115.268V144.667ZM104.437 145.567H124.114V209.148H104.437V145.567ZM87.0156 144.667H76.1839V70.0087H87.0156V144.667ZM75.2813 144.667H67.338V70.0087H75.2813V144.667ZM67.338 145.567H87.0156V209.148H67.338V145.567ZM75.2813 236.616H46.9383V210.049H75.2813V236.616ZM46.0356 7.68878V40.0195L39.3561 46.6838V14.4431L46.0356 7.68878ZM38.4534 15.3437V47.6744L33.2181 52.8978V20.567L38.4534 15.3437ZM32.3155 45.423V52.8978L25.5456 46.1434L25.4554 46.2335V38.6686L32.3155 45.423ZM25.4554 693.298V663.579L32.3155 656.735V686.454L25.4554 693.298ZM33.2181 685.553V655.834L38.4534 650.611V670.784V680.33L33.2181 685.553ZM39.3561 679.429V671.144L46.0356 664.48V672.765L39.3561 679.429ZM46.9383 453.294H75.4618V479.861H46.9383V453.294ZM67.4283 545.243H75.3715V619.901H67.4283V545.243ZM76.3645 545.243H87.1962V619.901H76.3645V545.243ZM87.1059 544.343H67.4283V480.762H87.1059V544.343ZM104.617 545.243H115.449V619.901H104.617V545.243ZM116.261 545.243H124.205V619.901H116.261V545.243ZM124.295 544.343H104.617V480.762H124.295V544.343ZM116.261 453.294H144.695V479.861H116.352V453.294H116.261ZM145.597 672.765V664.48L152.277 671.144V679.429L145.597 672.765ZM153.179 680.33V670.784V650.611L158.415 655.834V685.553L153.179 680.33ZM159.317 686.454V656.735L166.177 663.579V693.298L159.317 686.454Z"/>
</g>
</svg>
