<svg viewBox="0 0 106 49" fill="none" xmlns="http://www.w3.org/2000/svg">
<path d="M74.728 8.01825L76.3638 3.4015H76.3987L77.9807 8.01825H74.728ZM77.822 0.300563H74.9919L70.2447 12.8818H73.0225L74.0072 10.0807H78.7015L79.6514 12.8818H82.5168L77.822 0.300563ZM67.2046 8.54731C67.0286 9.02943 66.7932 9.41939 66.5007 9.71959C66.2077 10.0182 65.8734 10.2329 65.499 10.3623C65.1232 10.4917 64.736 10.5565 64.3384 10.5565H61.8775V2.62635H63.8453C64.5255 2.62635 65.0973 2.72346 65.5598 2.91733C66.0229 3.11086 66.3951 3.39041 66.6766 3.75409C66.9577 4.11862 67.1602 4.5562 67.2828 5.06733C67.4064 5.5783 67.4677 6.15001 67.4677 6.78539C67.4677 7.47794 67.3797 8.06518 67.2046 8.54731ZM68.6017 1.8512C68.0909 1.33495 67.4868 0.947034 66.7905 0.687628C66.0924 0.430098 65.3401 0.300563 64.5315 0.300563H59.1165V12.8818H64.5315C65.4922 12.8818 66.3282 12.721 67.0361 12.3971C67.7452 12.0746 68.3378 11.6305 68.8123 11.0668C69.2871 10.5033 69.6417 9.83376 69.876 9.0581C70.1107 8.28312 70.2273 7.43664 70.2273 6.52035C70.2273 5.47471 70.0841 4.56525 69.7972 3.78976C69.5093 3.01461 69.111 2.36882 68.6017 1.8512ZM54.1986 8.74084H54.1641L48.9246 0.300563H46.182V12.8818H48.7657V4.45909H48.8018L54.0236 12.8818H56.7839V0.300563H54.1986V8.74084ZM37.6426 7.4723H43.7258V5.32247H37.6426V2.62635H44.27V0.300563H34.8823V12.8818H44.4105V10.5565H37.6426V7.4723ZM27.4681 8.14181H30.2461C30.1636 9.02328 29.8738 9.69621 29.3759 10.1592C28.8777 10.6239 28.171 10.8555 27.2567 10.8555C26.6362 10.8555 26.1085 10.7352 25.6755 10.4946C25.2416 10.2536 24.8899 9.93394 24.6205 9.53425C24.3504 9.13558 24.1546 8.68537 24.0307 8.18584C23.9079 7.68768 23.8464 7.17262 23.8464 6.64459C23.8464 6.09165 23.9079 5.55765 24.0307 5.04156C24.1546 4.5236 24.3504 4.06315 24.6205 3.65783C24.8899 3.25234 25.2416 2.92928 25.6755 2.68864C26.1085 2.44784 26.6362 2.32633 27.2567 2.32633C27.9248 2.32633 28.4937 2.50347 28.9628 2.85589C29.4312 3.20745 29.7478 3.73668 29.9126 4.44066H32.5489C32.4786 3.72473 32.285 3.09141 31.9693 2.53846C31.6521 1.98671 31.2513 1.52251 30.7645 1.1462C30.2782 0.770568 29.7326 0.48539 29.1291 0.291859C28.5259 0.0981575 27.9017 0.000711844 27.2567 0.000711844C26.296 0.000711844 25.4318 0.171545 24.6641 0.512528C23.8963 0.852146 23.2486 1.32283 22.7207 1.92151C22.1943 2.5202 21.79 3.22213 21.5084 4.02783C21.2275 4.83267 21.0861 5.7039 21.0861 6.64459C21.0861 7.5602 21.2275 8.41488 21.5084 9.2076C21.79 10.0017 22.1943 10.6918 22.7207 11.2789C23.2486 11.8662 23.8963 12.3266 24.6641 12.6615C25.4318 12.9968 26.296 13.1641 27.2567 13.1641C27.8662 13.1641 28.4712 13.0381 29.0677 12.7855C29.6665 12.5333 30.2114 12.0892 30.703 11.4547L30.9839 12.8818H32.7425V6.08004H27.4681V8.14181ZM13.0924 7.4723H19.175V5.32247H13.0924V2.62635H19.7199V0.300563H10.3321V12.8818H19.8608V10.5565H13.0924V7.4723ZM2.75895 0.300563H0V12.8818H8.87682V10.5565H2.75895V0.300563Z" fill="#fff"/>
<path d="M80.0599 19.1716V19.7761H84.0741V30.4946H84.7562V19.7761H88.7547V19.1716H80.0599ZM78.4023 27.5208C78.4023 28.236 78.4185 28.9678 78.45 29.6834C78.1007 29.111 77.736 28.5386 77.3555 27.9817L71.1517 19.1716H70.3586V30.4946H71.0242V21.7002C71.0242 21.1278 71.0404 20.5393 70.977 19.9669C71.2786 20.5076 71.612 21.0163 71.9612 21.5252L78.2909 30.4946H79.0692V19.1716H78.3865L78.4023 27.5208ZM62.2223 24.9125H68.7274V24.3082H62.2223V19.7761H69.1556V19.1716H61.5396V30.4946H69.2198V29.8904H62.2223V24.9125ZM54.7992 25.5329H58.9716V25.7237C58.9716 28.3952 57.2579 30.1607 54.6878 30.1607C51.88 30.1607 50.0232 28.0775 50.0232 24.9603C50.0232 21.6843 51.8635 19.5375 54.6722 19.5375C56.6552 19.5375 58.3218 20.7301 58.7344 22.6863H59.3848C59.0358 20.4122 57.0364 18.9332 54.6722 18.9332C51.4988 18.9332 49.3413 21.3664 49.3413 24.9603C49.3413 28.3952 51.4988 30.749 54.6722 30.749C56.5762 30.749 58.401 29.7153 59.0036 27.7435L58.9879 28.4749L59.0828 30.4946H59.575V24.9603H54.7992V25.5329ZM47.0349 30.4946H47.7177V19.1716H47.0349V30.4946ZM39.6357 19.1716H38.9376V30.4946H46.0776V29.8744H39.6357V19.1716ZM31.5603 19.1716H30.8618V30.4946H38.0021V29.8744H31.5603V19.1716ZM22.711 24.9125H29.2172V24.3082H22.711V19.7761H29.6452V19.1716H22.0293V30.4946H29.7089V29.8904H22.711V24.9125ZM12.4432 19.7761H16.4574V30.4946H17.1394V19.7761H21.1382V19.1716H12.4432V19.7761ZM10.7855 27.5208C10.7855 28.236 10.802 28.9678 10.8332 29.6834C10.4841 29.111 10.1193 28.5386 9.73883 27.9817L3.53491 19.1716H2.74193V30.4946H3.40746V21.7002C3.40746 21.1278 3.42375 20.5393 3.36049 19.9669C3.66181 20.5076 3.99517 21.0163 4.3437 21.5252L10.6743 30.4946H11.4525V19.1716H10.77L10.7855 27.5208ZM0 30.4946H0.681825V19.1716H0V30.4946Z" fill="#fff"/>
<path d="M97.305 36.7838V37.3884H101.32V48.1066H102.001V37.3884H106V36.7838H97.305ZM95.6472 45.1328C95.6472 45.8481 95.6631 46.5801 95.6951 47.2954C95.346 46.7231 94.9813 46.1505 94.6 45.5938L88.3961 36.7838H87.603V48.1066H88.2695V39.3123C88.2695 38.74 88.2856 38.1515 88.2216 37.5788C88.5237 38.1195 88.8564 38.6284 89.2054 39.1374L95.5364 48.1066H96.3137V36.7838H95.6317L95.6472 45.1328ZM79.4673 42.5246H85.9728V41.9206H79.4673V37.3884H86.4009V36.7838H78.7856V48.1066H86.4651V47.5021H79.4673V42.5246ZM72.0894 45.4032C71.5813 46.5801 71.2956 47.391 71.2956 47.391C71.2956 47.391 70.9627 46.4845 70.4073 45.1803C70.4073 45.1803 67.7737 39.0579 66.806 36.7838H65.8532V48.1066H66.5201V39.6303C66.5201 38.8987 66.4724 38.1833 66.4404 37.4516C66.615 37.9288 66.7582 38.406 66.9642 38.867L70.9627 48.1066H71.629L75.6113 38.7559C75.8022 38.3265 75.9284 37.8493 76.1193 37.4201C76.0558 38.1676 76.0239 38.883 76.0239 39.6303V48.1066H76.6907V36.7838H75.7539C74.6914 39.2807 72.0894 45.4032 72.0894 45.4032ZM62.8203 42.1271C62.3287 42.4133 61.8684 42.5087 60.8054 42.5087H57.2991V37.3884H60.9009C61.6939 37.3884 62.3287 37.3884 63.0106 37.8334C63.6617 38.2628 64.0101 39.0103 64.0101 39.9484C64.0101 40.9343 63.6141 41.6662 62.8203 42.1271ZM63.423 37.3086C62.8523 36.9268 62.2018 36.7838 61.012 36.7838H56.6163V48.1066H57.2991V43.097H61.2021C62.2018 43.097 62.9159 42.8905 63.5187 42.4451C64.296 41.8729 64.6927 40.998 64.6927 39.9167C64.6927 38.7876 64.2483 37.8652 63.423 37.3086ZM49.6018 47.7726C46.8244 47.7726 44.9526 45.6098 44.9526 42.4133C44.9526 39.6303 46.6028 37.1175 49.6018 37.1175C52.3779 37.1175 54.2981 39.3123 54.2981 42.493C54.2981 45.6417 52.3943 47.7726 49.6018 47.7726ZM49.6018 36.5135C46.4282 36.5135 44.2543 38.9147 44.2543 42.4451C44.2543 46.0075 46.3962 48.377 49.6018 48.377C52.8225 48.377 54.9957 46.0231 54.9957 42.5246C54.9957 38.9625 52.7905 36.5135 49.6018 36.5135ZM38.5338 36.7838H37.8357V48.1066H44.9751V47.4864H38.5338V36.7838ZM29.6849 42.5246H36.1909V41.9206H29.6849V37.3884H36.6193V36.7838H29.0031V48.1066H36.6825V47.5021H29.6849V42.5246ZM24.0586 45.8801C23.8677 46.4208 23.6617 46.9456 23.5185 47.5021C23.3283 46.9456 23.1694 46.3889 22.9634 45.8481L19.5841 36.7838H18.8223L23.1061 48.1066H23.8997L28.1044 36.7838H27.406L24.0586 45.8801ZM11.2656 42.5246H17.7709V41.9206H11.2656V37.3884H18.199V36.7838H10.5838V48.1066H18.2632V47.5021H11.2656V42.5246ZM3.58544 47.5021H0.681825V37.3884H3.7756C6.90145 37.3884 8.2659 39.3918 8.2659 42.3181C8.2659 45.4188 7.04471 47.5021 3.58544 47.5021ZM3.80767 36.7838H0V48.1066H3.8233C7.45717 48.1066 8.94859 45.5779 8.94859 42.2703C8.94859 38.9147 7.20356 36.7838 3.80767 36.7838Z" fill="#fff"/>
</svg>
