<svg viewBox="0 0 204 46" xmlns="http://www.w3.org/2000/svg">
	<path d="M41.9936 6.26058H47.6175V7.95837H41.9936V8.64809H47.6175V28.2257H48.3073V8.64809H53.9312V7.95837H48.3073V6.26058H53.9312V5.57086H41.9671V6.26058H41.9936ZM178.002 14.4577L183.944 10.1867V28.2257H184.634V8.80726L178.002 13.5823V14.4577ZM184.634 5.54433L178.002 10.3989V11.2744L184.634 6.41975V5.54433ZM25.0158 12.9191H23.318V5.57086H22.6283V12.9191H16.2616V5.57086H15.5453V28.2257H16.2616V15.9963H22.6283V28.2257H23.318V15.3066H16.2351V13.6088H24.9893V28.2257H25.7055V5.57086H24.9893V12.9191H25.0158ZM70.6703 6.26058H76.2942V7.95837H70.6703V8.64809H76.2942V28.2257H76.9839V8.64809H82.6078V7.95837H76.9839V6.26058H82.6078V5.57086H70.6438V6.26058H70.6703ZM99.6122 6.26058H105.236V7.95837H99.6122V8.64809H105.236V28.2257H105.926V8.64809H111.55V7.95837H105.926V6.26058H111.55V5.57086H99.5857V6.26058H99.6122ZM169.46 25.5464H168.77V28.2257H169.46V25.5464ZM170.813 28.3583L168.505 31.0907L169.036 31.5417L171.503 28.5971V25.5464H170.787V28.3583H170.813ZM28.2257 16.8983C28.2257 23.1589 33.0803 28.2257 39.049 28.2257V27.5094C33.4782 27.5094 28.9419 22.7344 28.9419 16.8717C28.9419 11.0091 33.4782 6.23405 39.049 6.23405V5.57086C33.0803 5.57086 28.2257 10.6377 28.2257 16.8983ZM30.6132 16.8983C30.6132 21.8325 34.3801 25.8382 39.0225 25.8382V25.1219C34.778 25.1219 31.3029 21.4345 31.3029 16.8983C31.3029 12.362 34.778 8.67462 39.0225 8.67462V7.95837C34.4067 7.95837 30.6132 11.9641 30.6132 16.8983ZM114.441 16.8717C114.441 21.7794 118.208 25.7851 122.851 25.7851V25.0954C118.606 25.0954 115.131 21.408 115.131 16.8717C115.131 12.3355 118.606 8.64809 122.851 8.64809V7.95837C118.208 7.95837 114.441 11.9641 114.441 16.8717ZM112.027 16.8717C112.027 23.1058 116.882 28.1726 122.851 28.1726V27.4829C117.28 27.4829 112.744 22.7344 112.744 16.8717C112.744 11.0356 117.28 6.26058 122.851 6.26058V5.57086C116.882 5.57086 112.027 10.6377 112.027 16.8717ZM0 28.2257H0.689718V5.57086H0V28.2257ZM3.10377 15.2801V5.57086H2.38751V28.2257H3.07723V16.3942L8.4624 9.6031V28.2257H9.15212V8.70115L10.8499 6.55239V28.1991H11.5396V5.57086H10.7438L3.10377 15.2801ZM56.4513 28.2257H57.1411V5.57086H56.4513V28.2257ZM59.5286 15.2801V5.57086H58.8388V28.2257H59.5286V16.3942L64.9137 9.6031V28.2257H65.6035V8.70115L67.3012 6.55239V28.1991H67.991V5.57086H67.1951L59.5286 15.2801ZM162.271 1.98959H156.992V2.67932H162.271V1.98959ZM162.271 0H156.992V0.689727H162.271V0ZM153.835 28.2257H154.525V5.57086H153.835V28.2257ZM156.939 15.2801V5.57086H156.223V28.2257H156.939V16.3942L162.324 9.6031V28.2257H163.014V8.70115L164.712 6.55239V28.1991H165.428V5.57086H164.632L156.939 15.2801ZM139.086 28.2257H139.802V5.57086H139.086V28.2257ZM142.189 15.2801V5.57086H141.5V28.2257H142.189V16.3942L147.575 9.6031V28.2257H148.264V8.70115L149.962 6.55239V28.1991H150.652V5.57086H149.856L142.189 15.2801ZM91.2029 22.2038L90.3805 19.9224L95.5534 5.54433H94.8107L90.0091 18.8879L85.181 5.57086H84.4383L89.6112 19.949L86.6135 28.2522H87.3563L89.9826 20.9836L90.8049 23.265L89.0011 28.2522H89.7438L97.9144 5.59739H97.1716L91.2029 22.2038ZM136.592 5.57086H135.69L128.024 15.2801V5.57086H127.334V28.2257H128.05V17.8798L133.488 28.2257H134.284L128.05 16.3942L129.27 14.8556L136.327 28.2257H137.123L129.748 14.2455L136.592 5.57086ZM195.617 11.5927C194.131 11.5927 192.752 11.9641 191.558 12.6273L197.023 5.57086H196.121L189.117 14.6169C187.924 16.0494 187.181 17.9063 187.181 19.9224C187.181 24.5118 190.948 28.2522 195.59 28.2522C200.232 28.2522 203.999 24.5118 203.999 19.9224C204.052 15.3331 200.259 11.5927 195.617 11.5927ZM195.617 27.5359C191.372 27.5359 187.897 24.1139 187.897 19.9224C187.897 15.731 191.372 12.3089 195.617 12.3089C199.861 12.3089 203.336 15.731 203.336 19.9224C203.336 24.1139 199.888 27.5359 195.617 27.5359ZM195.617 13.9802C192.301 13.9802 189.595 16.633 189.595 19.9224C189.595 23.1854 192.301 25.8647 195.617 25.8647C198.933 25.8647 201.638 23.2119 201.638 19.9224C201.665 16.633 198.959 13.9802 195.617 13.9802ZM195.617 25.1484C192.672 25.1484 190.285 22.814 190.285 19.9224C190.285 17.0309 192.672 14.6964 195.617 14.6964C198.561 14.6964 200.949 17.0309 200.949 19.9224C200.949 22.7875 198.561 25.1484 195.617 25.1484Z"/>
	<path d="M55.0195 45.4419V39.5527H55.5501V44.9114H58.0172V45.4419H55.0195Z"/>
	<path d="M61.2539 45.4419V39.5527H64.3046V40.0568H61.7845V42.2055H63.9597V42.683H61.7845V44.9114H64.3046V45.4419H61.2539Z"/>
	<path d="M69.1587 45.0173C69.3179 45.0173 69.4771 44.9908 69.6362 44.9377C69.7689 44.8847 69.9015 44.8051 70.0076 44.699C70.1137 44.5929 70.1933 44.4602 70.2464 44.3276C70.2994 44.195 70.3259 44.0358 70.3259 43.8766V42.8686H69.3179V42.3911H70.8565V43.8501C70.8565 44.1154 70.8034 44.3276 70.7239 44.5398C70.6443 44.752 70.5116 44.9377 70.379 45.0704C70.2198 45.2295 70.0607 45.3357 69.8484 45.4152C69.6362 45.4948 69.424 45.5479 69.1587 45.5479C68.8934 45.5479 68.6547 45.4948 68.4425 45.4152C68.2302 45.3357 68.0446 45.203 67.9119 45.0704C67.7527 44.9112 67.6466 44.7255 67.5671 44.5133C67.4875 44.3011 67.4609 44.0623 67.4609 43.8236V41.2769C67.4609 41.0381 67.4875 40.7994 67.5671 40.5872C67.6466 40.3749 67.7527 40.1892 67.9119 40.0566C68.0446 39.8974 68.2302 39.7913 68.4425 39.7117C68.6547 39.6322 68.8934 39.5791 69.1587 39.5791C69.5566 39.5791 69.875 39.6852 70.1668 39.8709C70.4586 40.0566 70.6443 40.3484 70.7504 40.7198C70.6443 40.7463 70.5382 40.7994 70.4851 40.7994C70.4321 40.8259 70.326 40.8524 70.2198 40.879C70.1668 40.6402 70.0341 40.428 69.8484 40.2953C69.6628 40.1627 69.424 40.0831 69.1587 40.0831C68.973 40.0831 68.8139 40.1097 68.6812 40.1627C68.5486 40.2158 68.4159 40.3219 68.3098 40.428C68.2037 40.5341 68.1241 40.6667 68.0711 40.7994C68.018 40.932 67.9915 41.0912 67.9915 41.2504V43.8501C67.9915 44.0093 68.018 44.1684 68.0711 44.3011C68.1241 44.4337 68.2037 44.5663 68.3098 44.6725C68.4159 44.7786 68.5221 44.8581 68.6812 44.9377C68.8139 44.9908 68.973 45.0173 69.1587 45.0173Z"/>
	<path d="M74.3594 45.4419V39.5527H77.4101V40.0568H74.8899V42.2055H77.0652V42.683H74.8899V44.9114H77.4101V45.4419H74.3594Z"/>
	<path d="M83.7748 45.4422L82.077 42.2854C82.024 42.2058 81.9709 42.0997 81.8913 41.9406C81.8118 41.8079 81.7322 41.6488 81.6526 41.4896C81.573 41.3304 81.4934 41.1978 81.4138 41.0386C81.3343 40.906 81.2812 40.7733 81.2281 40.6938H81.2016V45.3892H80.6445V39.5H81.1751C81.2281 39.5796 81.2812 39.7122 81.3873 39.8714C81.4669 40.0306 81.573 40.2163 81.6791 40.4285C81.7852 40.6407 81.8913 40.8529 82.024 41.0651C82.1301 41.2774 82.2627 41.4896 82.3688 41.7018C82.475 41.914 82.5811 42.0732 82.6606 42.2589C82.7402 42.4181 82.8198 42.5507 82.8729 42.6303L83.7218 44.222H83.7483V39.5265H84.2789V45.4157H83.7748V45.4422Z"/>
	<path d="M89.5596 39.5527C90.3554 39.5527 90.886 39.8711 91.1513 40.4812C91.2309 40.6669 91.2574 40.9057 91.2839 41.1975C91.3104 41.4893 91.3105 41.8076 91.3105 42.179V43.1605C91.3105 43.4258 91.3104 43.6646 91.2839 43.9033C91.2574 44.1155 91.2309 44.3012 91.1778 44.4604C91.0982 44.6461 91.0186 44.8053 90.886 44.9379C90.7799 45.0705 90.6472 45.1501 90.4881 45.2297C90.3289 45.3093 90.1697 45.3623 90.0106 45.3889C89.8249 45.4154 89.6392 45.4419 89.4535 45.4419H87.9414V39.5527H89.5596ZM90.7534 41.5423C90.7534 41.4097 90.7534 41.277 90.7268 41.1444C90.7268 41.0118 90.7003 40.8791 90.6473 40.773C90.5677 40.5343 90.435 40.3486 90.2493 40.2425C90.0371 40.1098 89.7984 40.0568 89.48 40.0568H88.472V44.9644H89.48C90.0902 44.9644 90.4881 44.7257 90.6473 44.2482C90.6738 44.1686 90.7003 44.0625 90.7268 43.9298C90.7534 43.8237 90.7534 43.6911 90.7534 43.585V41.5423Z"/>
	<path d="M97.7549 45.4419L97.357 44.0359H95.3144L94.9165 45.4419H94.3594L96.0837 39.5527H96.6142L98.3386 45.4419H97.7549ZM96.7203 41.728L96.349 40.3486H96.3224C96.3224 40.4016 96.2959 40.4812 96.2428 40.6138C96.2163 40.7465 96.1633 40.8791 96.1367 41.0383C96.1102 41.1975 96.0572 41.3301 96.0306 41.4627C96.0041 41.5954 95.9776 41.675 95.951 41.728C95.9245 41.8076 95.898 41.9137 95.8449 42.0994C95.7919 42.2586 95.7388 42.4443 95.6858 42.6565C95.6327 42.8422 95.5796 43.0279 95.5266 43.2136C95.4735 43.3993 95.447 43.5054 95.4205 43.585H97.2244L96.7203 41.728Z"/>
	<path d="M109.108 41.277C109.108 41.5158 109.082 41.728 109.029 41.9402C108.975 42.1525 108.869 42.3382 108.737 42.4973C108.604 42.6565 108.445 42.7891 108.233 42.8687C108.02 42.9748 107.782 43.0014 107.463 43.0014H106.323V45.4419H105.766V39.5527H107.437C107.967 39.5527 108.392 39.6854 108.684 39.9772C108.975 40.269 109.108 40.6934 109.108 41.277ZM108.551 41.277C108.551 40.9057 108.445 40.6138 108.259 40.4016C108.074 40.1894 107.782 40.0833 107.384 40.0833H106.296V42.5239H107.384C107.596 42.5239 107.782 42.4973 107.914 42.4177C108.074 42.3647 108.18 42.2586 108.259 42.1525C108.339 42.0464 108.418 41.9137 108.445 41.7545C108.551 41.5954 108.551 41.4362 108.551 41.277Z"/>
	<path d="M114.122 39.5527C114.626 39.5527 115.024 39.6854 115.289 39.9772C115.555 40.269 115.687 40.6404 115.687 41.1709C115.687 41.5689 115.608 41.8872 115.422 42.1525C115.236 42.4177 114.971 42.6034 114.6 42.7361L115.767 45.4685H115.157L114.043 42.8157H112.849V45.4685H112.318V39.5793H114.122V39.5527ZM112.875 40.0302V42.3116H114.016C114.388 42.3116 114.653 42.2055 114.839 42.0198C115.024 41.8076 115.13 41.5158 115.13 41.1444C115.13 40.773 115.024 40.5077 114.839 40.322C114.653 40.1363 114.361 40.0568 113.99 40.0568H112.875V40.0302Z"/>
	<path d="M119.113 45.4419V39.5527H122.164V40.0568H119.644V42.2055H121.819V42.683H119.644V44.9114H122.164V45.4419H119.113Z"/>
	<path d="M129.323 45.4421V40.8793H129.297L128.634 42.4975L127.838 44.2749H127.44C127.413 44.1953 127.36 44.0892 127.281 43.9035C127.201 43.7443 127.122 43.5586 127.042 43.3729C126.962 43.1872 126.883 43.0015 126.803 42.8424C126.724 42.6832 126.671 42.5505 126.644 42.471L125.981 40.8793H125.954V45.4156H125.424V39.5264H125.981C126.007 39.5794 126.034 39.6855 126.087 39.7916C126.14 39.8978 126.193 40.0304 126.246 40.1896C126.299 40.3487 126.379 40.4814 126.432 40.6405C126.511 40.7997 126.565 40.9589 126.618 41.0915C126.671 41.2507 126.724 41.3568 126.777 41.4894C126.83 41.5955 126.856 41.7017 126.883 41.7547L127.573 43.3994H127.599L128.315 41.7282L129.27 39.5264H129.801V45.4156H129.323V45.4421Z"/>
	<path d="M133.516 45.4419V39.5527H134.073V45.4419H133.516Z"/>
	<path d="M141.075 39.5527V43.7972C141.075 44.0625 141.022 44.3012 140.943 44.5134C140.863 44.7257 140.73 44.9114 140.571 45.044C140.412 45.2032 140.226 45.3093 140.041 45.3889C139.828 45.4685 139.616 45.495 139.377 45.495C139.112 45.495 138.9 45.4419 138.688 45.3623C138.476 45.2828 138.316 45.1766 138.157 45.0175C137.998 44.8583 137.892 44.6991 137.812 44.4869C137.733 44.2747 137.68 44.0359 137.68 43.7972V39.5527H138.21V43.7972C138.21 43.9564 138.237 44.1155 138.29 44.2747C138.343 44.4073 138.422 44.54 138.529 44.6461C138.635 44.7522 138.767 44.8318 138.9 44.8848C139.033 44.9379 139.192 44.991 139.377 44.991C139.696 44.991 139.988 44.8848 140.2 44.6726C140.412 44.4604 140.518 44.1686 140.518 43.7972V39.5527H141.075Z"/>
	<path d="M148.478 45.4421V40.8793H148.451L147.788 42.4975L146.992 44.2749H146.594C146.568 44.1953 146.515 44.0892 146.435 43.9035C146.355 43.7443 146.276 43.5586 146.196 43.3729C146.117 43.1872 146.037 43.0015 145.958 42.8424C145.878 42.6832 145.825 42.5505 145.798 42.471L145.135 40.8793H145.109V45.4156H144.578V39.5264H145.135C145.162 39.5794 145.188 39.6855 145.241 39.7916C145.294 39.8978 145.347 40.0304 145.4 40.1896C145.454 40.3487 145.533 40.4814 145.586 40.6405C145.666 40.7997 145.719 40.9589 145.772 41.0915C145.825 41.2507 145.878 41.3568 145.931 41.4894C145.984 41.5955 146.011 41.7017 146.037 41.7547L146.727 43.3994H146.753L147.47 41.7282L148.425 39.5264H148.955V45.4156H148.478V45.4421Z"/>
</svg>
