<svg xmlns="http://www.w3.org/2000/svg"><symbol id="i-arr" viewBox="0 0 17 8"><path d="M16.354 4.354a.5.5 0 0 0 0-.708L13.172.464a.5.5 0 1 0-.708.708L15.293 4l-2.829 2.828a.5.5 0 1 0 .708.708l3.182-3.182zM0 4.5h16v-1H0v1z"/></symbol><symbol id="i-arrow" viewBox="0 0 8 14"><path d="M7 1L1 7l6 6"/></symbol><symbol id="i-close" viewBox="0 0 22 22"><path d="M1 1l10 10m10 10L11 11m0 0L21 1 1 21"/></symbol><symbol id="i-daw" viewBox="0 0 24 24"><path d="M20 6L9 17l-5-5"/></symbol><symbol id="i-elevator" viewBox="0 0 482 696"><g opacity=".3"><path d="M21.484 37.318l-6.86 6.844V-6h-.903v25.306l-5.236-5.223V-6h-.902v19.182L.903 6.518V-6H0v702h.903v-21.974l6.68 6.664V696h.902v-14.409l5.236 5.223V696h.903v-8.285l6.86 6.844V696h.903V-6h-.903v43.318zm0 1.26v7.565l-.09-.09-6.77 6.755v-7.475l6.86-6.754zm-7.763 15.58v4.864L.903 46.143V41.28L13.72 54.16zm0 212.897l-5.236-5.223v-30.53l5.236 5.223v30.53zm.903-29.629l6.86 6.844v30.53l-6.86-6.844v-30.53zM8.485 616.209l5.236 5.223v22.425l-5.236-5.224v-22.424zm-.902-298.181l-6.68-6.665v-8.285l6.68 6.664v8.286zm0 84.294l-6.68-6.665v-7.925l6.68 6.665v7.925zm-6.68-15.85v-23.686l6.68 6.665v23.685l-6.68-6.664zm0-24.946v-48.902l6.68 6.665v48.901l-6.68-6.664zm6.68 42.057v30.259l-6.68-6.664v-30.26l6.68 6.665zm.902 10.987l5.236 5.223v20.263l-5.236-5.223V414.57zm12.999 42.057l-6.86 6.844v-42.687l6.86 6.844v28.999zm0 83.843l-6.86-6.844v-60.159l6.86-6.844v73.847zm-6.86 47.641v-44.489l6.86 6.845v44.488l-6.86-6.844zm6.86 8.105v23.955l-6.86-6.844v-23.865l6.86 6.754zm-6.86-53.854v-7.475l6.86 6.844v7.475l-6.86-6.844zm-.903-13.059l-5.236-5.223v-49.712l5.236 5.223v49.712zm-6.138-6.124l-6.68-6.664v-49.712l6.68 6.664v49.712zm0 1.261l6.138 6.124v4.863L.903 522.549v-4.863l6.68 6.754zm.902 7.025l5.236 5.223v4.773l-5.236-5.223v-4.773zm5.236-90.148v30.89l-5.236-5.224v-30.89l5.236 5.224zm0 32.15v4.863L.903 465.452v-4.863l12.818 12.878zm-6.138 57.097v50.522l-6.68-6.664V523.9l6.68 6.664zm.902 6.934l5.236 5.224v44.488l-5.236-5.223v-44.489zm5.236 51.063v23.865l-5.236-5.223v-23.955l5.236 5.313zm-5.236 19.903l5.236 5.223v6.484l-5.236-5.223v-6.484zm6.139 6.124l6.86 6.844v30.17l-6.86-6.845v-30.169zm6.86-149.136l-6.86 6.755v-7.475l6.86-6.845v7.565zm-6.86-46.019v-8.826l6.86 6.844v8.826l-6.86-6.844zm-.903-.901l-5.236-5.223v-8.826l5.236 5.223v8.826zm-5.236-15.31V320.189l5.236 5.223v83.034l-5.236-5.224zm0-84.294v-48.091l5.236 5.224v48.091l-5.236-5.224zm5.236-44.128l-5.236-5.223v-6.485l5.236 5.224v6.484zm-6.138-6.124l-6.68-6.664v-38.275l6.68 6.665v38.274zm.902-38.635v-9.456l5.236 5.224v9.456l-5.236-5.224zm0-10.717V196.9l5.236 5.223v22.425l-5.236-5.224zm6.139-50.522v-44.488l6.86 6.844v44.488l-6.86-6.844zm6.86 8.105v23.866l-6.86-6.845v-23.865l6.86 6.844zm-6.86-53.854v-7.475l6.86 6.844v7.475l-6.86-6.844zm-7.041-17.922l6.138 6.124v4.863L.903 103.24v-4.863l6.68 6.754zm.902 7.025l5.236 5.223v4.773l-5.236-5.223v-4.773zm5.236-2.162l-5.236-5.223V55.059l5.236 5.224v49.711zm-6.138-6.124l-6.68-6.664V47.404l6.68 6.664v49.802zm0 7.385v50.523l-6.68-6.665v-50.522l6.68 6.664zm.902 6.935l5.236 5.223v44.488l-5.236-5.223V118.19zm5.236 50.972v23.866l-5.236-5.224v-23.865l5.236 5.223zm-5.236 19.993l5.236 5.223v6.485l-5.236-5.224v-6.484zm6.139 6.124l6.86 6.844v30.17l-6.86-6.845v-30.169zm6.86-74.117l-6.86-6.845V54.159l6.86-6.845v73.848zM7.583 163.038v31.611l-6.68-6.665v-31.61l6.68 6.664zm0 32.961v33.142l-6.68-6.665v-33.141l6.68 6.664zm0 73.938v38.545l-6.68-6.665v-38.544l6.68 6.664zm0 165.256v30.89l-6.68-6.665v-30.889l6.68 6.664zm0 147.154v31.61l-6.68-6.664v-31.61l6.68 6.664zm-6.68 60.699l6.68 6.664v20.173l-6.68-6.664v-20.173zm0-1.261v-33.141l6.68 6.664v33.142l-6.68-6.665zm7.582-1.891l5.236 5.223v9.456l-5.236-5.223v-9.456zm6.139 6.124l6.86 6.844v9.456l-6.86-6.844v-9.456zm0-236.672v-83.033l6.86 6.844v83.034l-6.86-6.845zm0-84.294v-55.836l6.86 6.845v55.836l-6.86-6.845zm0-88.887v-9.456l6.86 6.845v9.456l-6.86-6.845zM13.72 20.567v32.24l-5.236-5.223v-32.24l5.236 5.223zm-6.138-6.124v32.33L.903 40.11V7.689l6.68 6.754zM.903 672.765v-8.285l6.68 6.664v8.285l-6.68-6.664zm7.582 7.565V650.611l5.236 5.223v29.719l-5.236-5.223zm6.139 6.124v-29.719l6.86 6.844v29.719l-6.86-6.844zM455.564 37.318l-6.86 6.844V-6h-.903v25.306l-5.235-5.223V-6h-.903v19.182l-6.68-6.664V-6h-.902v215.148h-16.248V-6h-.902v215.148h-2.347V-6h-.903v75.108h-7.943V-6h-.903v75.108h-10.831V-6h-.903v215.148h-15.616V-6h-.902v75.108h-10.832V-6h-.903v75.108h-8.033V-6h-.903v215.148h-2.527V-6h-.903v215.148h-16.157V-6h-.903V6.428l-6.679 6.664V-6h-.903v20.083l-5.235 5.223V-6h-.903v50.162l-6.86-6.844V-6h-.903v702h.903v-1.441l6.86-6.844V696h.903v-9.186l5.235-5.223V696h.903v-15.31l6.679-6.664V696h.903V480.762h16.518V695.91h.903V480.762h2.347V695.91h.902v-75.108h7.944v75.108h.902v-75.108h10.832v75.108h.903V480.762h15.615V695.91h.903v-75.108h10.832v75.108h.902v-75.108h7.943v75.108h.903V480.762h2.527V695.91h.903V480.762h15.977V696h.902v-21.974l6.68 6.664V696h.903v-14.409l5.235 5.223V696h.903v-8.285l6.86 6.844V696h.902V-6h-.902v43.318zm0 1.26v7.565l-.091-.09-6.769 6.755v-7.475l6.86-6.754zm-61.47 414.716h10.832v26.567h-10.832v-26.567zm-28.253 0h10.832v26.567h-10.832v-26.567zm-30.419 209.925l-6.679 6.664V649.71l6.679-6.664v20.173zm0-21.434l-6.679 6.665v-33.142l6.679-6.664v33.141zm-20.58-594.47l6.86 6.844v60.158l-6.86 6.845V47.314zm20.58-6.035v4.863l-12.817 12.879v-4.863l12.817-12.879zm0 424.172l-12.817 12.878v-4.863l12.817-12.878v4.863zm-6.679 58.988l6.679-6.754v4.863l-12.817 12.878v-4.863l6.138-6.124zm-.903 114.193l-5.235 5.224v-22.425l5.235-5.223v22.424zm-5.235-18.462v-6.484l5.235-5.223v6.484l-5.235 5.223zm5.235-12.968l-5.235 5.223v-23.865l5.235-5.223v23.865zm-5.235-19.993v-44.488l5.235-5.224v44.489l-5.235 5.223zm0-526.928l5.235-5.223v49.712l-5.235 5.223V60.282zm0 50.973l6.138-6.124 6.679-6.664v4.863l-12.817 12.878v-4.953zm6.138 0l6.679-6.664v50.522l-6.679 6.665v-50.523zm6.679-14.139l-6.679 6.664V54.068l6.679-6.664v49.712zm-12.817 20.263l5.235-5.223v4.773l-5.235 5.223v-4.773zm5.235.811v44.488l-5.235 5.223v-44.488l5.235-5.223zm0 45.749v23.955l-5.235 5.224v-23.866l5.235-5.313zm0 25.216v6.484l-5.235 5.224v-6.485l5.235-5.223zm-5.235 12.968l5.235-5.223v22.424l-5.235 5.224v-22.425zm5.235 18.462v9.456l-5.235 5.224v-9.456l5.235-5.224zm0 10.717v30.53l-5.235 5.223v-30.53l5.235-5.223zm7.582 30.71l-6.679 6.664v-38.274l6.679-6.665v38.275zm-7.582 1.08v6.485l-5.235 5.223v-6.484l5.235-5.224zm-5.235 12.969l5.235-5.224v48.091l-5.235 5.224v-48.091zm6.138 127.522l6.679-6.665v30.26l-6.679 6.664v-30.259zm6.679-42.057l-6.679 6.664v-48.901l6.679-6.665v48.902zm-6.679 7.925l6.679-6.665v23.686l-6.679 6.664v-23.685zm0 24.946l6.679-6.665v7.925l-6.679 6.665v-7.925zm6.679-83.034l-6.679 6.665v-8.286l6.679-6.664v8.285zm-7.582 8.826V403.222l-5.235 5.224v-83.034l5.235-5.223zm0 84.294v8.826l-5.235 5.223v-8.826l5.235-5.223zm0 10.087v20.172l-5.235 5.224v-20.173l5.235-5.223zm-5.235 57.637v-30.89l5.235-5.224v30.89l-5.235 5.224zm-.903-8.736l-6.86-6.844v-29.089l6.86-6.844v42.777zm.903 73.307l5.235-5.223v4.773l-5.235 5.223v-4.773zm6.138-6.214l6.679-6.664v50.522l-6.679 6.664v-50.522zm-6.138-1.261v-49.712l5.235-5.223v49.712l-5.235 5.223zm12.817-69.975l-6.679 6.665v-30.89l6.679-6.665v30.89zm0-157.511l-6.679 6.665v-38.545l6.679-6.664v38.544zm0-79.341l-6.679 6.665v-33.142l6.679-6.664v33.141zm0-34.492l-6.679 6.665v-31.611l6.679-6.664v31.61zm-20.58-65.562l6.86-6.844v7.475l-6.86 6.844v-7.475zm0 8.736l6.86-6.844v44.488l-6.86 6.844v-44.488zm0 45.749l6.86-6.844v23.865l-6.86 6.845v-23.866zm0 25.216l6.86-6.844v30.169l-6.86 6.845v-30.17zm0 31.431l6.86-6.845v9.456l-6.86 6.845v-9.456zm0 10.716l6.86-6.844v30.53l-6.86 6.844v-30.53zm0 31.791l6.86-6.845v55.836l-6.86 6.845v-55.836zm0 57.096l6.86-6.844v83.033l-6.86 6.845v-83.034zm0 84.294l6.86-6.844v8.826l-6.86 6.844v-8.826zm6.86 47.281v7.475l-6.77-6.755-.09.09v-7.565l6.86 6.755zm-6.86 1.891l6.86 6.844v60.159l-6.86 6.844v-73.847zm0 75.108l6.86-6.844v7.475l-6.86 6.844v-7.475zm0 8.736l6.86-6.845v44.489l-6.86 6.844v-44.488zm0 45.749l6.86-6.844v23.865l-6.86 6.844v-23.865zm0 25.216l6.86-6.844v30.169l-6.86 6.845v-30.17zm0 31.43l6.86-6.844v9.456l-6.86 6.844v-9.456zm7.763-7.745l5.235-5.223v9.456l-5.235 5.223v-9.456zm12.817-37.824l-6.679 6.664v-31.61l6.679-6.664v31.61zm0-90.778l-6.679 6.664v-49.712l6.679-6.664v49.712zm.903-278.999h16.157v214.878h-16.157V237.516zm17.06 0h2.347v214.878h-2.347V237.516zm23.107-.9h-10.831v-26.567h10.831v26.567zm28.253 0h-10.832v-26.567h10.832v26.567zm-10.922 141.12h10.832v74.658h-10.832v-74.658zm-37.189-75.558h7.944v74.657h-7.944v-74.657zm8.936 0h10.832v74.657H365.57v-74.657zm10.742 150.216H365.48v-74.658h10.832v74.658zm.903-214.878h15.705v214.878h-15.615V237.516h-.09zm16.608 64.662h10.832v74.657h-10.832v-74.657zm11.644 0h7.943v74.657h-7.943v-74.657zm8.034-.901h-19.678v-63.671h19.678v63.671zm-20.4-64.661h-15.616v-26.567h15.616v26.567zm-16.789 64.661h-19.678v-63.671h19.678v63.671zm-19.678 76.459h7.944v74.658h-7.944v-74.658zm20.942 75.558h15.615v26.567h-15.615v-26.567zm27.891-75.558h7.943v74.658h-7.943v-74.658zm8.936-140.22h2.528v214.878h-2.528V237.516zm3.43 0h16.248v214.878h-16.248V237.516zm29.968-183.357v4.863l-12.818-12.879V41.28l12.818 12.879zm0 212.896l-5.235-5.223v-30.53l5.235 5.223v30.53zm.903-29.629l6.86 6.844v30.53l-6.86-6.844v-30.53zm-6.138 378.783l5.235 5.223v22.425l-5.235-5.224v-22.424zm-.903-347.533l-6.68-6.664v-38.275l6.68 6.665v38.274zm13.901 187.951l-6.86 6.844v-42.687l6.86 6.844v28.999zm0 83.843l-6.86-6.844v-60.159l6.86-6.844v73.847zm-12.998 42.778l5.235 5.223v23.865l-5.235-5.223v-23.865zm5.235-46.47v4.773l-5.235-5.223v-4.773l5.235 5.223zm0-63.311v4.863l-12.818-12.878v-4.863l12.818 12.878zm-5.235-6.574v-30.89l5.235 5.224v30.889l-5.235-5.223zm5.235 12.698v49.712l-5.235-5.223v-49.712l5.235 5.223zm-5.235 57.907l5.235 5.224v44.488l-5.235-5.223v-44.489zm6.138 51.964l6.86 6.844v23.865l-6.86-6.844v-23.865zm0-1.351v-44.489l6.86 6.845v44.488l-6.86-6.844zm0-45.749v-7.475l6.86 6.844v7.475l-6.86-6.844zm-.903-102.306l-5.235-5.223V414.66l5.235 5.223v20.173zm-6.138-6.214l-6.68-6.664v-30.26l6.68 6.665v30.259zm-6.68-38.185v-7.925l6.68 6.665v7.925l-6.68-6.665zm0-9.185v-23.686l6.68 6.665v23.685l-6.68-6.664zm0-24.946v-48.902l6.68 6.665v48.901l-6.68-6.664zm0-50.163v-8.285l6.68 6.664v8.286l-6.68-6.665zm0-9.546v-38.544l6.68 6.664v38.545l-6.68-6.665zm6.68 133.376v30.89l-6.68-6.665v-30.889l6.68 6.664zm0 38.274v49.712l-6.68-6.664v-49.712l6.68 6.664zm0 50.973l6.138 6.124v4.863l-12.818-12.878v-4.863l6.68 6.754zm0 6.124v50.522l-6.68-6.664V523.9l6.68 6.664zm0 51.783v31.61l-6.68-6.664v-31.61l6.68 6.664zm.903 26.117l5.235 5.223v6.484l-5.235-5.223v-6.484zm6.138 6.124l6.86 6.844v30.17l-6.86-6.845v-30.169zm6.86-149.136l-6.86 6.755v-7.475l6.86-6.845v7.565zm-6.86-46.019v-8.826l6.86 6.844v8.826l-6.86-6.844zm-.903-.901l-5.235-5.223v-8.826l5.235 5.223v8.826zm-5.235-15.31V320.189l5.235 5.223v83.034l-5.235-5.224zm0-84.294v-48.091l5.235 5.224v48.091l-5.235-5.224zm5.235-44.128l-5.235-5.223v-6.485l5.235 5.224v6.484zm-5.235-44.759v-9.456l5.235 5.224v9.456l-5.235-5.224zm0-10.717V196.9l5.235 5.223v22.425l-5.235-5.224zm6.138-50.522v-44.488l6.86 6.844v44.488l-6.86-6.844zm6.86 8.105v23.866l-6.86-6.845v-23.865l6.86 6.844zm-6.86-53.854v-7.475l6.86 6.844v7.475l-6.86-6.844zm-7.041-17.922l6.138 6.124v4.863l-12.818-12.878v-4.863l6.68 6.754zm.903 7.025l5.235 5.223v4.773l-5.235-5.223v-4.773zm5.235-2.162l-5.235-5.223V55.059l5.235 5.224v49.711zm-6.138-6.124l-6.68-6.664V47.404l6.68 6.664v49.802zm0 7.385v50.523l-6.68-6.665v-50.522l6.68 6.664zm.903 6.935l5.235 5.223v44.488l-5.235-5.223V118.19zm5.235 50.972v23.866l-5.235-5.224v-23.865l5.235 5.223zm-5.235 19.993l5.235 5.223v6.485l-5.235-5.224v-6.484zm6.138 6.124l6.86 6.844v30.17l-6.86-6.845v-30.169zm6.86-74.117l-6.86-6.845V54.159l6.86-6.845v73.848zm-13.901 41.876v31.611l-6.68-6.665v-31.61l6.68 6.664zm0 32.961v33.142l-6.68-6.665v-33.141l6.68 6.664zm-6.68 447.047l6.68 6.664v20.173l-6.68-6.664v-20.173zm0-1.261v-33.141l6.68 6.664v33.142l-6.68-6.665zm7.583-1.891l5.235 5.223v9.456l-5.235-5.223v-9.456zm6.138 6.124l6.86 6.844v9.456l-6.86-6.844v-9.456zm0-236.672v-83.033l6.86 6.844v83.034l-6.86-6.845zm0-84.294v-55.836l6.86 6.845v55.836l-6.86-6.845zm0-88.887v-9.456l6.86 6.845v9.456l-6.86-6.845zm-.903-215.598v32.24l-5.235-5.223v-32.24l5.235 5.223zm-6.138-6.124v32.33l-6.68-6.663V7.689l6.68 6.754zm-7.582 222.173h-28.343v-26.567h28.343v26.567zm-20.4-91.949h-7.943V70.009h7.943v74.658zm-8.936 0h-10.832V70.009h10.832v74.658zm-10.741.9h19.677v63.581h-19.677v-63.581zm-17.512-.9h-10.831V70.009h10.831v74.658zm-11.644 0h-8.033V70.009h7.943v74.658h.09zm-8.033.9h19.677v63.581h-19.677v-63.581zm8.033 91.049h-28.523v-26.567h28.523v26.567zM335.422 7.689v32.33l-6.679 6.665v-32.24l6.679-6.755zm-7.582 7.655v32.33l-5.235 5.224V20.567l5.235-5.223zm-6.138 30.079v7.475l-6.77-6.755-.09.09V38.67l6.86 6.754zm-6.86 647.875v-29.719l6.86-6.844v29.719l-6.86 6.844zm7.763-7.745v-29.719l5.235-5.223V680.33l-5.235 5.223zm6.138-6.124v-8.285l6.679-6.664v8.285l-6.679 6.664zm7.582-226.135h28.614v26.567h-28.614v-26.567zm20.67 91.949h7.944v74.658h-7.944v-74.658zm8.846 0h10.832v74.658h-10.832v-74.658zm10.832-.9h-19.678v-63.581h19.678v63.581zm17.421.9h10.832v74.658h-10.832v-74.658zm11.734 0h7.943v74.658h-7.943v-74.658zm7.943-.9h-19.677v-63.581h19.677v63.581zm-7.943-91.049h28.253v26.567h-28.253v-26.567zm29.155 219.471v-8.285l6.68 6.664v8.285l-6.68-6.664zm7.583 7.565V650.611l5.235 5.223v29.719l-5.235-5.223zm6.138 6.124v-29.719l6.86 6.844v29.719l-6.86-6.844zM480.115-6V6.428l-6.679 6.664V-6h-.903v20.083l-5.235 5.223V-6h-.903v50.162l-6.86-6.844V-6h-.902v702h.902v-1.441l6.86-6.844V696h.903v-9.186l5.235-5.223V696h.903v-15.31l6.679-6.664V696h.903V-6h-.903zm0 669.219l-6.679 6.664V649.71l6.679-6.664v20.173zm0-21.434l-6.679 6.665v-33.142l6.679-6.664v33.141zm-20.58-594.47l6.86 6.844v60.158l-6.86 6.845V47.314zm20.58-6.035v4.863l-12.817 12.879v-4.863l12.817-12.879zm-7.582 597.353l-5.235 5.224v-22.425l5.235-5.223v22.424zm0-269.543V403.222l-5.235 5.224v-83.034l5.235-5.223v48.901zm0 35.393v8.826l-5.235 5.223v-8.826l5.235-5.223zm-6.138 14.95l-6.86 6.844v-8.826l6.86-6.844v8.826zm.903 109.87v-49.712l5.235-5.223v49.712l-5.235 5.223zm5.235 6.935l-5.235 5.223v-4.773l5.235-5.223v4.773zm-12.998-78.351l6.86 6.845v7.475l-6.769-6.755-.091.09v-7.655zm6.86 5.584l-6.86-6.844v-29.089l6.86-6.844v42.777zm-6.86 3.152l6.86 6.844v60.159l-6.86 6.844v-73.847zm0 75.108l6.86-6.844v7.475l-6.86 6.844v-7.475zm0 8.736l6.86-6.845v44.489l-6.86 6.844v-44.488zm0 45.749l6.86-6.844v23.865l-6.86 6.844v-23.865zm0 25.216l6.86-6.844v30.169l-6.86 6.845v-30.17zm7.763-1.261v-6.484l5.235-5.223v6.484l-5.235 5.223zm5.235-12.968l-5.235 5.223v-23.865l5.235-5.223v23.865zm-5.235-19.993v-44.488l5.235-5.224v44.489l-5.235 5.223zm6.138-56.646l6.679-6.664v50.522l-6.679 6.664v-50.522zm6.679-7.925l-12.817 12.878v-4.863l6.138-6.124 6.679-6.664v4.773zm0-6.124l-6.679 6.664v-49.712l6.679-6.664v49.712zm0-51.063l-12.817 12.878v-4.863l12.817-12.878v4.863zm-12.817 6.755v-30.89l5.235-5.224v30.89l-5.235 5.224zm0-32.151v-20.173l5.235-5.223v20.173l-5.235 5.223zm6.138-36.473l6.679-6.665v30.26l-6.679 6.664v-30.259zm6.679-7.926l-6.679 6.665v-7.925l6.679-6.665v7.925zm0-9.185l-6.679 6.664v-23.685l6.679-6.665v23.686zm0-24.946l-6.679 6.664v-48.901l6.679-6.665v48.902zm0-50.163l-6.679 6.665v-8.286l6.679-6.664v8.285zm-7.582-1.981v9.546l-5.235 5.224v-48.091l5.235-5.224v38.545zm-5.235-34.582v-6.484l5.235-5.224v6.485l-5.235 5.223zm6.138-44.398l6.679-6.665v38.275l-6.679 6.664v-38.274zm-.903 31.43l-5.235 5.223v-30.53l5.235-5.223v30.53zm-6.138 6.124l-6.86 6.844v-30.53l6.86-6.844v30.53zm.903-32.691v-9.456l5.235-5.224v9.456l-5.235 5.224zm5.235-15.941l-5.235 5.224v-22.425l5.235-5.223v22.424zm-5.235-18.461v-6.485l5.235-5.223v6.484l-5.235 5.224zm5.235-13.059l-5.235 5.224v-23.866l5.235-5.223v23.865zm-5.235-19.903v-44.488l5.235-5.223v44.488l-5.235 5.223zm0-107.619l5.235-5.223v49.712l-5.235 5.223V60.282zm0 57.097l5.235-5.223v4.773l-5.235 5.223v-4.773zm6.138-6.124l6.679-6.664v50.522l-6.679 6.665v-50.523zm6.679-7.925l-12.817 12.878v-4.863l6.138-6.124 6.679-6.664v4.773zm0-6.214l-6.679 6.664V54.068l6.679-6.664v49.712zm-20.58 25.306l6.86-6.844v7.475l-6.86 6.844v-7.475zm0 8.736l6.86-6.844v44.488l-6.86 6.844v-44.488zm0 45.749l6.86-6.844v23.865l-6.86 6.845v-23.866zm0 25.216l6.86-6.844v30.169l-6.86 6.845v-30.17zm0 31.431l6.86-6.845v9.456l-6.86 6.845v-9.456zm0 42.507l6.86-6.845v55.836l-6.86 6.845v-55.836zm0 57.096l6.86-6.844v83.033l-6.86 6.845v-83.034zm0 319.705l6.86-6.844v9.456l-6.86 6.844v-9.456zm7.763-7.745l5.235-5.223v9.456l-5.235 5.223v-9.456zm12.817-37.824l-6.679 6.664v-31.61l6.679-6.664v31.61zm0-147.965l-6.679 6.665v-30.89l6.679-6.665v30.89zm0-157.511l-6.679 6.665v-38.545l6.679-6.664v38.544zm0-79.341l-6.679 6.665v-33.142l6.679-6.664v33.141zm0-34.492l-6.679 6.665v-31.611l6.679-6.664v31.61zm0-180.295v32.33l-6.679 6.665v-32.24l6.679-6.755zm-7.582 7.655v32.33l-5.235 5.224V20.567l5.235-5.223zm-6.138 30.079v7.475l-6.769-6.755-.091.09V38.67l6.86 6.754zm-6.86 647.875v-29.719l6.86-6.844v29.719l-6.86 6.844zm7.763-7.745v-29.719l5.235-5.223V680.33l-5.235 5.223zm6.138-6.124v-8.285l6.679-6.664v8.285l-6.679 6.664zM310.871 37.318l-6.86 6.844V-6h-.903v25.306l-5.235-5.223V-6h-.903v19.182l-6.68-6.664V-6h-.902v215.148H273.05V-6h-.903v215.148H269.8V-6h-.902v75.108h-7.943V-6h-.903v75.108H249.22V-6h-.902v215.148h-15.616V-6h-.903v75.108h-10.831V-6h-.903v75.108h-7.943V-6h-.903v215.148h-2.527V-6h-.903v215.148h-16.157V-6h-.903V6.428l-6.68 6.664V-6h-.902v20.083l-5.236 5.223V-6h-.902v50.162l-6.86-6.844V-6h-.903v702h.903v-1.441l6.86-6.844V696h.902v-9.186l5.236-5.223V696h.902v-15.31l6.68-6.664V696h.903V480.762h16.337V695.91h.903V480.762h2.347V695.91h.903v-75.108h7.943v75.108h.903v-75.108h10.831v75.108h.903V480.762h15.616V695.91h.902v-75.108h10.832v75.108h.903v-75.108h7.943v75.108h.902V480.762h2.528V695.91h.903V480.762h16.067V696h.902v-21.974l6.68 6.664V696h.902v-14.409l5.236 5.223V696h.902v-8.285l6.86 6.844V696h.903V-6h-.903v43.318h.091zm0 1.26v7.565l-.091-.09-6.769 6.755v-7.475l6.86-6.754zM249.31 453.295h10.832v26.567H249.31v-26.567zm-28.252 0h10.832v26.567h-10.832v-26.567zm-30.329 209.925l-6.68 6.664V649.71l6.68-6.664v20.173zm0-21.434l-6.68 6.665v-33.142l6.68-6.664v33.141zm-20.58-594.47l6.86 6.844v60.158l-6.86 6.845V47.314zm20.58-6.035v4.863l-12.818 12.879v-4.863l12.818-12.879zm0 424.172l-12.818 12.878v-4.863l12.818-12.878v4.863zm-6.68 58.988l6.68-6.754v4.863l-12.818 12.878v-4.863l6.138-6.124zm-.902 114.193l-5.236 5.224v-22.425l5.236-5.223v22.424zm-5.236-18.462v-6.484l5.236-5.223v6.484l-5.236 5.223zm5.236-12.968l-5.236 5.223v-23.865l5.236-5.223v23.865zm-5.236-19.993v-44.488l5.236-5.224v44.489l-5.236 5.223zm0-526.928l5.236-5.223v49.712l-5.236 5.223V60.282zm0 50.973l6.138-6.124 6.68-6.664v4.863l-12.818 12.878v-4.953zm6.138 0l6.68-6.664v50.522l-6.68 6.665v-50.523zm6.68-14.139l-6.68 6.664V54.068l6.68-6.664v49.712zm-12.818 20.263l5.236-5.223v4.773l-5.236 5.223v-4.773zm5.236.811v44.488l-5.236 5.223v-44.488l5.236-5.223zm0 45.749v23.865l-5.236 5.224v-23.866l5.236-5.223zm0 25.216v6.484l-5.236 5.224v-6.485l5.236-5.223zm-5.236 12.968l5.236-5.223v22.424l-5.236 5.224v-22.425zm5.236 18.462v9.456l-5.236 5.224v-9.456l5.236-5.224zm0 10.717v30.53l-5.236 5.223v-30.53l5.236-5.223zm7.582 30.71l-6.68 6.664v-38.274l6.68-6.665v38.275zm-7.582 1.08v6.485l-5.236 5.223v-6.484l5.236-5.224zm-5.236 12.969l5.236-5.224v48.091l-5.236 5.224v-48.091zm6.138 127.522l6.68-6.665v30.26l-6.68 6.664v-30.259zm6.68-42.057l-6.68 6.664v-48.901l6.68-6.665v48.902zm-6.68 7.925l6.68-6.665v23.686l-6.68 6.664v-23.685zm0 24.946l6.68-6.665v7.925l-6.68 6.665v-7.925zm6.68-83.034l-6.68 6.665v-8.286l6.68-6.664v8.285zm-7.582 8.826V403.222l-5.236 5.224v-83.034l5.236-5.223zm0 84.294v8.826l-5.236 5.223v-8.826l5.236-5.223zm0 10.087v20.172l-5.236 5.224v-20.173l5.236-5.223zm-5.236 57.637v-30.89l5.236-5.224v30.89l-5.236 5.224zm-.902-8.736l-6.86-6.844v-29.089l6.86-6.844v42.777zm.902 73.307l5.236-5.223v4.773l-5.236 5.223v-4.773zm6.138-6.214l6.68-6.664v50.522l-6.68 6.664v-50.522zm-6.138-1.261v-49.712l5.236-5.223v49.712l-5.236 5.223zm12.818-69.975l-6.68 6.665v-30.89l6.68-6.665v30.89zm0-157.511l-6.68 6.665v-38.545l6.68-6.664v38.544zm0-79.341l-6.68 6.665v-33.142l6.68-6.664v33.141zm0-34.492l-6.68 6.665v-31.611l6.68-6.664v31.61zm-20.58-65.562l6.86-6.844v7.475l-6.86 6.844v-7.475zm0 8.736l6.86-6.844v44.488l-6.86 6.844v-44.488zm0 45.749l6.86-6.844v23.865l-6.86 6.845v-23.866zm0 25.216l6.86-6.844v30.169l-6.86 6.845v-30.17zm0 31.431l6.86-6.845v9.456l-6.86 6.845v-9.456zm0 10.716l6.86-6.844v30.53l-6.86 6.844v-30.53zm0 31.791l6.86-6.845v55.836l-6.86 6.845v-55.836zm0 57.096l6.86-6.844v83.033l-6.86 6.845v-83.034zm0 84.294l6.86-6.844v8.826l-6.86 6.844v-8.826zm6.86 47.281v7.475l-6.77-6.755-.09.09v-7.565l6.86 6.755zm-6.86 1.891l6.86 6.844v60.159l-6.86 6.844v-73.847zm0 75.108l6.86-6.844v7.475l-6.86 6.844v-7.475zm0 8.736l6.86-6.845v44.489l-6.86 6.844v-44.488zm0 45.749l6.86-6.844v23.865l-6.86 6.844v-23.865zm0 25.216l6.86-6.844v30.169l-6.86 6.845v-30.17zm0 31.43l6.86-6.844v9.456l-6.86 6.844v-9.456zm7.762-7.745l5.236-5.223v9.456l-5.236 5.223v-9.456zm12.818-37.824l-6.68 6.664v-31.61l6.68-6.664v31.61zm0-90.778l-6.68 6.664v-49.712l6.68-6.664v49.712zm.903-278.999h16.067v214.878h-16.067V237.516zm16.969 0h2.347v214.878h-2.347V237.516zm23.108-.9h-10.832v-26.567h10.832v26.567zm28.253 0H249.13v-26.567h10.832v26.567zm-11.013 141.12h10.832v74.658h-10.832v-74.658zm-37.098-75.558h7.943v74.657h-7.943v-74.657zm8.846 0h10.831v74.657h-10.831v-74.657zm10.831 150.216h-10.831v-74.658h10.831v74.658zm.903-214.878h15.616v214.878h-15.616V237.516zm16.518 64.662h10.832v74.657h-10.832v-74.657zm11.735 0h7.943v74.657h-7.943v-74.657zm7.943-.901h-19.678v-63.671h19.678v63.671zm-20.4-64.661h-15.615v-26.567h15.615v26.567zm-16.699 64.661h-19.677v-63.671h19.677v63.671zm-19.677 76.459h7.943v74.658h-7.943v-74.658zm20.851 75.558h15.616v26.567h-15.616v-26.567zm27.982-75.558h7.943v74.658h-7.943v-74.658zm8.846-140.22h2.527v214.878h-2.527V237.516zm3.52 0h16.338v214.878H273.05V237.516zm30.058-183.357v4.863L290.29 46.143V41.28l12.818 12.879zm0 212.896l-5.235-5.223v-30.53l5.235 5.223v30.53zm.903-29.629l6.86 6.844v30.53l-6.86-6.844v-30.53zm-6.138 378.783l5.235 5.223v22.425l-5.235-5.224v-22.424zm-.903-347.533l-6.68-6.664v-38.275l6.68 6.665v38.274zm13.901 187.951l-6.86 6.844v-42.687l6.86 6.844v28.999zm0 83.843l-6.86-6.844v-60.159l6.86-6.844v73.847zm-12.998 42.778l5.235 5.223v23.865l-5.235-5.223v-23.865zm5.235-46.47v4.773l-5.235-5.223v-4.773l5.235 5.223zm0-63.311v4.863l-12.818-12.878v-4.863l12.818 12.878zm-5.235-6.574v-30.89l5.235 5.224v30.889l-5.235-5.223zm5.235 12.698v49.712l-5.235-5.223v-49.712l5.235 5.223zm-5.235 57.907l5.235 5.224v44.488l-5.235-5.223v-44.489zm6.138 51.964l6.86 6.844v23.865l-6.86-6.844v-23.865zm0-1.351v-44.489l6.86 6.845v44.488l-6.86-6.844zm0-45.749v-7.475l6.86 6.844v7.475l-6.86-6.844zm-.903-102.306l-5.235-5.223V414.66l5.235 5.223v20.173zm-6.138-6.214l-6.68-6.664v-30.26l6.68 6.665v30.259zm-6.68-38.185v-7.925l6.68 6.665v7.925l-6.68-6.665zm0-9.185v-23.686l6.68 6.665v23.685l-6.68-6.664zm0-24.946v-48.902l6.68 6.665v48.901l-6.68-6.664zm0-50.163v-8.285l6.68 6.664v8.286l-6.68-6.665zm0-9.546v-38.544l6.68 6.664v38.545l-6.68-6.665zm6.68 133.376v30.89l-6.68-6.665v-30.889l6.68 6.664zm0 38.274v49.712l-6.68-6.664v-49.712l6.68 6.664zm0 50.973l6.138 6.124v4.863l-12.818-12.878v-4.863l6.68 6.754zm0 6.124v50.522l-6.68-6.664V523.9l6.68 6.664zm0 51.783v31.61l-6.68-6.664v-31.61l6.68 6.664zm.903 26.117l5.235 5.223v6.484l-5.235-5.223v-6.484zm6.138 6.124l6.86 6.844v30.17l-6.86-6.845v-30.169zm6.86-149.136l-6.86 6.755v-7.475l6.86-6.845v7.565zm-6.86-46.019v-8.826l6.86 6.844v8.826l-6.86-6.844zm-.903-.901l-5.235-5.223v-8.826l5.235 5.223v8.826zm-5.235-15.31V320.189l5.235 5.223v83.034l-5.235-5.224zm0-84.294v-48.091l5.235 5.224v48.091l-5.235-5.224zm5.235-44.128l-5.235-5.223v-6.485l5.235 5.224v6.484zm-5.235-44.759v-9.456l5.235 5.224v9.456l-5.235-5.224zm0-10.717V196.9l5.235 5.223v22.425l-5.235-5.224zm6.138-50.522v-44.488l6.86 6.844v44.488l-6.86-6.844zm6.86 8.105v23.866l-6.86-6.845v-23.865l6.86 6.844zm-6.86-53.854v-7.475l6.86 6.844v7.475l-6.86-6.844zm-7.041-17.922l6.138 6.124v4.863L290.29 103.24v-4.863l6.68 6.754zm.903 7.025l5.235 5.223v4.773l-5.235-5.223v-4.773zm5.235-2.162l-5.235-5.223V55.059l5.235 5.224v49.711zm-6.138-6.124l-6.68-6.664V47.404l6.68 6.664v49.802zm0 7.385v50.523l-6.68-6.665v-50.522l6.68 6.664zm.903 6.935l5.235 5.223v44.488l-5.235-5.223V118.19zm5.235 50.972v23.866l-5.235-5.224v-23.865l5.235 5.223zm-5.235 19.993l5.235 5.223v6.485l-5.235-5.224v-6.484zm6.138 6.124l6.86 6.844v30.17l-6.86-6.845v-30.169zm6.86-74.117l-6.86-6.845V54.159l6.86-6.845v73.848zm-13.901 41.876v31.611l-6.68-6.665v-31.61l6.68 6.664zm0 32.961v33.142l-6.68-6.665v-33.141l6.68 6.664zm-6.68 447.047l6.68 6.664v20.173l-6.68-6.664v-20.173zm0-1.261v-33.141l6.68 6.664v33.142l-6.68-6.665zm7.583-1.891l5.235 5.223v9.456l-5.235-5.223v-9.456zm6.138 6.124l6.86 6.844v9.456l-6.86-6.844v-9.456zm0-236.672v-83.033l6.86 6.844v83.034l-6.86-6.845zm0-84.294v-55.836l6.86 6.845v55.836l-6.86-6.845zm0-88.887v-9.456l6.86 6.845v9.456l-6.86-6.845zm-.903-215.598v32.24l-5.235-5.223v-32.24l5.235 5.223zm-6.138-6.124v32.33l-6.68-6.663V7.689l6.68 6.754zm-7.582 222.173h-28.524v-26.567h28.524v26.567zm-20.58-91.949h-7.944V70.009h7.944v74.658zm-8.846 0H249.13V70.009h10.832v74.658zm-10.832.9h19.678v63.581H249.13v-63.581zm-17.421-.9h-10.832V70.009h10.832v74.658zm-11.734 0h-7.944V70.009h7.944v74.658zm-7.944.9h19.678v63.581h-19.678v-63.581zm7.944 91.049h-28.343v-26.567h28.343v26.567zM190.729 7.689v32.33l-6.68 6.665v-32.24l6.68-6.755zm-7.582 7.655v32.33l-5.236 5.224V20.567l5.236-5.223zm-6.138 30.079v7.475l-6.77-6.755-.09.09V38.67l6.86 6.754zm-6.86 647.875v-29.719l6.86-6.844v29.719l-6.86 6.844zm7.762-7.745v-29.719l5.236-5.223V680.33l-5.236 5.223zm6.138-6.124v-8.285l6.68-6.664v8.285l-6.68 6.664zm7.583-226.135h28.523v26.567h-28.523v-26.567zm20.49 91.949h7.943v74.658h-7.943v-74.658zm8.936 0h10.832v74.658h-10.832v-74.658zm10.741-.9h-19.677v-63.581h19.677v63.581zm17.511.9h10.832v74.658H249.31v-74.658zm11.645 0h7.943v74.658h-7.943v-74.658zm8.033-.9H249.31v-63.581h19.678v63.581zm-8.033-91.049h28.343v26.567h-28.343v-26.567zm29.335 219.471v-8.285l6.68 6.664v8.285l-6.68-6.664zm7.583 7.565V650.611l5.235 5.223v29.719l-5.235-5.223zm6.138 6.124v-29.719l6.86 6.844v29.719l-6.86-6.844zM166.177 37.318l-6.86 6.844V-6h-.902v25.306l-5.236-5.223V-6h-.902v19.182l-6.68-6.664V-6h-.902v215.148h-16.338V-6h-.903v215.148h-2.347V-6h-.902v75.108h-7.944V-6h-.902v75.108h-10.832V-6h-.903v215.148H88.009V-6h-.903v75.108H76.274V-6h-.903v75.108h-7.943V-6h-.902v215.148h-2.528V-6h-.902v215.148H46.938V-6h-.902V6.428l-6.68 6.754V-6h-.903v20.083l-5.235 5.223V-6h-.903v50.162l-6.86-6.844V-6h-.902v702h.902v-1.441l6.86-6.844V696h.903v-9.186l5.235-5.223V696h.903v-15.31l6.68-6.664V696h.902V480.762h16.338V695.91h.903V480.762h2.347V695.91h.902v-75.108h7.944v75.108h.902v-75.108h10.832v75.108h.903V480.762h15.615V695.91h.903v-75.108h10.832v75.108h.902v-75.108h7.944v75.108h.902V480.762h2.528V695.91h.902V480.762h16.158V696h.902v-21.974l6.68 6.664V696h.902v-14.409l5.236 5.223V696h.902v-8.285l6.86 6.844V696h.903V-6h-.903v43.318zm0 1.26v7.565l-.09-.09-6.77 6.755v-7.475l6.86-6.754zm-61.56 414.716h10.832v26.567h-10.832v-26.567zm-28.252 0h10.831v26.567H76.365v-26.567zm-30.33 209.925l-6.679 6.664V649.71l6.68-6.664v20.173zm0-21.434l-6.679 6.665v-33.142l6.68-6.664v33.141zm-20.58-594.47l6.86 6.844v60.158l-6.86 6.845V47.314zm20.58-6.035v4.863L33.219 59.022v-4.863L46.036 41.28zm0 424.172L33.219 478.33v-4.863l12.818-12.878v4.863zm-6.679 58.988l6.68-6.664v4.863l-12.818 12.878v-4.863l6.138-6.214zm-.903 114.193l-5.235 5.224v-22.425l5.235-5.223v22.424zm-5.235-18.462v-6.484l5.235-5.223v6.484l-5.235 5.223zm5.235-12.968l-5.235 5.223v-23.865l5.235-5.223v23.865zm-5.235-19.993v-44.488l5.235-5.224v44.489l-5.235 5.223zm0-526.928l5.235-5.223v49.712l-5.235 5.223V60.282zm0 50.973l6.138-6.124 6.68-6.664v4.863l-12.818 12.878v-4.953zm6.138 0l6.68-6.664v50.522l-6.68 6.665v-50.523zm6.68-14.049l-6.68 6.664V54.159l6.68-6.665v49.712zM33.218 117.38l5.235-5.223v4.773l-5.235 5.223v-4.773zm5.235.811v44.488l-5.235 5.223v-44.488l5.235-5.223zm0 45.749v23.955l-5.235 5.224v-23.866l5.235-5.313zm0 25.216v6.484l-5.235 5.224v-6.485l5.235-5.223zm-5.235 12.968l5.235-5.223v22.424l-5.235 5.224v-22.425zm5.235 18.462v9.456l-5.235 5.224v-9.456l5.235-5.224zm0 10.717v30.53l-5.235 5.223v-30.53l5.235-5.223zm7.583 30.71l-6.68 6.664v-38.274l6.68-6.665v38.275zm-7.583 1.08v6.485l-5.235 5.223v-6.484l5.235-5.224zm-5.235 12.969l5.235-5.224v48.091l-5.235 5.224v-48.091zm6.138 127.522l6.68-6.665v30.26l-6.68 6.664v-30.259zm6.68-42.057l-6.68 6.664v-48.901l6.68-6.665v48.902zm-6.68 7.925l6.68-6.665v23.686l-6.68 6.664v-23.685zm0 24.946l6.68-6.665v7.925l-6.68 6.665v-7.925zm6.68-83.034l-6.68 6.665v-8.286l6.68-6.664v8.285zm-7.583 8.826V403.222l-5.235 5.224v-83.034l5.235-5.223zm0 84.294v8.826l-5.235 5.223v-8.826l5.235-5.223zm0 10.087v20.172l-5.235 5.224v-20.173l5.235-5.223zm-5.235 57.637v-30.89l5.235-5.224v30.89l-5.235 5.224zm-.903-8.736l-6.86-6.844v-29.089l6.86-6.844v42.777zm.903 73.307l5.235-5.223v4.773l-5.235 5.223v-4.773zm6.138-6.214l6.68-6.664v50.522l-6.68 6.664v-50.522zm-6.138-1.261v-49.712l5.235-5.223v49.712l-5.235 5.223zm12.818-69.975l-6.68 6.665v-30.89l6.68-6.665v30.89zm0-157.511l-6.68 6.665v-38.545l6.68-6.664v38.544zm0-79.341l-6.68 6.665v-33.142l6.68-6.664v33.141zm0-34.492l-6.68 6.665v-31.611l6.68-6.664v31.61zm-20.58-65.562l6.86-6.844v7.475l-6.86 6.844v-7.475zm0 8.736l6.86-6.844v44.488l-6.86 6.844v-44.488zm0 45.749l6.86-6.844v23.865l-6.86 6.845v-23.866zm0 25.216l6.86-6.844v30.169l-6.86 6.845v-30.17zm0 31.431l6.86-6.845v9.456l-6.86 6.845v-9.456zm0 10.716l6.86-6.844v30.53l-6.86 6.844v-30.53zm0 31.791l6.86-6.845v55.836l-6.86 6.845v-55.836zm0 57.096l6.86-6.844v83.033l-6.86 6.845v-83.034zm0 84.294l6.86-6.844v8.826l-6.86 6.844v-8.826zm6.86 47.281v7.475l-6.77-6.755-.09.09v-7.565l6.86 6.755zm-6.86 1.891l6.86 6.844v60.159l-6.86 6.844v-73.847zm0 75.108l6.86-6.844v7.475l-6.86 6.844v-7.475zm0 8.736l6.86-6.845v44.489l-6.86 6.844v-44.488zm0 45.749l6.86-6.844v23.865l-6.86 6.844v-23.865zm0 25.216l6.86-6.844v30.169l-6.86 6.845v-30.17zm0 31.43l6.86-6.844v9.456l-6.86 6.844v-9.456zm7.762-7.745l5.235-5.223v9.456l-5.235 5.223v-9.456zm12.818-37.824l-6.68 6.664v-31.61l6.68-6.664v31.61zm0-90.778l-6.68 6.664v-49.712l6.68-6.664v49.712zm.902-278.999h16.067v214.878H46.938V237.516zm16.97 0h2.347v214.878h-2.347V237.516zm23.108-.9H76.184v-26.567h10.832v26.567zm28.252 0h-10.831v-26.567h10.831v26.567zm-11.012 141.12h10.832v74.658h-10.832v-74.658zm-37.099-75.558h7.944v74.657h-7.944v-74.657zm8.846 0h10.832v74.657H76.003v-74.657zm10.832 150.216H76.003v-74.658h10.832v74.658zm.903-214.878h15.615v214.878H87.738V237.516zm16.518 64.662h10.832v74.657h-10.832v-74.657zm11.734 0h7.944v74.657h-7.944v-74.657zm7.944-.901h-19.678v-63.671h19.678v63.671zm-20.4-64.661H87.918v-26.567h15.616v26.567zm-16.699 64.661H67.158v-63.671h19.677v63.671zm-19.677 76.459H75.1v74.658h-7.944v-74.658zm20.85 75.558h15.616v26.567H88.009v-26.567zm27.982-75.558h7.944v74.658h-7.944v-74.658zm8.846-140.22h2.528v214.878h-2.528V237.516zm3.521 0h16.338v214.878h-16.338V237.516zm30.058-183.357v4.863l-12.818-12.879V41.28l12.818 12.879zm0 212.896l-5.236-5.223v-30.53l5.236 5.223v30.53zm.902-29.629l6.86 6.844v30.53l-6.86-6.844v-30.53zm-6.138 378.783l5.236 5.223v22.425l-5.236-5.224v-22.424zm-.902-347.533l-6.68-6.664v-38.275l6.68 6.665v38.274zm13.9 187.951l-6.86 6.844v-42.687l6.86 6.844v28.999zm0 83.843l-6.86-6.844v-60.159l6.86-6.844v73.847zm-12.998 42.778l5.236 5.223v23.865l-5.236-5.223v-23.865zm5.236-46.47v4.773l-5.236-5.223v-4.773l5.236 5.223zm0-63.311v4.863l-12.818-12.878v-4.863l12.818 12.878zm-5.236-6.574v-30.89l5.236 5.224v30.889l-5.236-5.223zm5.236 12.698v49.712l-5.236-5.223v-49.712l5.236 5.223zm-5.236 57.907l5.236 5.224v44.488l-5.236-5.223v-44.489zm6.138 51.964l6.86 6.844v23.865l-6.86-6.844v-23.865zm0-1.351v-44.489l6.86 6.845v44.488l-6.86-6.844zm0-45.749v-7.475l6.86 6.844v7.475l-6.86-6.844zm-.902-102.306l-5.236-5.223V414.66l5.236 5.223v20.173zm-6.138-6.214l-6.68-6.664v-30.26l6.68 6.665v30.259zm-6.68-38.185v-7.925l6.68 6.665v7.925l-6.68-6.665zm0-9.185v-23.686l6.68 6.665v23.685l-6.68-6.664zm0-24.946v-48.902l6.68 6.665v48.901l-6.68-6.664zm0-50.163v-8.285l6.68 6.664v8.286l-6.68-6.665zm0-9.546v-38.544l6.68 6.664v38.545l-6.68-6.665zm6.68 133.376v30.89l-6.68-6.665v-30.889l6.68 6.664zm0 38.274v49.712l-6.68-6.664v-49.712l6.68 6.664zm0 50.973l6.138 6.124v4.863l-12.818-12.788v-4.863l6.68 6.664zm0 6.124v50.522l-6.68-6.664V523.9l6.68 6.664zm0 51.783v31.61l-6.68-6.664v-31.61l6.68 6.664zm.902 26.117l5.236 5.223v6.484l-5.236-5.223v-6.484zm6.138 6.124l6.86 6.844v30.17l-6.86-6.845v-30.169zm6.86-149.136l-6.86 6.755v-7.475l6.86-6.845v7.565zm-6.86-46.019v-8.826l6.86 6.844v8.826l-6.86-6.844zm-.902-.901l-5.236-5.223v-8.826l5.236 5.223v8.826zm-5.236-15.31V320.189l5.236 5.223v83.034l-5.236-5.224zm0-84.294v-48.091l5.236 5.224v48.091l-5.236-5.224zm5.236-44.128l-5.236-5.223v-6.485l5.236 5.224v6.484zm-5.236-44.759v-9.456l5.236 5.224v9.456l-5.236-5.224zm0-10.717V196.9l5.236 5.223v22.425l-5.236-5.224zm6.138-50.522v-44.488l6.86 6.844v44.488l-6.86-6.844zm6.86 8.105v23.866l-6.86-6.845v-23.865l6.86 6.844zm-6.86-53.854v-7.475l6.86 6.844v7.475l-6.86-6.844zm-7.04-17.922l6.138 6.124v4.863l-12.818-12.788v-4.863l6.68 6.664zm.902 7.025l5.236 5.223v4.773l-5.236-5.223v-4.773zm5.236-2.162l-5.236-5.223V55.059l5.236 5.224v49.711zm-6.138-6.124l-6.68-6.664V47.404l6.68 6.664v49.802zm0 7.385v50.523l-6.68-6.665v-50.522l6.68 6.664zm.902 6.935l5.236 5.223v44.488l-5.236-5.223V118.19zm5.236 50.972v23.866l-5.236-5.224v-23.865l5.236 5.223zm-5.236 19.993l5.236 5.223v6.485l-5.236-5.224v-6.484zm6.138 6.124l6.86 6.844v30.17l-6.86-6.845v-30.169zm6.86-74.117l-6.86-6.845V54.159l6.86-6.845v73.848zm-13.9 41.876v31.611l-6.68-6.665v-31.61l6.68 6.664zm0 32.961v33.142l-6.68-6.665v-33.141l6.68 6.664zm-6.68 447.047l6.68 6.664v20.173l-6.68-6.664v-20.173zm0-1.261v-33.141l6.68 6.664v33.142l-6.68-6.665zm7.582-1.891l5.236 5.223v9.456l-5.236-5.223v-9.456zm6.138 6.124l6.86 6.844v9.456l-6.86-6.844v-9.456zm0-236.672v-83.033l6.86 6.844v83.034l-6.86-6.845zm0-84.294v-55.836l6.86 6.845v55.836l-6.86-6.845zm0-88.887v-9.456l6.86 6.845v9.456l-6.86-6.845zm-.902-215.598v32.24l-5.236-5.223v-32.24l5.236 5.223zm-6.138-6.124v32.33l-6.68-6.663V7.689l6.68 6.754zm-7.582 222.173h-28.524v-26.567h28.524v26.567zm-20.581-91.949h-7.943V70.009h7.943v74.658zm-8.846 0h-10.831V70.009h10.831v74.658zm-10.831.9h19.677v63.581h-19.677v-63.581zm-17.421-.9H76.184V70.009h10.832v74.658zm-11.735 0h-7.943V70.009h7.943v74.658zm-7.943.9h19.678v63.581H67.338v-63.581zm7.943 91.049H46.938v-26.567h28.343v26.567zM46.036 7.689v32.33l-6.68 6.665v-32.24l6.68-6.755zm-7.583 7.655v32.33l-5.235 5.224V20.567l5.235-5.223zm-6.138 30.079v7.475l-6.77-6.755-.09.09V38.67l6.86 6.754zm-6.86 647.875v-29.719l6.86-6.844v29.719l-6.86 6.844zm7.763-7.745v-29.719l5.235-5.223V680.33l-5.235 5.223zm6.138-6.124v-8.285l6.68-6.664v8.285l-6.68 6.664zm7.582-226.135h28.524v26.567H46.938v-26.567zm20.49 91.949h7.944v74.658h-7.944v-74.658zm8.937 0h10.831v74.658H76.365v-74.658zm10.74-.9H67.429v-63.581h19.678v63.581zm17.512.9h10.832v74.658h-10.832v-74.658zm11.644 0h7.944v74.658h-7.944v-74.658zm8.034-.9h-19.678v-63.581h19.678v63.581zm-8.034-91.049h28.434v26.567h-28.343v-26.567h-.091zm29.336 219.471v-8.285l6.68 6.664v8.285l-6.68-6.664zm7.582 7.565V650.611l5.236 5.223v29.719l-5.236-5.223zm6.138 6.124v-29.719l6.86 6.844v29.719l-6.86-6.844z"/></g></symbol><symbol id="i-legenda-logo" viewBox="0 0 106 49"><path d="M74.728 8.018l1.636-4.617h.035l1.582 4.617h-3.253zM77.822.301h-2.83l-4.747 12.58h2.777l.985-2.8h4.694l.95 2.8h2.866L77.822.302zM67.205 8.547c-.176.482-.412.872-.704 1.173a2.568 2.568 0 0 1-1.002.642c-.376.13-.763.194-1.16.194h-2.462v-7.93h1.968c.68 0 1.252.097 1.715.291.463.194.835.473 1.117.837.28.365.483.802.606 1.313.123.511.185 1.083.185 1.718 0 .693-.088 1.28-.263 1.762zm1.397-6.696A4.942 4.942 0 0 0 66.79.688 6.474 6.474 0 0 0 64.531.3h-5.415v12.58h5.415c.961 0 1.797-.16 2.505-.484a4.98 4.98 0 0 0 1.776-1.33 5.578 5.578 0 0 0 1.064-2.009 8.725 8.725 0 0 0 .351-2.538c0-1.045-.143-1.955-.43-2.73-.288-.775-.686-1.421-1.195-1.939zm-14.403 6.89h-.035L48.924.3h-2.742v12.58h2.584V4.46h.036l5.222 8.423h2.76V.3h-2.585v8.44zM37.643 7.472h6.083v-2.15h-6.083V2.626h6.627V.301h-9.388v12.58h9.529v-2.325h-6.768V7.473zm-10.175.67h2.778c-.082.881-.372 1.554-.87 2.017-.498.465-1.205.696-2.12.696-.62 0-1.148-.12-1.58-.36a3.017 3.017 0 0 1-1.055-.96 4.172 4.172 0 0 1-.59-1.35 6.424 6.424 0 0 1-.185-1.54 6.9 6.9 0 0 1 .185-1.603c.124-.518.32-.979.59-1.384.269-.406.62-.729 1.055-.97.433-.24.96-.362 1.58-.362.669 0 1.238.177 1.707.53.468.351.785.88.95 1.585h2.636c-.07-.716-.264-1.35-.58-1.903a4.694 4.694 0 0 0-1.204-1.392 5.302 5.302 0 0 0-1.636-.854A6.087 6.087 0 0 0 27.257 0c-.961 0-1.825.17-2.593.512-.768.34-1.415.81-1.943 1.409-.527.598-.931 1.3-1.213 2.106a7.885 7.885 0 0 0-.422 2.617c0 .915.142 1.77.422 2.563a6.137 6.137 0 0 0 1.213 2.07 5.564 5.564 0 0 0 1.943 1.383c.768.336 1.632.503 2.593.503.61 0 1.214-.126 1.81-.378.6-.253 1.144-.697 1.636-1.331l.28 1.427h1.76V6.08h-5.275v2.062zm-14.376-.67h6.083v-2.15h-6.083V2.626h6.628V.301h-9.388v12.58h9.529v-2.325h-6.769V7.473zM2.76.301H0v12.58h8.877v-2.325H2.759V.301zM80.06 19.172v.604h4.014v10.719h.682V19.776h3.999v-.604H80.06zm-1.658 8.349c0 .715.016 1.447.048 2.162a39.416 39.416 0 0 0-1.094-1.701l-6.204-8.81h-.793v11.323h.665V21.7c0-.572.016-1.16-.047-1.733.302.54.635 1.05.984 1.558l6.33 8.97h.778V19.172h-.683l.016 8.349zm-16.18-2.608h6.505v-.605h-6.505v-4.532h6.934v-.604H61.54v11.323h7.68v-.605h-6.998v-4.977zm-7.423.62h4.173v.19c0 2.672-1.714 4.438-4.284 4.438-2.808 0-4.665-2.084-4.665-5.2 0-3.277 1.84-5.423 4.65-5.423 1.982 0 3.649 1.192 4.061 3.148h.65c-.348-2.274-2.348-3.753-4.712-3.753-3.173 0-5.33 2.433-5.33 6.027 0 3.435 2.157 5.789 5.33 5.789 1.904 0 3.729-1.034 4.332-3.005l-.016.73.095 2.02h.492V24.96h-4.776v.573zm-7.764 4.962h.683V19.172h-.683v11.323zm-7.4-11.323h-.697v11.323h7.14v-.62h-6.442V19.171zm-8.075 0h-.698v11.323h7.14v-.62H31.56V19.171zm-8.849 5.74h6.506v-.604h-6.506v-4.532h6.934v-.604H22.03v11.323h7.68v-.605H22.71v-4.977zm-10.268-5.136h4.014v10.719h.682V19.776h4v-.604h-8.696v.604zm-1.657 7.745c0 .715.016 1.447.047 2.162a39.25 39.25 0 0 0-1.094-1.701l-6.204-8.81h-.793v11.323h.665V21.7c0-.572.017-1.16-.047-1.733.302.54.635 1.05.984 1.558l6.33 8.97h.779V19.172h-.683l.016 8.349zM0 30.495h.682V19.172H0v11.323zM97.305 36.784v.604h4.015v10.719h.681V37.388H106v-.604h-8.695zm-1.658 8.349c0 .715.016 1.447.048 2.162a38.433 38.433 0 0 0-1.095-1.701l-6.204-8.81h-.793v11.323h.666v-8.795c0-.572.017-1.16-.047-1.733.302.54.634 1.05.983 1.558l6.331 8.97h.778V36.784h-.682l.015 8.349zm-16.18-2.608h6.506v-.604h-6.506v-4.533h6.934v-.604h-7.615v11.323h7.68v-.605h-6.999v-4.977zm-7.378 2.878a34.45 34.45 0 0 0-.793 1.988s-.333-.907-.889-2.21c0 0-2.633-6.123-3.601-8.397h-.953v11.323h.667V39.63c0-.731-.048-1.447-.08-2.178.175.477.318.954.524 1.415l3.999 9.24h.666l3.982-9.351c.191-.43.317-.907.508-1.336a25.73 25.73 0 0 0-.095 2.21v8.477h.667V36.784h-.937c-1.063 2.497-3.665 8.62-3.665 8.62zm-9.269-3.276c-.491.286-.952.382-2.015.382H57.3v-5.12h3.602c.793 0 1.428 0 2.11.444.65.43 1 1.177 1 2.115 0 .986-.397 1.718-1.19 2.18zm.603-4.818c-.57-.382-1.221-.525-2.411-.525h-4.396v11.323h.683v-5.01h3.903c1 0 1.714-.206 2.317-.652.777-.572 1.174-1.447 1.174-2.528 0-1.13-.445-2.052-1.27-2.608zM49.602 47.773c-2.778 0-4.65-2.163-4.65-5.36 0-2.783 1.65-5.295 4.65-5.295 2.776 0 4.696 2.194 4.696 5.375 0 3.149-1.904 5.28-4.696 5.28zm0-11.26c-3.174 0-5.348 2.402-5.348 5.932 0 3.563 2.142 5.932 5.348 5.932 3.22 0 5.394-2.354 5.394-5.852 0-3.563-2.206-6.011-5.394-6.011zm-11.068.27h-.698v11.324h7.14v-.62h-6.442V36.783zm-8.85 5.742h6.507v-.604h-6.506v-4.533h6.934v-.604h-7.616v11.323h7.68v-.605h-6.998v-4.977zM24.06 45.88c-.191.54-.397 1.066-.54 1.622-.19-.556-.35-1.113-.556-1.654l-3.379-9.064h-.762l4.284 11.323h.794l4.204-11.323h-.698l-3.347 9.096zm-12.793-3.355h6.505v-.604h-6.505v-4.533h6.933v-.604h-7.615v11.323h7.68v-.605h-6.998v-4.977zm-7.68 4.977H.681V37.388h3.094c3.125 0 4.49 2.004 4.49 4.93 0 3.1-1.221 5.184-4.68 5.184zm.222-10.718H0v11.323h3.823c3.634 0 5.126-2.53 5.126-5.837 0-3.355-1.745-5.486-5.141-5.486z" fill="#fff"/></symbol><symbol id="i-logo" viewBox="0 0 204 46"><path d="M41.994 6.26h5.623v1.698h-5.623v.69h5.623v19.578h.69V8.648h5.624v-.69h-5.624V6.261h5.624v-.69H41.967v.69h.027zm136.008 8.198l5.942-4.271v18.039h.69V8.807l-6.632 4.775v.876zm6.632-8.914l-6.632 4.855v.875l6.632-4.854v-.876zM25.016 12.92h-1.698V5.571h-.69v7.348h-6.366V5.571h-.717v22.655h.717v-12.23h6.366v12.23h.69v-12.92h-7.083V13.61h8.754v14.617h.716V5.57h-.716v7.348h.027zM70.67 6.261h5.624v1.697H70.67v.69h5.624v19.578h.69V8.648h5.624v-.69h-5.624V6.261h5.624v-.69H70.644v.69h.026zm28.942 0h5.624v1.697h-5.624v.69h5.624v19.578h.69V8.648h5.624v-.69h-5.624V6.261h5.624v-.69H99.586v.69h.026zm69.848 19.285h-.69v2.68h.69v-2.68zm1.353 2.812l-2.308 2.733.531.45 2.467-2.944v-3.05h-.716v2.811h.026zM28.226 16.898c0 6.26 4.854 11.328 10.823 11.328v-.717c-5.57 0-10.107-4.775-10.107-10.637 0-5.863 4.536-10.638 10.107-10.638v-.663c-5.969 0-10.823 5.067-10.823 11.327zm2.387 0c0 4.934 3.767 8.94 8.41 8.94v-.716c-4.245 0-7.72-3.688-7.72-8.224s3.475-8.223 7.72-8.223v-.717c-4.616 0-8.41 4.006-8.41 8.94zm83.828-.026c0 4.907 3.767 8.913 8.41 8.913v-.69c-4.245 0-7.72-3.687-7.72-8.223 0-4.537 3.475-8.224 7.72-8.224v-.69c-4.643 0-8.41 4.006-8.41 8.914zm-2.414 0c0 6.234 4.855 11.3 10.824 11.3v-.69c-5.571 0-10.107-4.748-10.107-10.61 0-5.836 4.536-10.611 10.107-10.611v-.69c-5.969 0-10.824 5.067-10.824 11.3zM0 28.226h.69V5.57H0v22.655zM3.104 15.28V5.57h-.716v22.656h.69V16.394l5.384-6.79v18.622h.69V8.7l1.698-2.149V28.2h.69V5.571h-.796l-7.64 9.71zM56.45 28.226h.69V5.57h-.69v22.655zM59.53 15.28V5.57h-.69v22.656h.69V16.394l5.385-6.79v18.622h.69V8.7L67.3 6.552V28.2h.69V5.571h-.796l-7.666 9.71zM162.27 1.99h-5.279v.69h5.279v-.69zm0-1.99h-5.279v.69h5.279V0zm-8.436 28.226h.69V5.57h-.69v22.655zm3.104-12.946V5.57h-.716v22.656h.716V16.394l5.385-6.79v18.622h.69V8.7l1.698-2.149V28.2h.716V5.571h-.796l-7.693 9.71zm-17.853 12.946h.716V5.57h-.716v22.655zm3.103-12.946V5.57h-.689v22.656h.689V16.394l5.386-6.79v18.622h.689V8.7l1.698-2.149V28.2h.69V5.571h-.796l-7.667 9.71zm-50.986 6.924l-.823-2.282 5.173-14.378h-.742l-4.802 13.344L85.181 5.57h-.743l5.173 14.378-2.998 8.303h.743l2.627-7.268.822 2.281L89 28.252h.743l8.17-22.655h-.742l-5.97 16.607zM136.592 5.57h-.902l-7.666 9.71V5.57h-.69v22.655h.716V17.88l5.438 10.346h.796l-6.234-11.832 1.22-1.538 7.057 13.37h.796l-7.375-13.98 6.844-8.675zm59.025 6.022a8.313 8.313 0 0 0-4.059 1.034l5.465-7.056h-.902l-7.004 9.046a8.295 8.295 0 0 0-1.936 5.305c0 4.59 3.767 8.33 8.409 8.33 4.642 0 8.409-3.74 8.409-8.33.053-4.589-3.74-8.33-8.382-8.33zm0 15.943c-4.245 0-7.72-3.422-7.72-7.614 0-4.191 3.475-7.613 7.72-7.613 4.244 0 7.719 3.422 7.719 7.613 0 4.192-3.448 7.614-7.719 7.614zm0-13.556c-3.316 0-6.022 2.653-6.022 5.942 0 3.263 2.706 5.943 6.022 5.943 3.316 0 6.021-2.653 6.021-5.943.027-3.289-2.679-5.942-6.021-5.942zm0 11.168c-2.945 0-5.332-2.334-5.332-5.226 0-2.891 2.387-5.226 5.332-5.226 2.944 0 5.332 2.335 5.332 5.226 0 2.866-2.388 5.226-5.332 5.226zM55.02 45.442v-5.89h.53v5.36h2.467v.53H55.02zM61.254 45.442v-5.89h3.05v.505h-2.52v2.148h2.176v.478h-2.175v2.228h2.52v.53h-3.051zM69.159 45.017a1.5 1.5 0 0 0 .477-.08c.133-.052.266-.132.372-.238.106-.106.185-.239.238-.371a1.24 1.24 0 0 0 .08-.451v-1.008h-1.008v-.478h1.538v1.46c0 .264-.053.477-.132.689a1.535 1.535 0 0 1-.876.875c-.212.08-.424.133-.69.133-.265 0-.503-.053-.716-.133a1.532 1.532 0 0 1-.53-.345 1.514 1.514 0 0 1-.345-.557 1.978 1.978 0 0 1-.106-.69v-2.546c0-.239.026-.478.106-.69.08-.212.186-.398.345-.53.133-.16.318-.266.53-.345.213-.08.451-.133.717-.133.398 0 .716.106 1.008.292.292.186.477.477.583.849-.106.026-.212.08-.265.08-.053.026-.159.052-.265.079a.976.976 0 0 0-.372-.584 1.182 1.182 0 0 0-.69-.212c-.185 0-.344.027-.477.08a1.197 1.197 0 0 0-.61.636c-.053.133-.08.292-.08.451v2.6c0 .16.027.318.08.451.053.133.133.265.239.371.106.107.212.186.371.266.133.053.292.08.478.08zM74.36 45.442v-5.89h3.05v.505h-2.52v2.148h2.175v.478H74.89v2.228h2.52v.53h-3.05zM83.775 45.442l-1.698-3.157a3.494 3.494 0 0 1-.186-.344 7.046 7.046 0 0 1-.238-.451c-.08-.16-.16-.292-.24-.451-.079-.133-.132-.266-.185-.345h-.026v4.695h-.558V39.5h.531c.053.08.106.212.212.371.08.16.186.345.292.557.106.213.212.425.345.637.106.212.239.425.345.637.106.212.212.371.292.557.08.16.159.292.212.371l.849 1.592h.026v-4.696h.53v5.89h-.503v.026zM89.56 39.553c.795 0 1.326.318 1.591.928.08.186.106.425.133.716.026.292.026.61.026.982v.981c0 .266 0 .505-.026.743a2.97 2.97 0 0 1-.106.557c-.08.186-.16.345-.292.478-.106.133-.239.212-.398.292a1.69 1.69 0 0 1-.477.159 3.962 3.962 0 0 1-.557.053H87.94v-5.89h1.619zm1.193 1.99c0-.133 0-.266-.026-.399a.848.848 0 0 0-.08-.371c-.08-.239-.212-.424-.398-.53-.212-.133-.45-.186-.769-.186h-1.008v4.907h1.008c.61 0 1.008-.238 1.167-.716.027-.08.053-.185.08-.318.026-.106.026-.239.026-.345v-2.043zM97.755 45.442l-.398-1.406h-2.043l-.397 1.406h-.558l1.725-5.89h.53l1.725 5.89h-.584zm-1.035-3.714l-.371-1.38h-.027c0 .054-.026.133-.08.266-.026.133-.079.265-.105.424-.027.16-.08.292-.106.425a1.07 1.07 0 0 1-.08.265c-.026.08-.053.186-.106.371-.053.16-.106.345-.16.558l-.158.557c-.053.185-.08.291-.106.371h1.803l-.504-1.857zM109.108 41.277c0 .239-.026.451-.079.663-.054.213-.16.398-.292.557-.133.16-.292.292-.504.372-.213.106-.451.132-.77.132h-1.14v2.44h-.557v-5.888h1.671c.53 0 .955.132 1.247.424.291.292.424.716.424 1.3zm-.557 0c0-.371-.106-.663-.292-.875-.185-.213-.477-.319-.875-.319h-1.088v2.44h1.088c.212 0 .398-.026.53-.105a.705.705 0 0 0 .345-.265.924.924 0 0 0 .186-.398c.106-.16.106-.319.106-.478zM114.122 39.553c.504 0 .902.132 1.167.424.266.292.398.663.398 1.194 0 .398-.079.716-.265.982-.186.265-.451.45-.822.583l1.167 2.733h-.61l-1.114-2.653h-1.194v2.652h-.531V39.58h1.804v-.026zm-1.247.477v2.282h1.141c.372 0 .637-.106.823-.292.185-.212.291-.504.291-.876 0-.371-.106-.636-.291-.822-.186-.186-.478-.265-.849-.265h-1.115v-.027zM119.113 45.442v-5.89h3.051v.505h-2.52v2.148h2.175v.478h-2.175v2.228h2.52v.53h-3.051zM129.323 45.442V40.88h-.026l-.663 1.619-.796 1.777h-.398c-.027-.08-.08-.186-.159-.371-.08-.16-.159-.345-.239-.531-.08-.186-.159-.371-.239-.53a3.213 3.213 0 0 1-.159-.372l-.663-1.592h-.027v4.537h-.53v-5.89h.557c.026.053.053.16.106.266.053.106.106.238.159.398.053.159.133.291.186.45.079.16.133.319.186.452.053.159.106.265.159.397.053.107.079.213.106.266l.69 1.644h.026l.716-1.67.955-2.203h.531v5.89h-.478v.026zM133.516 45.442v-5.89h.557v5.89h-.557zM141.075 39.553v4.244c0 .266-.053.504-.132.716-.08.213-.213.398-.372.531-.159.16-.345.265-.53.345-.213.08-.425.106-.664.106-.265 0-.477-.053-.689-.133a1.415 1.415 0 0 1-.531-.345 1.422 1.422 0 0 1-.345-.53 2.006 2.006 0 0 1-.132-.69v-4.244h.53v4.244c0 .16.027.319.08.478a1.1 1.1 0 0 0 .239.371c.106.106.238.186.371.239.133.053.292.106.477.106.319 0 .611-.106.823-.318.212-.213.318-.504.318-.876v-4.244h.557zM148.478 45.442V40.88h-.027l-.663 1.619-.796 1.777h-.398c-.026-.08-.079-.186-.159-.371-.08-.16-.159-.345-.239-.531a10.342 10.342 0 0 0-.238-.53 3.086 3.086 0 0 1-.16-.372l-.663-1.592h-.026v4.537h-.531v-5.89h.557c.027.053.053.16.106.266.053.106.106.238.159.398.054.159.133.291.186.45.08.16.133.319.186.452.053.159.106.265.159.397.053.107.08.213.106.266l.69 1.644h.026l.717-1.67.955-2.203h.53v5.89h-.477v.026z"/></symbol><symbol id="i-mouse" viewBox="0 0 12.6 19.2"><path class="st0" d="M6.3.7C3.1.7.5 3.3.5 6.5v6.1c0 3.2 2.6 5.8 5.8 5.8s5.8-2.6 5.8-5.8v-6C12.1 3.3 9.5.7 6.3.7zm4.9 11.9c0 2.7-2.2 4.9-4.9 4.9s-4.9-2.2-4.9-4.9v-6c0-2.7 2.2-4.9 4.9-4.9s4.9 2.2 4.9 4.9v6zM6.3 6.5c-.2 0-.4-.2-.4-.5V3.6c0-.2.2-.4.4-.4s.4.2.4.4V6c0 .3-.2.5-.4.5z"/></symbol><symbol id="i-towers" viewBox="0 0 7 20"><path d="M6.315 0H4.736v20h1.58zM1.579 0h-1.58v20h1.58z"/></symbol></svg>