<svg xmlns="http://www.w3.org/2000/svg" viewBox="0 0 595.28 539.41">
  <defs>
    <style>
      .cls-1 {
        fill: #6e8081;
      }

      .cls-2 {
        fill: #ad8b19;
      }

      .cls-3, .cls-4 {
        fill: none;
        stroke: #58595b;
        stroke-miterlimit: 10;
      }

      .cls-4 {
        stroke-width: 0.5px;
      }

      .cls-5 {
        fill: #81c5e2;
      }

      .cls-6 {
        fill: #fff;
      }

      .cls-7 {
        fill: #808285;
      }

      .cls-8 {
        fill: #536873;
      }

      .cls-9 {
        fill: #d7a088;
      }
    </style>
  </defs>
  <title>map I16</title>
  <g id="Layer_1" data-name="Layer 1">
    <g>
      <polygon class="cls-1" points="150.9 0.17 229.08 99.75 356.54 0.56 150.9 0.17"/>
      <g>
        <polygon class="cls-2" points="225.18 355.09 222.52 364.23 215.14 362.09 217.79 352.94 209.76 350.61 204.89 367.38 228.34 374.19 233.21 357.42 225.18 355.09"/>
        <line class="cls-3" x1="281.28" y1="290.76" x2="208.88" y2="540.06"/>
        <polyline class="cls-3" points="143.9 317.48 280.76 291.03 315.98 269.08 330.92 253.75 437.59 189.82 455.22 174.28"/>
        <polyline class="cls-3" points="118.16 192.57 143.9 317.48 86.5 514.97"/>
        <line class="cls-3" x1="280" y1="366.96" x2="141.24" y2="326.63"/>
        <line class="cls-3" x1="10.41" y1="359.27" x2="470.45" y2="494.08"/>
        <line class="cls-3" x1="10.41" y1="355.5" x2="471.46" y2="490.6"/>
        <polyline class="cls-4" points="58.19 438.7 331.64 518.18 366.04 496.9 368.38 486 364.56 467.62"/>
        <path class="cls-3" d="M295.73,547l54.34-193.45.21-.75c2.44-8.36,3.85-12.58,10-15.74s37.58-22.29,37.58-22.29"/>
        <g>
          <line class="cls-4" x1="191.15" y1="341.13" x2="173.19" y2="402.9"/>
          <line class="cls-4" x1="182.47" y1="370.99" x2="218.24" y2="381.38"/>
          <polyline class="cls-4" points="131.06 361.64 136.52 363.22 145.88 377.6 141.22 393.61"/>
          <polyline class="cls-4" points="160.37 332.19 152.85 358.08 142.64 355.11 150.17 329.22"/>
          <line class="cls-4" x1="257.34" y1="371.62" x2="234.22" y2="364.89"/>
          <line class="cls-4" x1="241.71" y1="367.07" x2="244.72" y2="356.7"/>
          <line class="cls-4" x1="235.27" y1="396.93" x2="248.84" y2="400.87"/>
          <line class="cls-4" x1="251.78" y1="391.36" x2="265.94" y2="395.48"/>
          <polyline class="cls-4" points="241.56 398.76 246.39 382.14 253.67 384.25"/>
          <line class="cls-4" x1="186.15" y1="358.31" x2="198.74" y2="352.68"/>
          <polyline class="cls-4" points="205.84 416.16 203.46 424.35 184.08 418.72 186.46 410.53"/>
          <polyline class="cls-4" points="185.5 413.82 178.13 416.11 186.35 441.77 207.17 447.65"/>
          <line class="cls-4" x1="208.88" y1="441.77" x2="197.97" y2="479.33"/>
          <line class="cls-4" x1="200.19" y1="471.67" x2="218.8" y2="477.08"/>
          <polyline class="cls-4" points="216.57 484.73 222.09 465.74 220.4 463.48 213.34 466.49 205.51 453.38"/>
          <polyline class="cls-4" points="131.25 459.94 136.14 443.11 173.81 454.06 168.92 470.88"/>
          <polyline class="cls-4" points="136.14 443.11 134.87 439.03 136.11 434.74 134.14 429.93 113 423.79"/>
          <line class="cls-4" x1="108.99" y1="437.57" x2="124.87" y2="442.19"/>
          <polyline class="cls-4" points="108.99 437.57 93.93 433.19 83.32 446"/>
          <line class="cls-4" x1="127.7" y1="373.2" x2="77.23" y2="358.53"/>
          <polyline class="cls-4" points="70.61 373.09 86.21 335.81 108.69 311.52 142.75 321.42"/>
          <line class="cls-4" x1="99.29" y1="321.68" x2="120.22" y2="327.76"/>
          <line class="cls-4" x1="90.42" y1="331.27" x2="112.18" y2="337.59"/>
          <line class="cls-4" x1="83.79" y1="341.6" x2="101.84" y2="346.84"/>
          <polyline class="cls-4" points="51.83 367.64 66.16 325.17 86.21 335.81"/>
          <line class="cls-4" x1="115.42" y1="313.47" x2="115.02" y2="297.93"/>
          <polyline class="cls-4" points="138.28 290.21 220.75 269.04 213.34 232.09"/>
          <line class="cls-4" x1="171.28" y1="281.68" x2="174.81" y2="299.28"/>
          <line class="cls-4" x1="156.66" y1="285.72" x2="160.71" y2="306.09"/>
          <line class="cls-4" x1="208.88" y1="271.9" x2="201.44" y2="234.64"/>
          <path class="cls-4" d="M129.92,249.64c-.09-.44,112.17-23.32,112.17-23.32l17.23,2.7,17.56-7.28,22.62-25"/>
          <polyline class="cls-4" points="242.09 226.32 249.7 259.97 245.68 260.97 241.29 241.28 244.38 236.47"/>
          <polyline class="cls-4" points="215.57 243.22 219.86 242.34 223.03 258.15 219.78 264.2"/>
          <polyline class="cls-4" points="211.99 304.1 215.84 296.39 223.19 295.17 231.53 280.58 282.26 263.96 286.1 266.07 316.82 247.46 318.51 241.65 316.23 237.63 317.23 234.21 291.82 205.33"/>
          <line class="cls-4" x1="273.44" y1="266.86" x2="285.97" y2="287.68"/>
          <path class="cls-4" d="M264.6,226.83c.27-.11,10.13,22.29,10.13,22.29l7.9-4.86-3.31-6.59-5.25-3.93-4.92,2.06"/>
          <polyline class="cls-4" points="309.47 375.45 279.77 366.99 283.54 354.77 273.07 347.39 279.51 323.88 284.32 319.33"/>
          <polyline class="cls-4" points="277.13 303.52 281.41 304.41 286.85 312.25 323 324.26 324.99 307.75 366.04 280.68"/>
          <line class="cls-4" x1="354.99" y1="287.98" x2="379.79" y2="325.61"/>
          <line class="cls-4" x1="312.74" y1="271.1" x2="332.76" y2="302.63"/>
          <polyline class="cls-4" points="323.25 262.1 341.64 289.84 363.89 274.77"/>
          <polyline class="cls-4" points="284.74 213.11 304.03 238.42 316.23 237.63"/>
          <line class="cls-4" x1="267.01" y1="433.94" x2="261.51" y2="452.85"/>
          <line class="cls-4" x1="271.91" y1="453.14" x2="317.28" y2="466.33"/>
          <line class="cls-4" x1="286.43" y1="449.35" x2="292.53" y2="459.13"/>
          <polyline class="cls-4" points="253.81 495.56 261.35 469.61 254.51 467.62 251.1 470.05 247.25 483.29 256.58 486"/>
          <polyline class="cls-4" points="233.55 453.76 251.22 458.9 247.47 471.81 239.31 474.98 228.4 471.81"/>
          <line class="cls-4" x1="239.31" y1="474.98" x2="234.92" y2="490.07"/>
        </g>
        <path class="cls-1" d="M200.39,309.12l-4.63,15.94-7.39,1.76s-1.74-1.76-2-5.63-4.75-6.53-4.75-6.53l.65-2.23-34.78,6.73-1.59,5.48,112.66,32.74,18.25-62.78Z"/>
        <path class="cls-5" d="M232.5,326.29c3.24.13,7.51-3.21,12.64-3s14.67,3.56,14.77,7.59-7.82,3.31-11.05,3.39c-5.77.13-11.37,4-17.65,2.52s-11.34-2.71-17-1.63c-3.68.7-9.19-.32-10-3.56s1.25-8.58,11-8.45C223.13,323.24,226.81,326,232.5,326.29Z"/>
        <g>
          <path class="cls-6" d="M215.44,328.73l.08.23v.26h-.13v-.07l0-.16-.05-.16-.06-.17-.16-.08h-.17l-.16.05-.13.1,0,.16,0,.16,0,.16,0,.17v.5l0,.18,0,.16v.52l0,.18v.16l0,.16.1.13.15.1.17,0,.17,0,.16-.08.11-.13.15.08-.13.11-.13.1-.18.08h-.34l-.15-.08-.13-.13,0-.2,0-.18,0-.18v-.16l0-.19v-1.37l0-.16,0-.19,0-.15.09-.15.15-.09H215l.2,0,.16.1.07.09Z"/>
          <path class="cls-6" d="M216.32,330.52v.23l0,.18,0,.2.14.13h.18l.13,0,.1-.11.11.05-.09.16-.16.08h-.17l-.18,0-.13-.12,0-.18,0-.17,0-.21V330l0-.19v-.18l.05-.17.14-.11.18-.05.17,0,.14.14.07.17V330l0,.19,0,.17-.12.13-.16.08h-.31Zm0-.13h.17l.18-.07.11-.14,0-.17v-.4l-.06-.17-.17-.05-.17.05-.05.14,0,.14,0,.21v.2Z"/>
          <path class="cls-6" d="M217.67,332.86v-1.27l0-.17,0-.17v-.56l0-.22V329.4l0-.16,0,0,.11.09.21.06.16,0,.13.06,0,.11,0,.16,0,.17,0,.16,0,.16v.47l0,.12,0,.15-.13.12-.15.09-.24.07v.21l0,.17V332l0,.2v.49l0,.16Zm.38-1.85.15-.1.09-.13,0-.16V330l0-.16v-.16l-.08-.15-.15-.08-.26,0,0,.17v.5l0,.16v.86Z"/>
          <path class="cls-6" d="M219.18,330.52l0,.23,0,.18,0,.2.14.13h.18l.13,0,.11-.11.11.05-.1.16-.15.08h-.18l-.17,0-.13-.12,0-.18,0-.17,0-.21V330l0-.19,0-.18,0-.17.14-.11.17-.05.18,0,.14.14.06.17V330l0,.19,0,.17-.13.13-.16.08h-.3Zm0-.13h.17l.18-.07.11-.14,0-.17,0-.21v-.19l-.06-.17-.18-.05-.16.05,0,.14-.06.14,0,.21v.2Z"/>
          <path class="cls-6" d="M221.71,328.1v.35l-.05.19-.1.13-.15.09-.21,0-.17,0-.19.07-.12.13-.05.16,0,.18v.3l.15-.2.16-.09.22,0,.17.08.08.16,0,.17v.55l0,.18v.19l0,.21-.07.19-.06.17-.13.14-.17,0-.18,0-.14-.13-.06-.17,0-.18,0-.17,0-.21v-.19l0-.17v-.6l0-.19,0-.21.05-.17.06-.18.14-.16.18-.09.19-.07.2,0,.16-.1,0-.17v-.18Zm-1,1.75-.07.14v.18l0,.17v.38l0,.18v.17l.06.19.09.13.18,0,.13-.13.09-.19.07-.17,0-.18,0-.2V330l0-.18-.09-.17-.17,0-.16.1Z"/>
          <path class="cls-6" d="M222.36,332.86v-1.27l0-.17v-.73l0-.22V329.4l0-.16.05,0,.1.09.22.06.16,0,.13.06,0,.11,0,.16,0,.17,0,.16v.16l0,.16v.17l0,.14v.12l0,.15-.13.12-.15.09-.24.07v.21l0,.17,0,.22,0,.15,0,.2,0,.17v.32l0,.16Zm.38-1.85.14-.1.1-.13,0-.16V330l0-.16,0-.16-.08-.15-.14-.08-.26,0v.17l0,.16v.34l0,.16v.86Z"/>
          <path class="cls-6" d="M224.8,329.29l0,.23,0,.16,0,.16v1.22l0,.18v.16l-.15.08v-.66l0-.2-.13,0-.18.24-.08.18,0,.2-.09.18-.11.1-.09.08-.13-.1.13-.09.09-.11.06-.15.06-.16,0-.17.1-.13.13-.14-.13-.13-.1-.13-.06-.16v-.18l0-.17v-.16l0-.16.1-.13.18,0h.34Zm-.21.07h-.1l-.16,0-.11.11,0,.15V330l0,.16.08.15.14.13.16.06V330l0-.16,0-.17v-.16l0-.1Z"/>
          <path class="cls-6" d="M225.49,329.15l0,.13,0,.18V330h.27L226,330l0-.17v-.38l0-.17.11,0,0,.15v.16l0,.2v.17l0,.17v.19l0,.18V331l0,.16v.17l-.07.16-.07,0,0-.16v-.48l0-.17v-.18l0-.17v-.16l-.23,0-.17,0,0,.19v1l0,.12h-.1l0-.29v-.76l0-.21,0-.2v-.31l0-.2v-.36Z"/>
          <path class="cls-6" d="M226.94,329.17l.05.16v.16l0,.18v.16l0,.17.12.11.12.08.18,0,.11.13.09.2v.53l-.07.18-.05.13-.1.1-.16.08H227l-.24-.06v-.3l0-.18v-.48l.05-.23V330l0-.21v-.62Zm.05,1v.18l-.06.2v.49l0,.18,0,.15.16.06.16-.06.08-.15,0-.18,0-.16,0-.19-.06-.16-.05-.18-.23-.11Zm1.09-1.06,0,.16,0,.17v.5l0,.21,0,.19v.75l0,.16v.18l-.15.08v-.17l0-.17v-.32l0-.16v-.54l0-.21v-.62l0-.16Z"/>
          <path class="cls-6" d="M228.83,328.37l.06.11.15.15.2.08.2,0,.15-.11.14-.14.08.08-.09.13-.12.15-.12.08-.19,0h-.19l-.18-.08-.13-.18-.07-.14Zm.11.92,0,.18V331l0,.19.09.16.16.1.24-.09.08-.18v-1.86l.15,0,0,.17v.84l0,.17v.21l0,.17.06.17.06.18.09.14.11,0-.06.13-.15-.08-.09-.11-.05-.22-.1.28-.1.09-.2,0h-.21l-.15-.08-.09-.16,0-.21v-.2l0-.18,0-.23v-.69l0-.29v-.22Z"/>
          <path class="cls-6" d="M231.72,331.48v-.58l0-.2v-.36l0-.21,0-.21v-.34l0-.18,0-.16.18,0H232l.34,0,.13,0v.36l0,.19V331l0,.16v.33l-.13,0,0-.19v-.18l0-.18V330l0-.18v-.2l0-.19-.21,0h-.2l-.14,0v1.23l0,.16v.66Z"/>
          <path class="cls-6" d="M233.17,332.86v-1.07l0-.2,0-.17v-.73l0-.22v-.17l0-.17v-.73l0-.16.05,0,.1.09.22.06.16,0,.12.06,0,.11,0,.16,0,.17,0,.16v.16l0,.16v.17l0,.14v.12l0,.15-.13.12-.15.09-.24.07v.21l0,.17v.57l0,.17v.32l0,.16Zm.38-1.85.15-.1.1-.13v-1l0-.16-.08-.15-.15-.08-.26,0,0,.17,0,.16v1.36Z"/>
          <path class="cls-6" d="M234.62,329.18l.09.14,0,.16.05.17,0,.18,0,.16,0,.18,0,.16,0,.16v.34l0,.2,0,.15.06.22.07-.24,0-.17,0-.16v-.16l0-.16,0-.17,0-.16v-.33l.05-.15.06-.17-.07-.13.1-.13.07.17v.16l0,.16,0,.16,0,.17,0,.17,0,.17v.32l0,.16v.17l0,.16-.05.16,0,.18,0,.18,0,.16,0,.16,0,.16,0,.18-.07.18,0,.16-.19.08-.05-.1.17-.17,0-.16,0-.17,0-.19,0-.18,0-.16,0-.18-.05-.16,0-.16,0-.17,0-.16,0-.16v-.18l-.05-.2,0-.16V330l-.05-.19,0-.16-.07-.2,0-.19Z"/>
          <path class="cls-6" d="M237.24,329.79v-.18l0-.21,0-.16,0-.23-.05-.18-.06-.14-.06-.19-.18-.17-.21,0-.23.07-.14.15-.1-.21.1-.1.16-.09h.21l.17,0,.2.08.13.11.09.19,0,.17.05.15,0,.21,0,.22v.83l0,.2,0,.23,0,.19,0,.17,0,.18-.09.21-.1.15-.13.1-.19.06h-.14l-.16-.07-.11-.12-.12-.18-.07-.17,0-.17,0-.18v-.36l0-.2,0-.17.06-.19.09-.17.15-.11.16,0,.18,0,.16.08Zm0,.16-.18-.13-.12-.09-.16-.09-.16,0-.15.07-.09.13,0,.18v.87l.05.17.07.14.05.12.09.07.15.05.14,0,.13-.1.08-.16,0-.17.06-.22,0-.19,0-.18V330Z"/>
        </g>
        <g>
          <path class="cls-7" d="M163.44,337.27l.1-.14.12-.12.16,0,.19,0,.15.06.1.13.06.16,0,.17-.05.17-.06.19,0,.16-.05.17-.06.18-.05.18,0,.15-.06.15-.05.16v.15l0,.19-.15,0V339l-.13.11-.14.11h-.17l-.15-.05-.1-.08-.07-.17v-.18l0-.18.06-.17.08-.15.13-.11.18-.09.15,0,.18,0H164l0-.09.05-.11,0-.16,0-.16,0-.18,0-.14-.11-.11-.25,0-.14.14-.07.1Zm.29.94-.17,0-.14,0-.13.1-.07.15-.05.17,0,.16.06.15.15.07.2,0,.12-.12.13-.15.07-.18,0-.15,0-.15Z"/>
          <path class="cls-7" d="M165.81,337.73l.16,0,.13.1-.06.18,0,.17-.05.19-.06.15-.07.18-.05.16,0,.15-.05.19-.07.17,0,.15-.06.27-.14,0,0-.16.05-.17,0-.16.06-.15.05-.16,0-.15,0-.16.05-.17.05-.17.06-.17.07-.25-.19,0-.15,0-.06.2-.06.15-.06.15,0,.17-.07.16-.05.15,0,.16-.05.15-.08.16-.05.12-.1.13-.14.08-.23,0v-.21l.17.05.11,0,.14-.21.09-.16.08-.17,0-.15.05-.16,0-.16.05-.15.05-.19,0-.17.05-.16,0-.1Z"/>
          <path class="cls-7" d="M166.38,339.86V340l-.19,0-.05-.15,0-.08Z"/>
          <path class="cls-7" d="M167.93,340.56l.08-.18.05-.17.08-.15.05-.17,0-.17.05-.17,0-.16.06-.19,0-.19.05-.17.07-.16.05-.18,0-.15.07-.18.11-.16.12-.18.13-.1h.19l.15,0,.16.1.1.14,0,.16,0,.18,0,.17,0,.19,0,.16,0,.15-.05.16,0,.16-.05.17,0,.17,0,.16,0,.16,0,.17,0,.17,0,.3,0,.21-.15,0,0-.16,0-.16,0-.15,0-.19,0-.15,0-.17.07-.22-.17,0-.16,0-.15,0-.16,0-.17,0-.05.22-.06.15-.06.16-.05.15,0,.16-.06.15-.12.18Zm.61-1.21.14.06.15,0,.15.05.18,0h.14l0-.15v-.18l0-.16,0-.16v-.16l0-.17,0-.18v-.17l-.07-.17-.15-.12-.16.05-.13.1-.1.15-.1.18-.06.16-.05.16,0,.16,0,.15-.05.19-.05.16Z"/>
          <path class="cls-7" d="M170.51,338.74l0,.19,0,.16-.05.15,0,.16-.07.15,0,.16-.07.18.23-.24.11,0,.19-.09.11-.12.13-.1.17,0,.06.23H171l-.23.12-.15.07-.16.11-.14.13.11.14.06.18,0,.17,0,.16,0,.2v.16l0,.17.07.16-.17.06,0-.17,0-.21,0-.15,0-.18v-.17l0-.19-.06-.13-.13-.1-.08.14-.06.17-.07.14,0,.16,0,.16-.06.27-.15-.06.05-.17,0-.16.05-.15,0-.16.07-.17.06-.15.07-.18.06-.15,0-.16.06-.19,0-.15,0-.17,0-.29Z"/>
          <path class="cls-7" d="M171.87,339.7l.09-.14.12-.12.16,0,.2,0,.15.06.09.13.06.15,0,.17,0,.17-.05.19,0,.16-.05.17-.05.18,0,.18-.05.15-.06.15,0,.16v.15l0,.19-.16,0v-.39l-.14.11-.13.12h-.17l-.16-.05-.1-.08-.06-.17V341l.07-.18.08-.15.12-.11.18-.09.15,0,.18,0h.19l.05-.09.06-.11,0-.16,0-.16,0-.18-.05-.14-.1-.11-.25,0-.15.14-.06.1Zm.29.94H172l-.14,0-.13.1-.08.15,0,.17v.16l.06.15.14.07.2,0,.12-.12.13-.15.07-.18,0-.15,0-.15Z"/>
          <path class="cls-7" d="M174.47,340.64l.05-.18,0-.2,0-.17,0-.22v-.19l0-.15v-.2l-.13-.21-.2-.08H174l-.17.1,0-.22.12-.08.19,0,.2.05.16.07.17.13.09.15,0,.2v.33l0,.21,0,.23-.05.22-.06.21,0,.17-.07.2,0,.2-.08.21-.08.18-.09.15-.08.17-.14.17-.14.12-.15.06h-.2l-.13-.05-.14-.12-.07-.14-.07-.21v-.19l0-.17,0-.17,0-.17.06-.18.08-.18.08-.16.11-.17.12-.13.18-.06H174l.16.09.13.11Zm-.05.15-.13-.17-.09-.12-.14-.13-.13-.08-.17,0-.13.1-.08.16-.05.16-.06.17-.06.17,0,.17,0,.17v.17l0,.15,0,.13.07.09.13.09.12.07.16-.06.12-.13.1-.15.11-.2.07-.17.08-.17.05-.17Z"/>
          <path class="cls-7" d="M175.14,341.59l-.08.22,0,.17,0,.21.1.16.17,0,.14,0,.13-.08.09.08-.13.13-.18,0-.17-.05-.16-.06-.09-.16,0-.17,0-.18,0-.21.05-.18,0-.19.05-.16.06-.2.07-.18.06-.16.09-.16.17-.06h.18l.17.06.09.18v.18l-.05.17-.05.18-.08.18-.08.16-.15.08-.18,0-.17-.05Zm0-.12.17,0h.18l.15-.1.08-.16.07-.2,0-.18v-.19l-.15-.09h-.18l-.08.13-.09.12-.08.19-.06.2Z"/>
          <path class="cls-7" d="M176.14,342.87l.08-.17,0-.16.07-.16.07-.19,0-.17,0-.15,0-.16,0-.16,0-.15,0-.16.06-.15.06-.15.16-.06.11.14v.16l0,.17,0,.16v.36l.05.21.16-.2.09-.21.08-.26.07-.17.13-.09.18,0,.09.1v.16l0,.16,0,.17,0,.16-.05.15,0,.18-.05.17,0,.16,0,.16,0,.15,0,.18,0,.17-.11,0v-.15l0-.17.06-.19,0-.16.05-.17,0-.19.05-.15,0-.16.05-.15,0-.16,0-.17-.05-.11h-.09l-.1.14-.05.16,0,.15,0,.16-.06.15-.25.26-.05-.09-.1-.24v-.36l0-.24,0-.23-.09.18-.08.28-.05.13,0,.2,0,.13-.07.15,0,.14,0,.15-.06.15,0,.16-.06.16Z"/>
          <path class="cls-7" d="M178.77,341.34l0,.14,0,.2-.05.17,0,.17-.05.18-.07.17-.05.16,0,.19-.06.2,0,.2v.25l.16.12.13,0,.24-.1.12-.18.1-.21.06-.16.05-.16,0-.17.05-.17.05-.17,0-.16.05-.19.18-.05-.05.19-.06.18-.05.17,0,.2-.06.2-.08.2-.06.17,0,.22v.53H179l0-.23,0-.18,0-.27-.1.25-.13.18-.17.07-.18.05-.17,0-.16-.06-.07-.17v-.13l0-.17.05-.19,0-.16.05-.17.06-.16.07-.18.05-.18,0-.19,0-.17,0-.19,0-.16Z"/>
          <path class="cls-7" d="M181.39,342.12l-.08.21-.08.14-.06.16,0,.17,0,.15-.07.19,0,.15-.05.17,0,.16-.05.17-.07.17,0,.15-.16,0,0-.15,0-.18.05-.15,0-.16.07-.18-.11-.07-.24.17-.13.16-.07.18-.13.15L180,344l-.11.05-.1-.13.15-.06.12-.07.09-.14.11-.13.08-.15.13-.1.16-.1-.09-.16-.05-.16,0-.17.05-.17.06-.15.06-.15.08-.15.13-.1.18,0,.15,0,.17.05Zm-.22,0-.1,0h-.16l-.14.07-.06.14,0,.16,0,.15v.17l0,.16.1.17.14.1.06-.15,0-.15,0-.16.06-.15.06-.15.06-.16.05-.09Z"/>
          <path class="cls-7" d="M183.93,342l.16,0,.17.05,0,.17-.05.15,0,.16-.05.15-.06.16,0,.15-.05.16,0,.15-.05.16,0,.2,0,.16-.05.16,0,.17-.05.18-.07.29-.06.15-.07.18-.11,0,0-.16.05-.16,0-.16.05-.15,0-.16,0-.15,0-.16,0-.17.05-.16,0-.15.05-.16,0-.16.06-.18,0-.16.05-.15,0-.16v-.17l-.15,0-.16-.05h-.11l-.06.14-.07.23,0,.16,0,.16,0,.16,0,.19,0,.13-.05.16,0,.15-.05.16-.06.15-.06.15-.08.15-.09.14-.1.14-.12.12-.15.09h-.17l0-.13.22-.06.13-.1.1-.14.07-.15L183,344l.07-.15.08-.14.06-.15,0-.16.05-.17,0-.16,0-.16.05-.15,0-.18.05-.15,0-.16.05-.15,0-.16Z"/>
          <path class="cls-7" d="M184.92,343.12l0,.13,0,.21,0,.17,0,.16-.06.19-.06.16-.05.17,0,.18-.06.2,0,.2v.26l.16.11.13,0,.23-.1.13-.17.1-.21.06-.16.05-.17,0-.17.05-.16,0-.17,0-.17.06-.18.18-.05-.06.18,0,.18-.05.17-.06.2,0,.2-.09.2-.05.18,0,.21v.54h-.17l0-.22,0-.18,0-.28-.1.26-.13.18-.17.06-.18.05-.17,0-.17-.07-.06-.17v-.13l.05-.17.05-.18,0-.17.05-.17.06-.16.07-.18.05-.18,0-.18,0-.17,0-.2,0-.16Z"/>
          <path class="cls-7" d="M186.69,343.41l0,.21v.5l0,.17v.17l.09.12.1-.05.12-.15.08-.17.09-.26.13-.18.24.1-.14.12-.1.11-.06.15-.08.15-.09.15-.14.14-.14.05,0,.24v.17l0,.16,0,.17v.17l.06.28-.12.07,0-.15,0-.16,0-.17,0-.18,0-.16,0-.18v-.17l-.15.14-.07.15-.12.12-.07.17-.11.25-.11.14-.17-.07.1-.15.14-.12.08-.14.07-.15.07-.18.13-.14.15-.13-.08-.18v-.34l0-.18,0-.16v-.36Z"/>
          <path class="cls-7" d="M188.1,344.38l.09-.13.12-.12.16,0,.19,0,.16.06.09.13.06.15,0,.17-.05.18-.06.18,0,.16-.05.17,0,.19-.05.17-.05.16-.06.15,0,.15v.34h-.15v-.4l-.13.11-.13.12H188l-.16-.05-.1-.08-.07-.17,0-.18v-.17l.07-.18.08-.15.12-.11.18-.08.15,0,.18,0h.19l.05-.09.06-.11,0-.16,0-.16,0-.18,0-.14-.1-.1-.26,0-.14.14-.06.1Zm.28.94h-.17l-.13,0-.13.1-.08.15-.05.17v.17l.06.15.14.06.2,0,.12-.12.13-.15.07-.17.05-.16,0-.15Z"/>
          <path class="cls-7" d="M189.92,344.59l-.08.15,0,.15-.05.18-.05.15-.08.16-.05.19,0,.16.08.15.14.08.16.05h.17l0-.16,0-.15.05-.16,0-.15.05-.18.05-.15,0-.17.12-.12,0,.16-.05.17-.06.17,0,.15,0,.16,0,.19,0,.16-.05.17,0,.18,0,.17-.05.15,0,.16-.07.15-.12-.09.06-.15,0-.16.07-.16,0-.23-.19,0-.16-.05-.15-.11-.09-.15v-.16l0-.16.05-.15,0-.16.06-.19,0-.15.05-.16,0-.17Z"/>
          <path class="cls-7" d="M191,346.16l-.08.22,0,.17,0,.21.1.16.17.05.14,0,.13-.08.09.08-.13.12-.18,0-.17,0-.16-.06-.09-.16,0-.18,0-.17,0-.21,0-.18.05-.19,0-.17.06-.19.07-.18.06-.17.1-.15.16-.07h.18l.17.06.09.18v.18l0,.17-.06.18-.08.18-.08.15-.15.09-.18,0-.17,0Zm0-.13.17.05h.18l.15-.11.08-.16.07-.19.05-.18v-.19l-.15-.09h-.18l-.08.12-.09.13-.08.19-.06.19Z"/>
          <path class="cls-7" d="M193,346.91l.2.11,0,.19-.05.17-.1.17-.16.1-.21,0-.23-.07-.17-.08-.13-.12-.07-.17V347l.06-.2.07-.18.09-.19.1-.23.09-.17.1-.17.16-.14.17-.08.2,0h.2l.18,0,.18.07.09.17v.16l0,.17-.08.16-.09.15-.16.14-.14.1-.15.06Zm-.7,0,0,.1,0,.17.07.17.13.11.16.08h.17l.18-.11.07-.15,0-.18-.13-.12-.17-.07h-.27Zm0-.09.21,0,.29,0,.23-.08.16-.08.14-.11.08-.16.1-.15.06-.17,0-.17-.16-.1-.19-.05-.14,0-.16.07-.15.11-.07.08-.09.16-.07.14-.14.25Z"/>
          <path class="cls-7" d="M194.42,346.21l.09-.14.12-.12.17,0,.19,0,.15.06.1.13,0,.15,0,.18-.05.17,0,.19-.05.15,0,.18-.05.18-.05.17,0,.16-.06.15,0,.16v.15l0,.19-.16,0v-.39l-.14.11-.13.11h-.17l-.16,0L194,348l-.07-.18v-.35l.07-.17.08-.15.13-.11.17-.09.15,0,.18,0,.19,0,.06-.09,0-.11,0-.16,0-.16,0-.18,0-.14-.11-.11-.25,0-.14.14-.07.1Zm.29.93h-.17l-.14,0-.13.1-.08.14,0,.18,0,.16.06.15.15.06.19,0,.12-.11.13-.15.08-.18,0-.15,0-.15Z"/>
        </g>
        <g>
          <path class="cls-7" d="M189.67,400.39l.08-.28.15-.2.2-.15.28-.08h.31l.25.07.24.09.2.2.08.22v.23l-.07.25-.11.21-.17.21-.11.21-.17.23-.2.18-.14.25-.16.24-.18.19-.18.2-.11.23-.14.23-.24.34-.18.2.3.13.41.1.44,0-.07.22v.2l-.28-.08-.25-.07-.29-.08-.26-.1-.45-.14.15-.25.21-.25.19-.26.16-.26.24-.26.19-.28.19-.27.2-.18.19-.25.25-.26.17-.23.13-.3.07-.26,0-.25-.37-.26-.27-.09-.3.06-.12.22,0,.25Z"/>
          <path class="cls-7" d="M191.75,402.77l.23.06.29.09.27,0,.25.08-.07.2-.19-.06-.27-.13-.27,0-.24-.1Z"/>
          <path class="cls-7" d="M194.38,402l0,.25-.08.25-.09.32-.06.31-.09.31-.1.27-.1.32-.11.46-.06.28.08.27.18.21.38,0,.2-.22.08-.31.09-.36.07-.26.07-.3.09-.3.07-.26.07-.26.18-.64.2.09-.1.22-.06.28-.09.32-.09.3-.09.32,0,.26-.07.3-.05.26,0,.26v.3l.09.23.13.12-.14.15-.19-.17-.09-.2,0-.34-.26.37-.18.09-.3,0-.3-.11-.18-.18-.08-.27,0-.31.09-.29.09-.24.13-.34.1-.35.09-.3.1-.34.09-.42.1-.32Zm.23-1.37,0,.18.16.27.25.19.31,0,.25-.09.26-.15.09.15-.19.15-.23.17-.21.06-.28,0-.27-.1-.22-.19-.11-.31-.05-.23Z"/>
          <path class="cls-7" d="M197.42,406.24l0-.24.08-.25,0-.24.08-.26.08-.28.07-.26.07-.25.12-.26.07-.25.09-.28.09-.22.13-.27.09-.22.09-.23.11-.22.12-.22.16-.21.26,0,.11.23,0,.24,0,.24,0,.25-.07.23,0,.24,0,.24,0,.24v.25l.09.23.19-.14.16-.24.13-.24.07-.23.07-.26.1-.25.11-.22.15-.23.16-.21.25,0,.22.11,0,.25-.07.23-.08.28-.05.26,0,.24-.05.27-.08.28,0,.24-.05.26-.06.24-.07.23-.07.23-.06.31-.09.31-.07.23-.1.25,0,.26-.21-.06,0-.26.08-.28.08-.28.08-.26.07-.25.07-.24.09-.22.06-.24.07-.26,0-.32.1-.25.07-.23.06-.24.07-.23,0-.24v-.25l-.18-.18-.16.12-.15.17-.06.23,0,.24-.06.24-.07.23-.09.23-.12.22-.18.18-.13.11-.29.1-.14-.27,0-.22,0-.24,0-.25,0-.26v-.24L199,403l.1-.47-.14-.11-.15.19-.1.21-.08.22-.08.23-.08.24-.1.23-.11.23-.07.2-.08.23,0,.24-.07.24-.07.23-.09.23-.08.28-.07.23-.06.23,0,.25Z"/>
          <path class="cls-7" d="M201.66,403.9l.05.24v.51l0,.27,0,.25,0,.27,0,.24,0,.25-.08.25,0,.24,0,.3,0,.24v.34l.2-.33.09-.23.11-.22.09-.22.11-.22.12-.22.09-.23.09-.23.05-.24.14-.21.16-.2,0-.22.2-.15,0,.26-.06.24-.12.22-.11.22-.12.22-.14.23-.09.23-.09.23-.07.23-.09.23-.09.22-.11.22-.14.22-.15.23-.12.25-.11.22-.12.22-.12.21-.12.25-.16.23-.12.22-.31,0,0-.16.31-.18.12-.22.11-.22.13-.27.14-.24.12-.22.09-.25v-.25l0-.25v-.25l0-.24,0-.25,0-.26,0-.3,0-.25,0-.26v-.3l0-.25v-.31l0-.29Z"/>
          <path class="cls-7" d="M202.33,409.83l.08-.25.06-.24.08-.25.07-.26.08-.28.08-.26.1-.27.1-.25.09-.23.07-.23.08-.3.08-.28,0-.32.08-.26,0-.24.09-.3.08-.28.07-.23.07-.24,0-.24.09-.05.1.17.28.19.23.09.16.14v.18l0,.24,0,.25-.05.24,0,.24,0,.24-.07.23-.08.21-.08.17-.13.19-.23.11-.26.07h-.37l-.1.3-.1.24-.1.3-.05.23-.11.28-.09.22-.06.24-.07.23,0,.25Zm1.32-2.5.25-.08.19-.14.09-.23.07-.23.07-.24.06-.23.07-.23.05-.24,0-.24-.06-.25-.17-.18-.37-.14,0,.25-.05.24-.06.24-.08.25,0,.24-.07.24-.07.23-.07.26-.08.25-.07.26Z"/>
          <path class="cls-7" d="M206.11,405.34l-.05.2-.07.31-.07.25-.08.25-.08.28-.09.24-.07.25-.08.28-.09.3,0,.3v.38l.23.17.2-.05.35-.14.19-.27.15-.31.09-.24.08-.25.07-.25.07-.25.07-.25.07-.25.08-.28.27-.07-.08.27-.08.28-.07.25-.09.3-.08.3-.13.3-.08.26,0,.32v.25l0,.28V409h-.25l0-.33,0-.28,0-.41-.14.39-.21.26-.25.1-.26.07-.26-.05-.25-.09-.09-.26,0-.2.07-.25.08-.27.07-.25.08-.25.09-.25.1-.26.08-.28.08-.27.05-.26,0-.28,0-.25Z"/>
          <path class="cls-7" d="M208.68,405.89l0,.21,0,.27-.07.23-.1.33-.07.26.19.08.2.06.22,0,0-.26.07-.23.09-.3,0-.26h.17l0,.23-.07.23-.05.29,0,.26-.05.24-.06.29,0,.26-.07.26-.07.23-.08.3-.05.24-.07.24-.16.2-.09-.07.09-.22.07-.23.06-.24.07-.23,0-.24.07-.27,0-.24,0-.24-.35,0-.22-.12-.11.26-.07.26-.07.23-.07.24-.07.25-.07.24-.08.28-.08.16-.15-.05.16-.41.07-.23.09-.31L208,408l.08-.28.06-.31.06-.28.07-.23.06-.23,0-.29.08-.25.05-.27Z"/>
          <path class="cls-7" d="M211.79,407.62l-.14.23-.22-.13.11-.2-.07-.26-.11-.12-.21-.15-.24,0-.2,0-.12.15-.13.21-.1.26-.06.29-.06.23-.07.24,0,.26-.06.28,0,.4.12.25.17.17.23.07.25,0,.15-.06.13.12-.19.15h-.25l-.24,0-.27-.09-.19-.16-.09-.21,0-.23,0-.25.05-.26.06-.27.07-.26.07-.23.06-.23.07-.24.09-.22.07-.24.13-.26.24-.14.24.05.25.07.26.08.23.24.08.25Z"/>
          <path class="cls-7" d="M213.11,407l0,.29-.07.23-.06.24L213,408l-.09.23-.07.23-.1.27.35-.35.15-.07.28-.13.18-.18.19-.14.25-.06.09.35h-.27l-.35.18-.24.11-.22.16-.21.19.16.21.08.27,0,.26.06.24,0,.3v.24l0,.25.09.24-.25.09-.08-.26.07-.31-.05-.23,0-.26v-.26l0-.29-.1-.19-.19-.14-.12.2-.09.26-.1.21-.05.24,0,.24-.09.39-.23-.08.07-.26.07-.23.07-.23.07-.24.09-.25.09-.22.11-.28.09-.22.07-.24.08-.28.06-.23.08-.26,0-.43Z"/>
          <path class="cls-7" d="M215.5,408.05l-.05.2-.07.31-.07.25-.08.25-.07.28-.1.24-.07.25-.08.28-.09.29,0,.31v.38l.23.17.2-.05.35-.14.19-.27.16-.31.08-.24.08-.25.07-.25.07-.25.07-.25.08-.25.08-.28.26-.07-.08.27-.07.28-.08.25-.08.3-.09.3-.12.3-.09.26,0,.32v.26l0,.27v.27h-.26l0-.33,0-.28,0-.41-.14.39-.2.26-.25.1-.27.07-.26-.05-.24-.09-.1-.26,0-.2.07-.25.08-.27.08-.25.07-.26.09-.24.1-.26.08-.28.08-.27,0-.26,0-.29,0-.24Z"/>
          <path class="cls-7" d="M218.21,408.86l-.05.26-.07.25-.09.32-.07.3-.09.32-.1.27-.09.32-.11.45-.06.28.07.27.19.22.37,0,.2-.23.09-.3.09-.37.07-.25.07-.31.08-.29.08-.26.06-.27.18-.64.2.09-.09.23-.07.28-.09.32-.08.29-.1.33,0,.26-.07.3,0,.26,0,.26v.29l.08.24.14.12-.14.15-.2-.18-.08-.19,0-.34-.25.36-.18.09h-.31l-.29-.12-.18-.17-.08-.27,0-.31.08-.3.1-.24.12-.34.1-.34.1-.3.09-.35.1-.41.09-.32Zm.23-1.37,0,.18.15.28.25.19.32,0,.25-.1.26-.14.09.14-.19.15-.24.17-.21.07-.28,0-.26-.11-.22-.19-.12-.3,0-.24Z"/>
          <path class="cls-7" d="M221.29,413.15l.08-.28.08-.28.08-.28.06-.28.07-.26.07-.26.07-.31,0-.31.07-.24.07-.25.1-.25.11-.22.25.09.23.07.48.18.18.09-.07.26-.08.26-.06.28-.08.28-.08.28-.08.28-.07.24-.08.28-.07.25-.09.23-.07.23-.07.24-.17-.11.13-.27.07-.25,0-.27.07-.23.08-.26.08-.28.08-.28.06-.23.06-.26.08-.28,0-.3-.31,0-.27-.1-.2-.1-.1.44-.08.28-.08.26-.08.28-.08.28-.06.23-.05.24-.07.26-.07.23-.07.24-.06.23Z"/>
          <path class="cls-7" d="M222.8,415.74l.07-.26.07-.23L223,415l.07-.25.08-.28.07-.26.11-.27.1-.25.09-.23.06-.23.09-.31.08-.28,0-.31.08-.26,0-.24.09-.3.08-.28.07-.24.06-.23,0-.25.09,0,.11.17.28.19.23.09.16.13v.18l0,.25,0,.25L225,412l0,.24-.05.24-.06.23-.09.2-.07.17-.13.2-.24.11-.25.06h-.38l-.09.31-.1.23-.1.3-.05.23-.11.28-.09.23-.07.23-.06.24,0,.24Zm1.32-2.5.25-.08.19-.15.09-.22.07-.24.07-.23.06-.23.07-.24,0-.24,0-.24-.06-.24-.17-.18-.37-.14,0,.25-.05.24-.07.23-.07.26,0,.24-.07.23-.07.24-.07.25-.08.26-.07.26Z"/>
          <path class="cls-7" d="M225.75,414.14v.27l-.28,0-.08-.21.05-.13Z"/>
        </g>
        <g>
          <path class="cls-7" d="M404.42,335.79l.25-.15.25-.16.25-.15.23-.17.23-.14.23-.14.25-.19.25-.21.2-.12.23-.14.24-.12.23-.09.12.24.13.21.23.45.07.19-.22.14-.23.14-.24.17-.25.16-.24.15-.25.15-.21.13-.25.15-.22.14-.22.11-.21.13-.21.12-.06-.2.28-.1.23-.14.21-.16.21-.13.23-.14.25-.15.24-.16.21-.12.22-.16.24-.16.22-.2-.2-.23-.13-.27-.08-.2-.38.26-.25.15-.22.14L406,335l-.25.15-.21.13-.19.15-.23.14-.2.13-.21.13-.21.12Z"/>
          <path class="cls-7" d="M403.8,338.72l.23-.14.21-.13.22-.14.23-.14.25-.15.23-.14.26-.13.24-.12.22-.11.21-.12.27-.17.24-.15.25-.21.22-.14.2-.15.27-.16.24-.16.21-.12.21-.13.18-.17.1,0,0,.2.08.32.11.22,0,.21-.12.14-.18.17-.18.17-.19.15-.2.14-.19.15-.21.13-.2.09L407,338l-.23,0-.24-.07-.23-.12-.29-.25-.27.16-.24.11-.27.15-.2.14-.26.14-.22.1-.21.13-.21.13-.18.17Zm2.66-1,.24.11.24,0,.22-.11.21-.13.2-.12.21-.13.21-.13.19-.15.2-.14.12-.22v-.25l-.18-.35-.2.15-.19.15-.21.13-.23.14-.19.15-.21.12-.21.13-.22.14-.23.14-.23.14Z"/>
          <path class="cls-7" d="M407.06,339.52l-.18.2-.23-.16.08-.21.13-.07Z"/>
          <path class="cls-7" d="M411.8,339.62l.2-.2.15.32.12.26.2.24.14.22.31.4-.21.05-.18-.06-.07-.27-.16-.25-.36.26-.19.15-.21.12-.23.14-.2.13-.21.13-.21.13-.2.12-.21.13-.21.13-.25.15-.22.14-.21.13-.21.13-.26.2-.32.09-.11-.12,0-.17.27-.05.33-.16.21-.11.21-.13.22-.1.21-.13.21-.13.2-.12.21-.13.21-.13L411,341l.23-.14.21-.13.21-.13.2-.12.37-.25-.1-.15-.12-.24Z"/>
          <path class="cls-7" d="M412.63,342.87l.11.22,0,.24-.09.23-.14.23-.19.17-.2.12-.22.16-.2.13-.21.13-.23.14-.21.13-.29.12-.33.06-.22-.12-.22-.18-.15-.19,0-.29.15-.23.16-.19.23-.2.21-.16.23-.14.21-.12.22-.14.23-.14.21-.13.25-.15.26-.08.25.08Zm-.37-.18-.26,0-.25.1-.22.1-.21.13-.21.13-.2.13-.22.16-.18.17-.28.22-.13.2-.06.25,0,.23.21.15.24,0,.23-.08.24-.12.23-.14.2-.13.25-.15.21-.13.21-.13.2-.12.22-.3v-.25l-.06-.24Z"/>
          <path class="cls-7" d="M409,347.15l.23-.14.21-.13.22-.14.23-.14.25-.15.23-.14.26-.13.24-.12.22-.11.21-.13.26-.16.25-.16.25-.2.22-.14.2-.15.27-.17.24-.15.21-.13.21-.12.18-.17.1,0,0,.2.08.33.11.22,0,.21-.12.14-.18.17-.18.16-.19.15-.2.15-.19.15-.21.13-.2.09-.17.07-.23.06-.24-.08-.23-.12-.29-.24-.27.16-.24.11-.27.15-.2.14-.26.13-.22.11-.21.13-.21.12-.18.17Zm2.66-1,.24.11.24,0,.22-.1.21-.13.2-.13.21-.12.21-.13.19-.15.2-.15.12-.22v-.25l-.18-.35-.2.16-.19.15-.21.12-.23.14-.19.15-.21.13-.21.13-.22.14-.23.14-.23.14Z"/>
          <path class="cls-7" d="M413.15,347.23l-.3.17-.21.15-.24.21,0,.28.14.22.13.16.22,0,0,.18h-.28l-.23-.14-.13-.22-.12-.24.06-.26.2-.18.19-.17.24-.21.25-.15.24-.15.22-.13.26-.17.26-.13.24-.11.26-.08.25.1.2.18.11.24-.07.29-.17.21-.22.14-.25.15-.26.11-.25.1-.26-.06-.23-.14-.14-.23Zm.18-.1.13.22.22.18.27,0,.25-.1.27-.14.25-.15.17-.22-.08-.26-.19-.17-.22.05-.22,0-.28.14-.26.16Z"/>
          <path class="cls-7" d="M415.52,348.36l.34,0,.29.16.18.27.07.28-.17.22-.2.19-.24.14-.32,0-.27,0-.12.28-.22.21-.22.19-.25.16-.24.15-.3.05-.24-.05-.19-.2-.16-.3-.09-.32,0-.25h.16l0,.19.07.27.19.26.21.15.3,0,.24-.15.27-.16.24-.27.12-.33-.14-.26.12-.06.18.23.27.08.29,0,.27-.14.11-.28-.13-.26-.24-.15-.24.06Z"/>
          <path class="cls-7" d="M416.61,350.24l.25-.05h.25l.21.12.18.23.1.22,0,.25-.09.22-.15.21-.23.14-.25.15-.21.13-.22.14-.25.15-.23.15-.21.12-.22.11-.2.13-.14.18-.18.22-.15-.17.22-.26.17-.18h-.52l-.19-.17-.13-.21,0-.19.09-.26.2-.18.19-.18.25-.13.24-.08h.25l.28.08.15.18.16.22.2.2.15-.05.17-.07.21-.12.19-.15.21-.18.1-.2,0-.22-.24-.3h-.29l-.18.05Zm-.62,1.33-.18-.18-.19-.1-.24,0-.23.08-.23.14-.18.17-.09.23.1.22.25.16h.25l.29,0,.26-.12L416,352l.19-.13Z"/>
        </g>
        <g>
          <path class="cls-7" d="M269.66,158.48l.22-.19.22-.2.22-.19.2-.21.2-.18.2-.18.22-.23.2-.24.18-.16.2-.18.22-.16.21-.13.16.22.16.18.31.4.1.18-.2.18-.2.18-.2.21-.22.19-.21.19-.22.2-.18.16-.22.19-.2.18-.2.15-.18.16-.18.16-.09-.19.25-.15.2-.18.18-.19.18-.17.2-.17.22-.2.22-.19.18-.16.18-.2.22-.19.18-.24-.24-.2-.17-.23-.12-.19-.32.32-.22.19-.2.18-.22.19-.21.2-.19.16-.16.18-.2.18-.18.16-.18.16-.19.16Z"/>
          <path class="cls-7" d="M269.57,161.48l.2-.18.18-.16.2-.18.2-.18.21-.19.2-.18.24-.18.21-.15.2-.15.18-.16.24-.21.22-.19.2-.25.2-.18.16-.18.24-.21.22-.19.18-.16.18-.16.15-.2h.1v.2l.14.31.14.2.06.19-.09.16-.14.2-.15.2-.17.18-.16.18-.17.18L273,160l-.18.13-.15.1-.22.09-.25,0-.25-.08-.33-.19-.24.21-.21.14-.25.2-.16.17-.24.18-.2.15-.18.16-.18.16-.15.2Zm2.44-1.42.26.07.24,0,.2-.15.18-.16.18-.16.18-.16.18-.16.17-.18.16-.18.09-.24-.06-.24-.23-.32-.17.19-.17.18-.18.16-.2.18-.16.18-.19.16-.18.16-.2.18-.2.18-.2.18Z"/>
          <path class="cls-7" d="M272.92,161.7l-.15.22-.25-.12,0-.22.11-.08Z"/>
          <path class="cls-7" d="M277.6,161l.16-.23.2.29.17.24.23.19.18.2.38.33-.2.1-.19,0-.12-.25-.2-.21-.3.31-.17.18-.18.16-.2.18-.18.16-.18.16-.18.17-.19.16-.18.16-.18.16-.22.19-.2.18-.18.16-.18.16-.22.25-.3.15-.13-.11-.06-.15.26-.1.29-.22.2-.14.18-.16.2-.15.18-.16.18-.16.18-.16.18-.16.18-.16.22-.2.2-.17.18-.17.18-.16.18-.16.32-.31-.12-.13-.16-.21Z"/>
          <path class="cls-7" d="M279,164l.14.19,0,.25,0,.23-.1.26-.15.2-.18.16-.18.19-.18.16-.19.17-.2.17-.18.16-.26.18-.32.12-.24-.08-.25-.14-.18-.16-.08-.28.1-.26.13-.21.18-.23.19-.2.2-.18.18-.16.2-.18.2-.17L278,164l.22-.19.25-.12.25,0Zm-.4-.11-.26.07-.23.14-.19.14-.19.17-.18.16-.18.16-.18.19-.15.2-.24.28-.09.22v.25l.06.22.23.11.25,0,.21-.12.21-.16.2-.18.19-.16.21-.19.18-.17.19-.16.18-.16.16-.33,0-.24-.09-.24Z"/>
          <path class="cls-7" d="M276.15,168.87l.2-.18.18-.16.2-.18.2-.18.22-.19.2-.18.23-.18.22-.15.19-.15.19-.16.23-.21.22-.19.2-.25.2-.18.17-.18.23-.21.22-.19.18-.16.18-.16.15-.2h.1v.2l.14.31.14.2.06.19-.08.16-.15.2-.15.2-.17.18-.16.18-.17.18-.18.16-.18.13-.15.1-.22.09-.25,0-.25-.08-.33-.19-.24.21-.21.14-.24.2-.17.17-.24.18-.19.15-.19.16-.18.16-.15.2Zm2.45-1.42.25.07.24,0,.2-.15.18-.16.18-.16.19-.16.18-.16.16-.18.17-.18.08-.24-.05-.24-.24-.32-.17.19-.17.18-.18.16-.2.18-.16.18-.18.16-.18.16-.2.18-.2.18-.2.18Z"/>
          <path class="cls-7" d="M280.26,168.22l-.27.22-.18.19-.19.24v.29l.17.19.16.13h.23l.05.17-.27.05-.24-.09-.18-.2-.15-.21v-.27l.16-.2.17-.21.2-.25.21-.19.21-.19.2-.17.23-.21.23-.17.21-.15.24-.12.27,0,.22.14.16.21,0,.3L282,168l-.2.17-.21.19-.24.16-.23.14-.27,0-.25-.1-.17-.2Zm.15-.13.18.2.24.13.27,0,.23-.14.24-.19.22-.19.13-.24-.12-.24-.22-.14-.21.09-.21.08-.25.19-.23.2Z"/>
          <path class="cls-7" d="M282.79,168.92l.33-.1.31.11.22.23.12.26-.13.25-.16.22-.21.19-.31.09h-.27l-.08.29-.18.25-.18.23-.21.19-.22.19-.28.11h-.24l-.23-.16-.21-.27-.15-.3v-.25l.16,0,.07.17.12.26.23.23.23.1.29-.07.22-.19.23-.21.19-.31.06-.34-.18-.23.1-.08.22.19.28,0,.28-.08.25-.19.06-.29-.18-.23-.27-.11-.22.1Z"/>
          <path class="cls-7" d="M284.19,170.58l.23-.1.25,0,.23.08.21.2.15.2,0,.24,0,.24-.12.24-.2.17-.21.2-.19.16-.19.18-.22.19-.2.18-.18.16-.2.14-.18.16-.11.21-.13.25-.18-.15.17-.28.14-.22-.26,0-.26,0-.22-.13-.16-.18-.06-.19.05-.27.16-.21.16-.21.22-.17.22-.13.25,0,.29,0,.18.14.2.19.23.17.14-.08.15-.1.18-.16.17-.18.18-.21.05-.21-.05-.22-.28-.25-.3.07-.16.07Zm-.38,1.42-.21-.15-.2-.06-.24,0-.21.12-.2.18-.15.2-.05.23.13.2.28.12.24-.05.29-.09.23-.16.18-.16.16-.16Z"/>
        </g>
        <g>
          <path class="cls-7" d="M152.59,156.66l.29.2.08.13.15.2-.15.12-.07-.08-.16-.18-.21-.15-.22-.14-.27.05-.19.14-.15.21-.07.23.11.22.1.23.13.21.13.21.12.2.16.22.15.19.14.23.16.18.15.2.16.21.18.2.18.2.15.19.18.17.23.06h.27l.24-.12.16-.19.13-.24v-.26l.25,0-.05.25-.07.24-.14.25-.21.16-.21.13-.25,0-.27,0-.22-.21-.18-.2-.2-.18-.16-.18-.19-.22-.15-.2-.15-.19-.16-.21-.14-.2-.15-.19-.14-.2-.17-.22-.15-.23-.12-.22-.14-.25-.09-.21,0-.27.09-.24.25-.19.26-.14.29,0,.16.05Z"/>
          <path class="cls-7" d="M156.21,157.59l.31-.13.25.14.16.2.12.27,0,.29-.14.28-.28.22-.26.13-.26,0-.26-.08-.25-.2-.18-.24-.15-.25-.15-.27-.19-.34-.12-.27-.11-.26,0-.31,0-.28.16-.27L155,156l.2-.17.24-.15.29,0,.19.16.15.21.12.24.1.25,0,.31v.25l-.06.24Zm-.7.73.22-.22.25-.37.11-.34,0-.26v-.27l-.12-.24-.1-.26-.14-.21-.24-.12-.25.1-.25.18-.09.19-.07.25V157l0,.16.11.25.1.22.18.38Zm.09.12.09.12.17.19.26.08.26-.05.24-.12.15-.2,0-.31-.12-.23-.19-.18-.26,0-.23.13-.24.33Z"/>
          <path class="cls-7" d="M157.58,156.26l.19.29.18.19.22.22.29,0,.21-.15.14-.15,0-.22.17,0,0,.27-.11.24-.21.16-.23.13-.26,0L158,157l-.19-.18-.23-.22-.17-.23-.17-.23-.15-.21-.19-.25-.15-.24-.14-.22-.1-.26.07-.25.17-.22.22-.14.3,0,.23.15.16.21.17.23.13.25.12.24,0,.26L158,156l-.21.15Zm-.11-.16.2-.16.16-.23v-.28l-.12-.23-.17-.26-.17-.23-.23-.16-.24.11-.16.2.07.22.06.22.17.26.18.24Z"/>
          <path class="cls-7" d="M158,153.52l.23-.15.26-.12.2-.14.19-.15.47-.33.19.26-.3.09-.31.17.19.33.17.18.14.2.16.18.14.23.13.21.19.21.13.21.18.24.14.19.2.32-.07.13h-.18l-.17-.35-.15-.2L160,155l-.17-.21-.13-.2-.15-.25-.13-.21-.16-.18-.17-.24-.15-.19-.18-.21-.25.07-.21.16-.07.24Z"/>
          <path class="cls-7" d="M161.06,151.54l.2-.15.23-.07.16.23.16.22.18.23.12.21.16.25.15.19.14.2.18.23.14.23.14.19.26.32-.15.15-.17-.18-.16-.22-.14-.19-.13-.21-.14-.19-.15-.2-.15-.19-.16-.22-.16-.21-.14-.23-.24-.31-.21.2L161,152l.19.25.12.21.13.21.17.2.12.22.14.2.15.19.14.2.11.24.1.17.07.23,0,.24-.24.24-.23-.19.21-.16.05-.17-.12-.36-.12-.24-.12-.24-.14-.2-.15-.19-.14-.19-.15-.2-.18-.23-.16-.22-.14-.19-.09-.15Z"/>
          <path class="cls-7" d="M162.43,150.92l-.08-.24,0-.25.11-.22.21-.2.21-.12h.25l.23.07.22.14.16.21.18.24.14.19.16.21.18.24.16.21.15.2.12.21.15.19.19.12.24.15-.16.17-.27-.19-.21-.16,0,.26v.27l-.15.2-.19.15-.19,0-.27-.07-.2-.18-.2-.17-.14-.24-.11-.23,0-.25.06-.29.16-.16.2-.19.19-.21-.06-.15-.09-.16-.14-.19-.17-.18-.19-.2-.21-.07-.23,0-.27.26,0,.3.06.17Zm1.37.5-.16.19-.08.2v.24l.1.23.16.21.19.16.23.07.21-.12.14-.26,0-.25-.06-.29-.15-.25-.14-.19-.15-.17Z"/>
          <path class="cls-7" d="M164.08,148.82l.18.11.2.18.15.2.19.28.17.2.18-.1.17-.12.11-.18-.18-.19-.14-.19-.19-.26-.18-.18.1-.14.16.17.14.19.2.22.18.2.16.18.19.22.18.2.16.21.15.2.19.25.17.18.14.19.07.26-.11,0-.13-.21-.14-.19-.15-.2-.14-.19-.17-.18-.18-.22-.16-.18-.17-.18-.23.26-.23.11.15.24.16.22.14.19.15.2.16.21.14.2.18.23.08.16-.13.09-.23-.38-.14-.19-.19-.26-.18-.23-.17-.23-.21-.24-.2-.22-.13-.19-.16-.18-.19-.22-.16-.22-.18-.2Z"/>
          <path class="cls-7" d="M166.27,147.44l.21-.13h.24l.23.07.24.12.19.17.14.19.18.2.15.2.15.19.16.22.14.19.15.28.09.33-.1.23-.15.23-.18.17-.29.06-.24-.12-.21-.15-.21-.2-.18-.2-.16-.22-.15-.19-.16-.22-.16-.21-.14-.19-.18-.24-.1-.25.06-.26Zm-.15.39,0,.26.12.24.13.21.15.19.14.2.15.19.18.2.18.17.26.25.21.11.25,0,.22,0,.14-.23v-.24l-.11-.22-.14-.23-.16-.22-.15-.19-.17-.23-.15-.2-.14-.19-.15-.2-.32-.19-.24,0-.24.08Z"/>
          <path class="cls-7" d="M169.84,147.37l.31-.13.25.14.16.21.11.27,0,.28-.13.29-.29.21-.26.13-.26,0-.26-.07-.24-.21-.18-.24-.15-.24-.15-.28-.19-.34-.12-.26-.11-.27,0-.31.06-.28.16-.26.17-.25.19-.18.25-.15.29.05.18.15.16.21.12.24.1.25,0,.31V147l-.06.23Zm-.7.73.22-.22.24-.37.12-.33,0-.27v-.27l-.12-.24-.09-.25-.15-.22-.23-.12-.25.1-.25.18-.1.19-.06.25v.27l0,.16.12.26.1.21.17.39Zm.08.12.09.12.18.2.26.07.26-.05.24-.12.15-.2,0-.31-.12-.22-.19-.19-.26,0-.23.14-.24.33Z"/>
          <path class="cls-7" d="M171.55,144.22l.1.25-.24.11-.1-.22-.24-.1-.16,0-.25.08-.18.16-.09.19.05.19.09.22.15.24.2.22.14.19.15.2.18.2.19.21.29.28.27.05.24,0,.2-.15.16-.18,0-.16.17,0v.24l-.15.2-.18.17-.24.15-.24.06-.22,0-.21-.12-.19-.16-.18-.2-.17-.2L171,146l-.14-.2-.15-.19-.14-.2-.13-.21-.14-.19-.14-.26,0-.28.18-.16.21-.16.22-.16.33,0,.25.09Z"/>
          <path class="cls-7" d="M171.87,142.81l.26.14.15.19.15.2.14.19.13.21.14.2.16.24-.07-.49,0-.17.06-.3,0-.25v-.24l.11-.23.34.14-.18.21-.06.39,0,.26v.27l0,.29h.27l.26.09.23.13.23.11.25.16.19.14.18.17.25.07-.07.25-.26-.09-.2-.24-.22-.1-.23-.14-.2-.15-.26-.14-.21,0-.22.07.08.22.15.23.1.2.17.18.17.18.26.31-.21.13-.16-.21-.14-.19-.15-.2-.14-.19-.14-.23-.13-.21-.16-.25-.12-.21-.15-.19-.17-.23-.15-.2-.16-.21-.33-.28Z"/>
          <path class="cls-7" d="M174.13,141.52l.13.16.2.25.16.2.15.21.18.23.13.23.16.2.17.23.19.25.22.21.3.23.28-.09.08-.18.1-.37-.1-.31-.15-.31-.14-.21-.16-.21-.16-.21-.15-.21-.16-.21-.16-.21-.17-.23.1-.26.18.23.17.23.15.21.19.25.19.25.16.28.16.22.23.22.22.15.23.15.21.16-.14.21-.25-.23-.2-.19-.3-.28.22.35.09.32-.07.26-.1.25-.2.18-.22.14-.27-.08-.17-.11-.15-.2-.17-.23-.16-.21-.16-.21L175,143l-.15-.24-.17-.23-.18-.23-.17-.19-.21-.2-.22-.12Z"/>
          <path class="cls-7" d="M175.45,138.84l.17.08.31,0,.3-.08.21-.24.07-.26,0-.3h.17v.54l-.07.21-.2.2-.24.15-.28.06-.31-.09-.22-.1Zm1,1,.18.19.16.21.2.27.2.23.2.26.15.24.2.27.3.36.19.22.26.1h.28l.2-.32-.06-.3-.19-.25-.24-.29-.16-.21-.2-.24-.18-.24-.17-.22-.17-.21-.4-.53.19-.11.12.21.19.22.2.27.18.25.21.26.18.19.2.24.18.19.23.14.23.17.24.08.18,0,0,.2-.26,0-.2,0-.26-.22.13.42,0,.2-.2.23-.26.17-.26,0-.26-.1-.22-.22-.18-.24-.14-.23-.19-.3-.22-.28-.18-.26-.22-.29-.27-.32-.2-.27Z"/>
          <path class="cls-7" d="M181.68,140l-.17-.23-.18-.24-.17-.23-.2-.22-.16-.21-.16-.22-.2-.24-.23-.22-.15-.19-.16-.22-.14-.23-.11-.22.23-.14.2-.15.42-.27.19-.08.16.21.16.21.19.22.18.23.17.24.18.23.14.2.18.23.16.21.12.21.15.2.15.19-.2.08-.13-.27-.16-.21-.18-.2-.14-.2-.17-.21-.17-.23-.17-.24-.15-.19-.18-.2-.17-.23-.22-.2-.22.22-.25.16-.2.09.29.35.18.24.16.21.17.23.18.24.14.19.17.18.16.21.14.2.15.19.15.2Z"/>
          <path class="cls-7" d="M184.66,140.33l-.16-.22-.15-.19-.16-.21-.16-.22-.17-.23-.16-.21-.16-.25-.14-.23-.12-.21-.15-.19-.19-.26-.17-.23-.23-.22-.16-.22-.17-.18-.19-.25-.17-.23-.15-.2-.14-.19-.19-.17,0-.09h.2l.32-.11.21-.13.2,0,.15.1.19.16.18.17.17.18.16.18.17.18.14.19.11.19.09.16.08.23,0,.25-.1.24-.22.31.18.25.13.23.18.26.16.18.15.25.13.21.15.2.14.19.19.16Zm-1.2-2.56.08-.25v-.24l-.12-.21-.15-.19-.14-.2-.15-.19-.15-.2-.16-.18-.17-.18-.22-.1-.25,0-.34.2.18.19.16.18.15.19.16.22.16.18.15.19.15.19.16.22.16.21.16.22Z"/>
          <path class="cls-7" d="M185.16,137l.22.16-.15.25-.21-.07-.08-.12Z"/>
        </g>
        <g>
          <path class="cls-7" d="M267.71,346.22l.09,0,.15.05.17.05.16,0,.16.05.15,0,.16,0,.18.05.18.05.16,0,.15,0,.17,0,.16.05.18,0,.16,0,.15.05.18,0,.1-.11-.14-.21-.14-.09-.15-.08-.16-.1-.15-.11-.15-.07-.15-.1-.13-.07-.15,0-.18-.05-.16,0-.17-.05-.16,0-.16,0-.17-.05-.18-.05-.15,0,0-.16.25.07.16.05.17.05.18.05.16.05.16,0,.15.05.16,0,.15,0,.16,0,.17.05.16.05.15,0,.16.05.16,0,.28.1.18,0,0,.14h-.16l-.16-.05-.16,0-.15-.05-.16,0-.15-.05-.19,0,.17.11.15.06.15.07.14.08.17.1.11.1.1.13v.16l-.06.15-.14.08h-.14l-.15-.05-.16,0-.16,0-.16,0-.15,0-.16-.05-.15,0-.15-.06-.16-.05-.16,0-.17-.05-.15-.05-.17,0h-.16l-.16,0-.15-.05-.16,0Z"/>
          <path class="cls-7" d="M268.78,344.86l.14,0,.18,0,.16,0,.21.07.18,0,.05-.12,0-.14v-.14l-.17,0-.16,0-.2-.06-.17,0v-.12l.15,0,.16,0,.19,0,.17,0,.16,0,.2,0,.17,0,.17.05.16,0,.2.06.16,0,.16.05.14.1-.05.06-.15-.05-.15-.05-.16,0-.16,0-.16,0-.18,0-.16,0-.16,0,0,.23-.08.15.18.07.17.05.15,0,.16,0,.17.05.16,0,.19.06.1.05,0,.1-.27-.11-.16,0-.2-.06-.19,0-.19-.06-.2,0-.2,0-.15,0-.15,0-.19,0-.17,0-.18,0Z"/>
          <path class="cls-7" d="M269.94,342.77l.15.1L270,343l-.14-.08-.17.05-.08.07-.1.15,0,.16,0,.13.1.08.14.08.17.07.2,0,.15,0,.16.05.17,0,.19,0,.27,0,.16-.08.12-.12,0-.15v-.17l0-.1.08-.08.1.12v.17l0,.16-.06.18-.11.13-.14.06-.16,0h-.16l-.18,0-.17,0-.18,0-.15,0-.16-.05-.15,0-.16-.06-.15,0-.18-.08-.09-.16,0-.16,0-.18.05-.17.16-.15.17-.06Z"/>
          <path class="cls-7" d="M269.66,342.06l.06-.18.1-.17,0-.15.05-.16L270,341l.21.06-.13.17-.09.21.23.1.16,0,.16.05.16,0,.16.06.16.07.19,0,.15.06.19.06.15,0,.24.09v.1l-.09.08-.23-.12-.16,0-.15-.07-.17-.05L271,342l-.19-.07-.15-.06-.16,0-.19-.06-.15,0-.18,0-.1.14,0,.17,0,.15Z"/>
          <path class="cls-7" d="M270.24,340.24l.14,0,.2.05.17,0,.17.05.18.06.17.06.16,0,.19.05.19.06.21,0h.25l.12-.16,0-.13-.1-.23-.18-.13-.21-.1-.16-.06-.16-.05-.17-.05-.17-.05-.17-.05-.16,0-.19-.06-.05-.18.19.06.18.05.17,0,.2.06.2.05.2.09.17,0,.22,0h.53V340l-.23,0-.18,0-.28,0,.26.1.18.13.07.17.05.18,0,.17-.06.17-.17.06h-.14l-.16-.05-.19-.05-.16-.05-.17,0-.17-.06-.17-.07-.18-.05-.19-.05-.17,0-.19,0-.17,0Z"/>
          <path class="cls-7" d="M270.65,338.62l.06-.17.1-.17,0-.16,0-.16.11-.36.21.06-.12.17-.1.21.23.1.16,0,.16.05.16,0,.17.06.15.06.19,0,.15.06.19,0,.15.05.24.08v.11l-.09.07-.23-.12-.16,0-.15-.06-.17-.05-.15-.06-.19-.07-.15-.06-.16,0-.18-.06-.16,0-.18,0-.1.14-.05.17.06.15Z"/>
          <path class="cls-7" d="M271.1,336.92l.16,0h.34l.18,0h.16l.19,0,.16,0h.16l.17,0,.16,0,.2,0h.39l-.22-.14-.15-.06-.15-.07-.15-.06-.15-.08-.14-.08-.16-.06-.15-.06-.16,0-.14-.1-.14-.1-.14,0-.1-.13.17,0,.16.05.15.07.14.08.15.08.16.09.15.06.15.07.16,0,.15.06.15.06.15.08.14.09.16.1.16.08.15.07.14.08.15.08.16.08.16.11.14.08,0,.21-.11,0-.12-.21-.15-.08-.15-.08-.18-.08-.15-.1-.15-.07-.17-.07H273l-.16,0h-.17l-.17,0h-.2l-.17,0-.18,0h-.57l-.19,0Z"/>
          <path class="cls-7" d="M271.55,335.49l.07-.18.09-.17.05-.15,0-.16.12-.36.21.06-.13.17-.1.21.24.1.16,0,.15,0,.16,0,.17.06.15.07.19,0,.16.06.18.06.16,0,.23.09,0,.1-.09.08-.24-.12-.15,0-.16-.07-.17,0-.15-.06-.18-.07-.15-.06-.16,0-.19-.06-.16,0-.18,0-.1.14-.05.17.06.15Z"/>
          <path class="cls-7" d="M272.76,333l.15.09-.08.15-.14-.07-.17,0-.08.07-.1.15,0,.16,0,.13.1.08.14.09.18.06.19,0,.15.05.16,0,.18,0,.18,0,.27,0,.17-.07.11-.12.05-.16v-.16l0-.1.08-.09.1.13v.17l0,.16-.06.17-.11.13-.14.06-.16,0-.16,0-.18,0-.17,0-.18-.05-.15-.05-.16,0-.15-.05-.16-.06-.15,0-.18-.09-.09-.16,0-.16.05-.17,0-.17.16-.16.17-.05Z"/>
          <path class="cls-7" d="M272.37,332.11l.19,0,.16,0,.15.05.16,0,.15.06.16.05.18.07-.24-.23,0-.11-.09-.19-.12-.11-.1-.13,0-.17.24-.06v.18l.12.24.07.15.11.15.13.15.14-.11.18-.06.17,0,.16,0,.2,0h.33l.16-.06.06.17-.18.05-.2,0-.16,0-.17,0h-.17l-.19,0-.14.06-.09.13.14.08.17.06.14.07.16,0,.16,0,.27.06-.06.15-.17,0-.16,0-.15-.05-.16,0-.17-.07-.15-.06-.18-.07-.15-.06-.16,0-.19-.06-.15,0-.17-.05-.3,0Z"/>
          <path class="cls-7" d="M273.05,330.51l.14,0,.2,0,.17.05.17.05.18.05.16.07.17,0,.18.06.2,0,.21,0h.25l.11-.16,0-.13-.1-.24-.18-.12-.21-.11-.16-.06-.17,0-.16-.05L274,330l-.17,0-.17-.05-.18-.05-.05-.18.18.05.19.06.16.05.2.05.21.06.2.08.17.06.21,0h.54v.17l-.23,0-.18,0-.28,0,.26.1.18.13.07.17,0,.18,0,.17-.06.16-.17.07H275l-.17-.05-.18,0-.17-.05-.16-.05-.17-.06-.17-.07-.19-.05-.18-.06-.17,0-.19,0-.17,0Z"/>
          <path class="cls-7" d="M272.68,328.55l.12,0,.18-.11.13-.16V328l-.06-.17-.1-.18.1-.06.1.13.11.16.05.14,0,.19-.07.18-.13.14-.2.08-.16,0Zm.91.15.17,0,.17,0,.22.06.2,0,.21.06.18.07.21.06.31.08.19,0,.18-.05.14-.12,0-.25-.15-.13-.2-.06-.25-.06-.17-.05-.2,0-.2-.06-.17-.05-.18,0-.43-.12.06-.14.15.07.19,0,.21.06.2.06.22.06.17,0,.2.05.18,0,.17,0h.19l.16-.05.09-.09.1.09-.12.13-.13.06-.23,0,.24.17.06.12v.2l-.07.2-.12.12-.18.05-.21,0-.19-.06-.17-.06-.22-.08-.23-.07-.2-.06-.23-.07-.28-.06-.22-.06Z"/>
          <path class="cls-7" d="M276.46,326.63l-.18-.05-.19-.05-.19-.06-.19,0-.17-.05-.17-.05-.21,0-.21,0-.16,0-.17-.05-.17-.07-.14-.07.06-.17.05-.15.11-.32.07-.12.17.05.17.05.19,0,.19,0,.19.05.19.06.15,0,.19.06.17.05.15.06.16,0,.15.05-.07.11-.18-.08-.17,0-.17,0-.16,0-.17,0-.19-.06-.19-.05-.15-.05-.18,0-.18,0-.2,0,0,.21-.07.18-.07.13.3.07.19.05.17,0,.19.06.18.05.16.05.16,0,.17.05.16,0,.15.05.16,0Z"/>
          <path class="cls-7" d="M278.19,325.62l-.17-.05-.15-.05-.18,0-.17-.05-.18-.05-.18-.05-.18-.07-.17-.06-.15-.06-.15-.05-.21-.06-.18,0-.21,0-.18-.05-.16,0-.2-.06-.19-.05-.15-.05-.16,0h-.16l0-.06.11-.08.13-.18.06-.16.09-.1h.12l.16,0h.17l.16,0,.16,0,.16,0,.15,0,.14.06.11.05.13.09.08.15,0,.17V325l.2.07.16.06.2.07.15,0,.19.07.15.06.16,0,.15.05h.17Zm-1.67-.88,0-.17-.1-.13-.15-.06-.16,0-.15,0-.16,0-.15-.05-.17,0-.16,0-.16,0-.12.12-.09.24.17,0,.16,0,.15,0,.17.05.16,0,.16,0,.16.05.17,0,.17.05.17,0Z"/>
          <path class="cls-7" d="M277.12,323.64h.19l0,.19-.14.05-.09,0Z"/>
        </g>
        <polyline class="cls-3" points="498.12 470.96 359.36 254.72 336.36 224.25 273.62 154.27 228.35 107.75 144.81 0"/>
        <path class="cls-3" d="M489.73,470.88c-4,.47-8.72,3.41-11.94,7.56S471,489.22,471,494.91s-.38,17.26,4.93,21.43,13.95,8.34,20,6.26,13.6-8.73,14.93-14.6,1.52-18.4,0-23.9S505.28,469,489.73,470.88Z"/>
        <path class="cls-3" d="M478.36,440.17c4.57,7.13,5.68,16.06,6.25,19.47s-.43,9.5-1.45,13.85"/>
        <path class="cls-3" d="M490.11,523.15c2.85,3.24,3.7,12.25,3.32,16"/>
        <path class="cls-3" d="M497.48,539.19s.71-14.21,6.62-21.6"/>
        <path class="cls-3" d="M511.85,492.83c0,2.84,2.15,6.63,6.89,7.77L567,512.17"/>
        <path class="cls-3" d="M510.34,509.42c2.15-2.56,4-3.89,11.06-2.37s44.71,11.19,44.71,11.19"/>
        <path class="cls-3" d="M501.58,472.19c2.75.16,6.81-1.49,8.76-8.91s14.47-67.16,14.47-67.16L582,224.25,578.41,165s-7-26.24-7-27.74,1.5-24.5,1.5-24.5L558.82,0"/>
        <polyline class="cls-3" points="510.34 482.65 528.23 398.4 585.23 225.77 582.01 163.13 574.41 136.75 576.41 109.75 563.41 0"/>
        <line class="cls-3" x1="472.51" y1="511.02" x2="439.51" y2="539.19"/>
        <polyline class="cls-4" points="348.18 507.95 354.12 516.34 357.04 529.99 380.89 537.01"/>
        <line class="cls-4" x1="387.59" y1="539.89" x2="412.15" y2="526.78"/>
        <polyline class="cls-4" points="407.82 541.18 419.01 504.01 440.24 508.94 440.24 523.15 452.94 527.73 460.53 536.25 475.32 540.42 480.63 534.73"/>
        <line class="cls-4" x1="331.64" y1="518.18" x2="337.66" y2="537.58"/>
        <polyline class="cls-4" points="339.45 513.17 349.04 477.08 317.28 467.62"/>
        <polyline class="cls-4" points="293.7 438.51 299.43 417.41 307.2 419.45 307.2 426.57 314.15 428.68 318.83 419.32 330.08 422.28"/>
        <polyline class="cls-4" points="258.25 480.26 267.01 482.52 273.38 492.76 293.29 498.83"/>
        <polyline class="cls-4" points="219.24 504.17 252.61 513.75 251.96 532.96 258.25 540.04"/>
        <polyline class="cls-4" points="271.43 543.42 278.12 521.97 301.17 528.51"/>
        <line class="cls-4" x1="114.66" y1="508.94" x2="217.09" y2="539.89"/>
        <line class="cls-4" x1="242.48" y1="511.02" x2="242.48" y2="538.52"/>
        <line class="cls-4" x1="234.01" y1="508.94" x2="227.56" y2="542.7"/>
        <line class="cls-4" x1="229.68" y1="531.59" x2="242.48" y2="534.86"/>
        <path class="cls-4" d="M173.38,539.41l11.07-37.29c1.39-4.81,3.54-8,9.11-6.83s15.32,3.54,15.32,3.54l4.4,6.07,5.3,1.55"/>
        <line class="cls-4" x1="208.88" y1="498.83" x2="211.5" y2="483.26"/>
        <line class="cls-4" x1="191.53" y1="495.06" x2="196.76" y2="478.97"/>
        <line class="cls-4" x1="194.4" y1="486.22" x2="210.26" y2="490.6"/>
        <path class="cls-4" d="M172.24,471.85s-1.94,6.38-2.7,8.65-1.77,2.78-4.43,2-7.77-2.32-10.8-3.41c-2.7-1-2.92-1.88-2-4.59,1.11-3.28,2.62-7.71,2.62-7.71"/>
        <polyline class="cls-4" points="151.08 495.06 173.08 501.11 184.45 502.12 217.09 511.61"/>
        <polyline class="cls-4" points="173.08 501.11 173.08 510.21 168.7 525.27"/>
        <line class="cls-4" x1="166.78" y1="482.85" x2="162.03" y2="497.66"/>
        <path class="cls-4" d="M131.25,488.41l-7.19-3.68-1.71-4.61,2.85-9.24,18.7,5.45,3,5.59s-3,18.23-3.6,22.25-.86,6.67,3.6,8.09,23.5,7.14,23.5,7.14"/>
        <path class="cls-4" d="M151.08,513.56c2.66-7.27,11.59-4.62,9.92,3"/>
        <line class="cls-4" x1="143.9" y1="476.33" x2="147.51" y2="464.66"/>
        <line class="cls-4" x1="128.71" y1="471.67" x2="132.4" y2="460.27"/>
        <line class="cls-4" x1="186.35" y1="441.77" x2="182.37" y2="453.76"/>
        <polyline class="cls-4" points="141.78 397.77 137.94 410.53 143.12 423.79 141.35 430.51"/>
        <line class="cls-4" x1="239.31" y1="435.76" x2="264.26" y2="443.11"/>
        <polyline class="cls-3" points="564.85 410.73 511.85 393.85 395.12 212.01 354.99 154.67"/>
        <polyline class="cls-4" points="284.74 162.69 296.59 166.12 335.2 212.01 336.36 224.25 320.65 221.71 254.99 146.02 245.5 153.5"/>
        <polyline class="cls-4" points="249.7 193.47 236.03 173.52 250.73 160.24 245.5 153.5 226.93 168.97 225.22 177.69 236.79 192.29 245.03 186.66"/>
        <polyline class="cls-4" points="199.88 200.63 192.23 196.78 173.75 175.03 201.44 153.5 210.09 157.4 215.57 176.36 211.38 191.72 199.88 200.63 206.45 233.61"/>
        <polyline class="cls-4" points="173.75 175.03 167.58 175.98 157.58 163.13"/>
        <polyline class="cls-4" points="195.56 216.75 193 202.91 123.14 216.74"/>
        <polyline class="cls-4" points="125.93 230.31 141.03 227.37 144.65 246.39"/>
        <line class="cls-4" x1="142.74" y1="236.47" x2="175.73" y2="229.64"/>
        <polyline class="cls-4" points="167.2 241.78 170.23 255.81 193.93 250.69 191.09 237.04"/>
        <line class="cls-4" x1="168.91" y1="248.98" x2="192.42" y2="243.86"/>
        <line class="cls-4" x1="138.95" y1="247.47" x2="147.48" y2="287.85"/>
        <line class="cls-4" x1="316.8" y1="247.47" x2="324.96" y2="259.79"/>
        <line class="cls-4" x1="274.73" y1="249.12" x2="278.69" y2="259.79"/>
        <line class="cls-4" x1="310.21" y1="182.3" x2="408.63" y2="118.25"/>
        <line class="cls-4" x1="338.27" y1="164.99" x2="375.77" y2="226.83"/>
        <polyline class="cls-3" points="332.52 26.73 455.22 174.28 581.55 216.71"/>
        <polyline class="cls-4" points="326.29 172.38 365.54 219.4 369.67 216.77"/>
        <polyline class="cls-4" points="371.41 200.06 379 209.35 426.97 178.26"/>
        <polyline class="cls-4" points="437.59 189.82 426.97 178.26 411.61 156.26"/>
        <polyline class="cls-4" points="428.61 180.04 437.59 173.04 426.97 157.21"/>
        <line class="cls-4" x1="415.77" y1="162.21" x2="379.79" y2="189.82"/>
        <polyline class="cls-4" points="347.21 159.47 358.71 176.02 366.1 170.54"/>
        <polyline class="cls-4" points="333.29 180.77 327.8 186.6 340.97 205.33 335.2 212.01"/>
        <line class="cls-4" x1="336.36" y1="198.78" x2="343.1" y2="193.47"/>
        <polyline class="cls-4" points="321.86 175.12 299.56 151.14 282.63 164.33"/>
        <polyline class="cls-4" points="364.16 262.21 364.16 277.62 389.81 319.71 460.15 428.91 473.59 432.75"/>
        <polyline class="cls-4" points="370.27 331.53 439.11 449.23 441.38 459.13 432.28 490.6 429.31 506.41 436.26 527.73 428.48 534.54 432.84 540.32"/>
        <path class="cls-4" d="M411.43,401.92c-.15-.26,5.11-18.75,5.11-18.75l8.33-9"/>
        <polyline class="cls-4" points="397.88 378.74 404.6 357.25 414.5 358.05"/>
        <line class="cls-4" x1="411.43" y1="357.8" x2="405.83" y2="377.47"/>
        <line class="cls-4" x1="427.01" y1="377.47" x2="420.52" y2="400.49"/>
        <polyline class="cls-4" points="445.72 406.51 438.73 411.86 433.99 425.29 425.11 425.29"/>
        <line class="cls-4" x1="431.52" y1="425.29" x2="445.72" y2="446.52"/>
        <line class="cls-4" x1="447.54" y1="409.34" x2="439.51" y2="437.23"/>
        <polyline class="cls-4" points="417.13 411.66 412.15 414.52 406.94 438.28 439.11 449.23 445.72 446.52 481.82 447.44"/>
        <polyline class="cls-4" points="404.15 389.99 398.59 395.56 391.01 424.63"/>
        <polyline class="cls-4" points="408.83 429.94 357.63 414.52 333.37 414.39"/>
        <polyline class="cls-4" points="387.72 361.42 379.76 390.12 398.59 395.56"/>
        <line class="cls-4" x1="323" y1="324.26" x2="359.41" y2="337.41"/>
        <polyline class="cls-4" points="362.82 335.51 361.43 350.55 356.24 359.15"/>
        <line class="cls-4" x1="345.37" y1="370.53" x2="355.74" y2="374.07"/>
        <polyline class="cls-4" points="382.79 352.45 385.32 350.43 389.24 333.49"/>
        <line class="cls-4" x1="316.05" y1="383.17" x2="339.68" y2="390.12"/>
        <line class="cls-4" x1="296.83" y1="288.23" x2="289.88" y2="313.14"/>
        <polyline class="cls-4" points="294.56 296.95 303.53 299.74 305.93 290.51"/>
        <line class="cls-4" x1="310.1" y1="319.96" x2="313.01" y2="310.23"/>
        <line class="cls-4" x1="293.17" y1="370.65" x2="297.46" y2="355.99"/>
        <line class="cls-4" x1="355.74" y1="238.93" x2="425.52" y2="346.76"/>
        <polyline class="cls-4" points="402.89 322.36 414.65 315.03 406.81 302.26 428.8 287.85 436.64 300.37"/>
        <line class="cls-4" x1="412.24" y1="310.99" x2="434.11" y2="296.96"/>
        <polyline class="cls-4" points="447.26 293.67 433.99 302.39 444.1 318.44 457.75 310.1"/>
        <polyline class="cls-4" points="442.08 315.79 423.86 327.46 416.42 332.22"/>
        <line class="cls-4" x1="446.88" y1="316.8" x2="457.63" y2="333.49"/>
        <polyline class="cls-4" points="468.62 327.04 455.35 334.88 490.87 389.61 503.64 381.27"/>
        <polyline class="cls-4" points="492.14 388.73 499.34 402 482.4 412.49 478.61 411.36 465.46 419.95"/>
        <path class="cls-4" d="M457.75,408.32c.38-.12,12.52-7.83,12.52-7.83L471.4,398l17.45-11.51"/>
        <polyline class="cls-4" points="441.95 382.79 459.02 372.3 466.85 377.73 478.23 369.89"/>
        <line class="cls-4" x1="480.63" y1="373.69" x2="494.92" y2="368"/>
        <polyline class="cls-4" points="485.18 410.6 481.64 400.99 493.91 392.39"/>
        <polyline class="cls-4" points="511.85 393.85 503.01 430.44 490.87 427.92 484.8 419.45 482.4 412.49"/>
        <polyline class="cls-4" points="434.84 372.36 447.54 363.95 449.03 361.17 436.13 339.56 429.82 336.9 423.86 327.46"/>
        <line class="cls-4" x1="447.54" y1="363.95" x2="454.29" y2="375.2"/>
        <line class="cls-4" x1="449.03" y1="361.17" x2="465.46" y2="350.97"/>
        <line class="cls-4" x1="436.44" y1="331.53" x2="450.92" y2="323.07"/>
        <line class="cls-4" x1="418.88" y1="282.73" x2="434.11" y2="273.82"/>
        <line class="cls-4" x1="400.24" y1="246.64" x2="412.4" y2="238.93"/>
        <path class="cls-4" d="M417.79,247.32,444.1,230c4.55-2.91,8.34-4.43,11.88,1.14s22.63,35.39,24.65,37.92,1.77,3.85,1.9,7,0,4.65,2.4,7.68,3.67,5.44,3.41,9.17S487,313,486.57,316.8s-1,8,4.43,11,10.74,7.46,12.64,8.72,4.17,3.29,2.65,7.71-9.6,26-9.6,26l-150-4.75-8.25-2.55,2.05-7.49,9,.14"/>
        <line class="cls-4" x1="383.63" y1="391.24" x2="380.99" y2="400.49"/>
        <line class="cls-4" x1="404.98" y1="462.68" x2="437.6" y2="472.2"/>
        <line class="cls-4" x1="418.88" y1="475.19" x2="428.48" y2="445.61"/>
        <line class="cls-4" x1="432.84" y1="488.68" x2="456.87" y2="495.92"/>
        <polyline class="cls-4" points="551.61 406.51 540.8 440.17 540.8 456.36 534.66 481.05"/>
        <line class="cls-4" x1="511.94" y1="475.13" x2="563.94" y2="488.68"/>
        <polyline class="cls-4" points="550.54 456.83 545.54 477.72 564.85 482.65"/>
        <line class="cls-4" x1="558.96" y1="487.38" x2="553.69" y2="508.97"/>
        <line class="cls-4" x1="556.51" y1="497.42" x2="567.03" y2="500.35"/>
        <g>
          <path class="cls-8" d="M249.73,349a2.15,2.15,0,1,0-2.15,2.15A2.15,2.15,0,0,0,249.73,349Z"/>
          <path class="cls-8" d="M263.47,307.5a2.15,2.15,0,1,0-2.15,2.15A2.15,2.15,0,0,0,263.47,307.5Z"/>
          <path class="cls-8" d="M256.35,318.28a2.15,2.15,0,1,0-2.15,2.14A2.15,2.15,0,0,0,256.35,318.28Z"/>
          <path class="cls-8" d="M237.15,307.5a2.15,2.15,0,1,0-2.15,2.15A2.15,2.15,0,0,0,237.15,307.5Z"/>
          <path class="cls-8" d="M244.51,317.48a2.15,2.15,0,1,0-2.15,2.15A2.15,2.15,0,0,0,244.51,317.48Z"/>
          <path class="cls-8" d="M179.05,328.78a2.15,2.15,0,1,0-2.15,2.14A2.15,2.15,0,0,0,179.05,328.78Z"/>
          <path class="cls-8" d="M222.06,312.8a2.15,2.15,0,1,0-2.15,2.15A2.15,2.15,0,0,0,222.06,312.8Z"/>
          <path class="cls-8" d="M205.48,318.28a2.15,2.15,0,1,0-2.15,2.14A2.15,2.15,0,0,0,205.48,318.28Z"/>
          <path class="cls-8" d="M228.35,342a2.15,2.15,0,1,0-2.15,2.15A2.15,2.15,0,0,0,228.35,342Z"/>
          <path class="cls-8" d="M248.87,339a1.29,1.29,0,1,0-1.29,1.28A1.29,1.29,0,0,0,248.87,339Z"/>
          <path class="cls-8" d="M213.27,319.94a1.29,1.29,0,1,0-1.28,1.28A1.28,1.28,0,0,0,213.27,319.94Z"/>
          <path class="cls-8" d="M190.14,332.21a1.29,1.29,0,1,0-1.28,1.28A1.28,1.28,0,0,0,190.14,332.21Z"/>
          <path class="cls-8" d="M202,337.1a1.29,1.29,0,1,0-1.29,1.28A1.28,1.28,0,0,0,202,337.1Z"/>
          <path class="cls-8" d="M237.12,342a1.06,1.06,0,0,0-2.12,0,1.06,1.06,0,0,0,2.12,0Z"/>
          <path class="cls-8" d="M175.86,317.48a1.06,1.06,0,1,0-1.05,1A1.05,1.05,0,0,0,175.86,317.48Z"/>
          <path class="cls-8" d="M240,346a1.06,1.06,0,1,0-1.06,1.06A1.07,1.07,0,0,0,240,346Z"/>
          <path class="cls-8" d="M228.32,319.71a1.06,1.06,0,1,0-1.06,1.05A1.06,1.06,0,0,0,228.32,319.71Z"/>
          <path class="cls-8" d="M218.29,342.81a1.06,1.06,0,1,0-1,1.06A1,1,0,0,0,218.29,342.81Z"/>
          <circle class="cls-8" cx="225.11" cy="311.9" r="1.06"/>
          <path class="cls-8" d="M213,339a1.06,1.06,0,1,0-1,1.05A1.05,1.05,0,0,0,213,339Z"/>
          <path class="cls-8" d="M266.91,304.79a1.06,1.06,0,1,0-2.12,0,1.06,1.06,0,1,0,2.12,0Z"/>
          <path class="cls-8" d="M180.57,321.39a1.06,1.06,0,1,0-1,1.06A1.06,1.06,0,0,0,180.57,321.39Z"/>
          <path class="cls-8" d="M246.84,309.65a1.06,1.06,0,1,0-1.06,1.06A1.07,1.07,0,0,0,246.84,309.65Z"/>
          <path class="cls-8" d="M264.18,315.33a1.06,1.06,0,1,0-1.06,1.06A1.06,1.06,0,0,0,264.18,315.33Z"/>
          <circle class="cls-8" cx="250.63" cy="314.72" r="1.06"/>
          <path class="cls-8" d="M244.41,343.87a1.06,1.06,0,1,0-1,1.06A1.06,1.06,0,0,0,244.41,343.87Z"/>
          <path class="cls-8" d="M256.61,308a1.06,1.06,0,1,0-1.06,1.06A1.06,1.06,0,0,0,256.61,308Z"/>
          <path class="cls-8" d="M270.26,299.28a1.06,1.06,0,1,0-1.05,1.06A1.05,1.05,0,0,0,270.26,299.28Z"/>
          <path class="cls-8" d="M242.62,305.85a1.06,1.06,0,1,0-1.06,1.06A1.06,1.06,0,0,0,242.62,305.85Z"/>
          <path class="cls-8" d="M165.39,325a1.06,1.06,0,1,0-1.06,1.06A1.05,1.05,0,0,0,165.39,325Z"/>
          <path class="cls-8" d="M210.09,312.8a1.06,1.06,0,1,0-2.12,0,1.06,1.06,0,1,0,2.12,0Z"/>
          <path class="cls-8" d="M195.56,332.88a.9.9,0,1,0-.9.9A.9.9,0,0,0,195.56,332.88Z"/>
          <path class="cls-8" d="M183.07,331.59a.9.9,0,1,0-.9.9A.9.9,0,0,0,183.07,331.59Z"/>
          <path class="cls-8" d="M161.12,320.42a.9.9,0,1,0-.9.9A.9.9,0,0,0,161.12,320.42Z"/>
          <path class="cls-8" d="M222.57,338.38a.9.9,0,1,0-.9.9A.9.9,0,0,0,222.57,338.38Z"/>
          <path class="cls-8" d="M254.71,339.83a.9.9,0,1,0-.89.9A.9.9,0,0,0,254.71,339.83Z"/>
          <path class="cls-8" d="M222.73,318.28a1.06,1.06,0,1,0-1.06,1.05A1.06,1.06,0,0,0,222.73,318.28Z"/>
          <path class="cls-8" d="M233.33,315a1.06,1.06,0,1,0-1.06,1.05A1.05,1.05,0,0,0,233.33,315Z"/>
          <path class="cls-8" d="M257.29,345.12a1.74,1.74,0,1,0-1.74,1.74A1.74,1.74,0,0,0,257.29,345.12Z"/>
          <path class="cls-8" d="M173.3,322.45a1.74,1.74,0,1,0-1.74,1.73A1.74,1.74,0,0,0,173.3,322.45Z"/>
          <path class="cls-8" d="M254.2,303.62a1.74,1.74,0,1,0-1.73,1.73A1.74,1.74,0,0,0,254.2,303.62Z"/>
          <path class="cls-8" d="M264.79,323.13a1.74,1.74,0,1,0-1.74,1.73A1.74,1.74,0,0,0,264.79,323.13Z"/>
          <path class="cls-8" d="M200.48,329.22a1.74,1.74,0,1,0-1.74,1.74A1.74,1.74,0,0,0,200.48,329.22Z"/>
          <path class="cls-8" d="M235.74,321.68a1.74,1.74,0,1,0-1.73,1.73A1.73,1.73,0,0,0,235.74,321.68Z"/>
          <path class="cls-8" d="M157.1,322.45a1.74,1.74,0,1,0-1.73,1.73A1.73,1.73,0,0,0,157.1,322.45Z"/>
          <g>
            <path class="cls-8" d="M225.76,64.71a2.15,2.15,0,1,0,3-.52A2.16,2.16,0,0,0,225.76,64.71Z"/>
            <path class="cls-8" d="M227.62,83.94a2.14,2.14,0,1,0,3-.53A2.14,2.14,0,0,0,227.62,83.94Z"/>
            <path class="cls-8" d="M209.23,62.23a2.15,2.15,0,1,0,3-.52A2.16,2.16,0,0,0,209.23,62.23Z"/>
            <path class="cls-8" d="M218.65,55.54a1.28,1.28,0,1,0,2.1,1.47,1.28,1.28,0,0,0-2.1-1.47Z"/>
            <path class="cls-8" d="M210.92,52.66a1.29,1.29,0,1,0,1.79-.31A1.29,1.29,0,0,0,210.92,52.66Z"/>
            <path class="cls-8" d="M221.89,75.8a1.06,1.06,0,1,0,1.47-.26A1,1,0,0,0,221.89,75.8Z"/>
            <path class="cls-8" d="M220.28,69.89a1.06,1.06,0,1,0,1.47-.26A1,1,0,0,0,220.28,69.89Z"/>
            <path class="cls-8" d="M214.38,73.69a1.06,1.06,0,1,0,1.47-.26A1.05,1.05,0,0,0,214.38,73.69Z"/>
            <path class="cls-8" d="M234.79,75.63a1.06,1.06,0,1,0,1.48-.26A1.07,1.07,0,0,0,234.79,75.63Z"/>
            <circle class="cls-8" cx="224.82" cy="60.62" r="0.9" transform="translate(46.17 209.96) rotate(-54.98)"/>
            <path class="cls-8" d="M216.77,64A.9.9,0,1,0,218,63.8.92.92,0,0,0,216.77,64Z"/>
            <path class="cls-8" d="M235.65,81.84a.9.9,0,1,0,1.26-.22A.91.91,0,0,0,235.65,81.84Z"/>
            <path class="cls-8" d="M233.32,87a.9.9,0,1,0,1.47,1,.9.9,0,0,0-1.47-1Z"/>
            <path class="cls-8" d="M250.69,15.33a2.15,2.15,0,1,0,3-.52A2.16,2.16,0,0,0,250.69,15.33Z"/>
            <path class="cls-8" d="M266.17,24.65a2.15,2.15,0,1,0,3-.53A2.15,2.15,0,0,0,266.17,24.65Z"/>
            <path class="cls-8" d="M238.14,16.44a1.06,1.06,0,0,0,.26,1.47,1.06,1.06,0,1,0-.26-1.47Z"/>
            <path class="cls-8" d="M260.49,22.2a1.06,1.06,0,1,0,1.48-.26A1.07,1.07,0,0,0,260.49,22.2Z"/>
            <path class="cls-8" d="M216.26,4.86a1.06,1.06,0,1,0,1.47-.26A1.06,1.06,0,0,0,216.26,4.86Z"/>
            <path class="cls-8" d="M164.53,7a2.15,2.15,0,1,0-3-.59A2.14,2.14,0,0,0,164.53,7Z"/>
            <path class="cls-8" d="M199.11,1.44a1.28,1.28,0,0,0,.36-1.78,1.28,1.28,0,0,0-1.78-.35,1.29,1.29,0,0,0-.36,1.78A1.29,1.29,0,0,0,199.11,1.44Z"/>
            <path class="cls-8" d="M221.89,12.2a1.28,1.28,0,1,0-1.78-.35A1.28,1.28,0,0,0,221.89,12.2Z"/>
            <path class="cls-8" d="M191.29,40a1.28,1.28,0,1,0-1.78-.35A1.28,1.28,0,0,0,191.29,40Z"/>
            <path class="cls-8" d="M183.36,19a1.29,1.29,0,0,0-1.43-2.14A1.29,1.29,0,0,0,183.36,19Z"/>
            <path class="cls-8" d="M174.9,6.11a.91.91,0,0,0,.25-1.25.9.9,0,1,0-1.5,1A.91.91,0,0,0,174.9,6.11Z"/>
            <path class="cls-8" d="M171.93,11.18a1.73,1.73,0,1,0-2.4-.48A1.74,1.74,0,0,0,171.93,11.18Z"/>
            <path class="cls-8" d="M226.84,73.2a1.74,1.74,0,1,0,2.42-.43A1.74,1.74,0,0,0,226.84,73.2Z"/>
            <path class="cls-8" d="M235.4,28.62a2.15,2.15,0,1,0,3-.53A2.14,2.14,0,0,0,235.4,28.62Z"/>
            <path class="cls-8" d="M232.12,8.41a2.15,2.15,0,1,0,3-.52A2.16,2.16,0,0,0,232.12,8.41Z"/>
            <path class="cls-8" d="M249.93,33.85a2.15,2.15,0,1,0,3-.53A2.15,2.15,0,0,0,249.93,33.85Z"/>
            <path class="cls-8" d="M251.74,26a1.06,1.06,0,1,0,1.47-.26A1,1,0,0,0,251.74,26Z"/>
            <path class="cls-8" d="M246.05,32.23a1.06,1.06,0,1,0,1.48-.26A1.07,1.07,0,0,0,246.05,32.23Z"/>
            <path class="cls-8" d="M230.87,23.58a1.06,1.06,0,1,0,1.47-.26A1.05,1.05,0,0,0,230.87,23.58Z"/>
            <path class="cls-8" d="M223.66,13.23a1.06,1.06,0,1,0,1.48-.26A1.07,1.07,0,0,0,223.66,13.23Z"/>
            <path class="cls-8" d="M227.39,37a1.06,1.06,0,1,0,1.47-.26A1,1,0,0,0,227.39,37Z"/>
            <path class="cls-8" d="M220.53,39.34a1.06,1.06,0,1,0,1.47-.25A1.06,1.06,0,0,0,220.53,39.34Z"/>
            <path class="cls-8" d="M257.58,27.47a1.06,1.06,0,1,0,1.48-.26A1.07,1.07,0,0,0,257.58,27.47Z"/>
            <path class="cls-8" d="M240.31,32.05a1.06,1.06,0,1,0,1.47-.25A1.06,1.06,0,0,0,240.31,32.05Z"/>
            <path class="cls-8" d="M237.6,44.66a1.07,1.07,0,0,0,.29-1.47,1.06,1.06,0,1,0-1.76,1.18A1.07,1.07,0,0,0,237.6,44.66Z"/>
            <path class="cls-8" d="M229.07,44.44a1.06,1.06,0,1,0-1.46-.29A1.05,1.05,0,0,0,229.07,44.44Z"/>
            <path class="cls-8" d="M222.52,50.86a1.06,1.06,0,1,0-1.47-.29A1.07,1.07,0,0,0,222.52,50.86Z"/>
            <path class="cls-8" d="M237.86,38.17a1.07,1.07,0,0,0,.3-1.47,1.05,1.05,0,0,0-1.47-.29,1,1,0,0,0-.29,1.46A1.05,1.05,0,0,0,237.86,38.17Z"/>
            <path class="cls-8" d="M243.65,45.75a.9.9,0,1,0-1.24-.25A.88.88,0,0,0,243.65,45.75Z"/>
            <path class="cls-8" d="M243.82,18.73a1.73,1.73,0,1,0,2.42-.43A1.74,1.74,0,0,0,243.82,18.73Z"/>
            <path class="cls-8" d="M247.34-.84a2.15,2.15,0,0,0,.53,3,2.15,2.15,0,0,0,2.47-3.52A2.16,2.16,0,0,0,247.34-.84Z"/>
            <path class="cls-8" d="M268.9,14.26a2.15,2.15,0,1,0,3-.52A2.15,2.15,0,0,0,268.9,14.26Z"/>
            <path class="cls-8" d="M292.6,8.14a2.15,2.15,0,1,0,3-.53A2.15,2.15,0,0,0,292.6,8.14Z"/>
            <path class="cls-8" d="M283.14,9.33a1.06,1.06,0,1,0,1.47-.26A1.06,1.06,0,0,0,283.14,9.33Z"/>
            <path class="cls-8" d="M283.81,14.61a1.06,1.06,0,1,0,1.47-.26A1,1,0,0,0,283.81,14.61Z"/>
            <path class="cls-8" d="M262.2,6.94a1.06,1.06,0,1,0,1.47-.26A1.06,1.06,0,0,0,262.2,6.94Z"/>
            <path class="cls-8" d="M261.14,0a1.06,1.06,0,1,0,1.47-.26A1.07,1.07,0,0,0,261.14,0Z"/>
            <path class="cls-8" d="M230.42,3.52a1.06,1.06,0,1,0,1.48-.26A1.07,1.07,0,0,0,230.42,3.52Z"/>
            <path class="cls-8" d="M236.48,4.66A1.06,1.06,0,1,0,238,4.4,1.07,1.07,0,0,0,236.48,4.66Z"/>
            <path class="cls-8" d="M263.47,12.47a1.06,1.06,0,1,0,1.48-.26A1.07,1.07,0,0,0,263.47,12.47Z"/>
            <path class="cls-8" d="M276.3,10.36a1.06,1.06,0,1,0,1.47-.26A1.05,1.05,0,0,0,276.3,10.36Z"/>
            <path class="cls-8" d="M252.71,7.66a1.73,1.73,0,1,0,2.41-.43A1.73,1.73,0,0,0,252.71,7.66Z"/>
            <path class="cls-8" d="M278.18,3.46A1.74,1.74,0,1,0,280.6,3,1.73,1.73,0,0,0,278.18,3.46Z"/>
            <path class="cls-8" d="M190.9,29.11a2.15,2.15,0,1,0,3-.53A2.15,2.15,0,0,0,190.9,29.11Z"/>
            <path class="cls-8" d="M174.58,20.3a2.15,2.15,0,1,0,3-.53A2.15,2.15,0,0,0,174.58,20.3Z"/>
            <path class="cls-8" d="M185.55,13.14a2.15,2.15,0,1,0,3-.53A2.15,2.15,0,0,0,185.55,13.14Z"/>
            <path class="cls-8" d="M206.45,12.54a2.15,2.15,0,1,0,3-.53A2.15,2.15,0,0,0,206.45,12.54Z"/>
            <path class="cls-8" d="M212.46,44.21a2.15,2.15,0,1,0,3-.53A2.15,2.15,0,0,0,212.46,44.21Z"/>
            <path class="cls-8" d="M201.67,50a2.15,2.15,0,1,0,3-.53A2.15,2.15,0,0,0,201.67,50Z"/>
            <path class="cls-8" d="M228.51,50.05a2.15,2.15,0,1,0,3-.53A2.14,2.14,0,0,0,228.51,50.05Z"/>
            <path class="cls-8" d="M236.87,60a2.15,2.15,0,1,0,3-.53A2.15,2.15,0,0,0,236.87,60Z"/>
            <path class="cls-8" d="M214.19,21.11a2.15,2.15,0,1,0,3-.52A2.15,2.15,0,0,0,214.19,21.11Z"/>
            <path class="cls-8" d="M186.53,29.36A1.06,1.06,0,1,0,188,29.1,1.05,1.05,0,0,0,186.53,29.36Z"/>
            <path class="cls-8" d="M181.2,28.85a1.06,1.06,0,1,0,1.47-.26A1,1,0,0,0,181.2,28.85Z"/>
            <path class="cls-8" d="M213.36,37.67a1.06,1.06,0,1,0,1.47-.26A1.06,1.06,0,0,0,213.36,37.67Z"/>
            <path class="cls-8" d="M194.81,22.29a1.06,1.06,0,1,0,1.47-.26A1,1,0,0,0,194.81,22.29Z"/>
            <path class="cls-8" d="M187.36,21.89a1.06,1.06,0,1,0,1.48-.26A1.07,1.07,0,0,0,187.36,21.89Z"/>
            <path class="cls-8" d="M203.11,32.26a1.06,1.06,0,1,0,1.48-.26A1.06,1.06,0,0,0,203.11,32.26Z"/>
            <path class="cls-8" d="M196.82,32.62a1.06,1.06,0,1,0,1.47-.26A1,1,0,0,0,196.82,32.62Z"/>
            <path class="cls-8" d="M207,42.42a1.06,1.06,0,1,0,1.47-.26A1.06,1.06,0,0,0,207,42.42Z"/>
            <path class="cls-8" d="M196.26,37.61a1.73,1.73,0,1,0,2.42-.43A1.74,1.74,0,0,0,196.26,37.61Z"/>
            <path class="cls-8" d="M198.35,6.87a1.73,1.73,0,1,0,2.42-.43A1.74,1.74,0,0,0,198.35,6.87Z"/>
            <path class="cls-8" d="M221.74,33.41a1.73,1.73,0,1,0,2.42-.43A1.72,1.72,0,0,0,221.74,33.41Z"/>
            <path class="cls-8" d="M240.11,82.49a1.73,1.73,0,1,0,2.42-.43A1.74,1.74,0,0,0,240.11,82.49Z"/>
            <path class="cls-8" d="M244.61,70.3a1.06,1.06,0,1,0,1.48-.26A1.06,1.06,0,0,0,244.61,70.3Z"/>
            <path class="cls-8" d="M246.72,76.45a1.06,1.06,0,1,0,1.47-.26A1.05,1.05,0,0,0,246.72,76.45Z"/>
            <path class="cls-8" d="M238.57,71.47a.92.92,0,0,0,.22,1.26.9.9,0,0,0,1-1.48A.91.91,0,0,0,238.57,71.47Z"/>
            <path class="cls-8" d="M254.05,76a1.06,1.06,0,1,0,1.47-.26A1,1,0,0,0,254.05,76Z"/>
            <path class="cls-8" d="M252.44,70.06a1.06,1.06,0,1,0,1.47-.26A1,1,0,0,0,252.44,70.06Z"/>
            <circle class="cls-8" cx="201.65" cy="16.21" r="1.06" transform="translate(72.7 172.08) rotate(-54.99)"/>
            <path class="cls-8" d="M254.88,40.45a2.15,2.15,0,1,0,0,3A2.15,2.15,0,0,0,254.88,40.45Z"/>
            <path class="cls-8" d="M284.15,34.67a2.15,2.15,0,1,0,0,3A2.15,2.15,0,0,0,284.15,34.67Z"/>
            <path class="cls-8" d="M291.72,24.3a1.93,1.93,0,1,0,0,2.72A1.93,1.93,0,0,0,291.72,24.3Z"/>
            <path class="cls-8" d="M307.05,26.12a2.15,2.15,0,1,0,0,3A2.14,2.14,0,0,0,307.05,26.12Z"/>
            <path class="cls-8" d="M294,42.4a2.15,2.15,0,1,0,0,3A2.15,2.15,0,0,0,294,42.4Z"/>
            <path class="cls-8" d="M274.61,33a2.15,2.15,0,1,0,0,3A2.15,2.15,0,0,0,274.61,33Z"/>
            <path class="cls-8" d="M298.39,18.52a2.15,2.15,0,1,0,0,3A2.15,2.15,0,0,0,298.39,18.52Z"/>
            <path class="cls-8" d="M268.7,57.57a2.15,2.15,0,1,0,0,3A2.15,2.15,0,0,0,268.7,57.57Z"/>
            <path class="cls-8" d="M246.18,48.17a1.29,1.29,0,0,0,2.21-1.32,1.29,1.29,0,0,0-2.21,1.32Z"/>
            <path class="cls-8" d="M264.44,51.16a1.29,1.29,0,1,0,.45-1.76A1.29,1.29,0,0,0,264.44,51.16Z"/>
            <path class="cls-8" d="M240.45,55.69a1.28,1.28,0,1,0,2.2-1.32,1.29,1.29,0,0,0-1.76-.44A1.28,1.28,0,0,0,240.45,55.69Z"/>
            <path class="cls-8" d="M255.39,65.33a1.28,1.28,0,1,0,.44-1.76A1.28,1.28,0,0,0,255.39,65.33Z"/>
            <path class="cls-8" d="M298.43,25.21a1.28,1.28,0,1,0,.44-1.76A1.27,1.27,0,0,0,298.43,25.21Z"/>
            <path class="cls-8" d="M270.35,43.3a1.47,1.47,0,1,0,.5-2A1.48,1.48,0,0,0,270.35,43.3Z"/>
            <path class="cls-8" d="M279,50.43a1.47,1.47,0,1,0,.51-2A1.47,1.47,0,0,0,279,50.43Z"/>
            <path class="cls-8" d="M253.44,52.33a1.47,1.47,0,1,0,.51-2A1.48,1.48,0,0,0,253.44,52.33Z"/>
            <path class="cls-8" d="M280.59,44.24a1.47,1.47,0,1,0,.51-2A1.47,1.47,0,0,0,280.59,44.24Z"/>
            <path class="cls-8" d="M298.45,38.14A1.47,1.47,0,0,0,301,36.63a1.47,1.47,0,1,0-2.52,1.51Z"/>
            <path class="cls-8" d="M207.24,22.77a1.47,1.47,0,1,0,.51-2A1.47,1.47,0,0,0,207.24,22.77Z"/>
            <path class="cls-8" d="M282.12,25.58a1.47,1.47,0,1,0,.5-2A1.47,1.47,0,0,0,282.12,25.58Z"/>
            <path class="cls-8" d="M244.38,60.59a1.06,1.06,0,1,0,.37-1.46A1.06,1.06,0,0,0,244.38,60.59Z"/>
            <path class="cls-8" d="M264.69,40.7a.85.85,0,1,0,.29-1.16A.84.84,0,0,0,264.69,40.7Z"/>
            <path class="cls-8" d="M251.74,59.76A.85.85,0,1,0,252,58.6.85.85,0,0,0,251.74,59.76Z"/>
            <path class="cls-8" d="M286.65,42.31a.84.84,0,1,0,.3-1.15A.83.83,0,0,0,286.65,42.31Z"/>
            <path class="cls-8" d="M285.39,49.94a.85.85,0,1,0,.29-1.16A.85.85,0,0,0,285.39,49.94Z"/>
            <path class="cls-8" d="M268.43,31.68a.94.94,0,0,0,1.62-1,1,1,0,0,0-1.3-.33A.94.94,0,0,0,268.43,31.68Z"/>
            <path class="cls-8" d="M275,28.42a.94.94,0,0,0,1.62-1,.94.94,0,1,0-1.62,1Z"/>
            <path class="cls-8" d="M290.82,20.27a.95.95,0,1,0,.33-1.3A1,1,0,0,0,290.82,20.27Z"/>
            <path class="cls-8" d="M286.34,33.08a.95.95,0,1,0,.32-1.3A.94.94,0,0,0,286.34,33.08Z"/>
            <path class="cls-8" d="M294.11,30.84a.95.95,0,1,0,.33-1.3A1,1,0,0,0,294.11,30.84Z"/>
            <path class="cls-8" d="M289.4,38.43a.94.94,0,0,0,1.29.33.95.95,0,1,0-1.29-.33Z"/>
            <path class="cls-8" d="M301.08,18.6a.95.95,0,1,0,.32-1.3A1,1,0,0,0,301.08,18.6Z"/>
            <path class="cls-8" d="M261.44,70.91a1.08,1.08,0,1,0,1.86-1.11,1.08,1.08,0,0,0-1.86,1.11Z"/>
            <path class="cls-8" d="M296.67,33.66a1.09,1.09,0,0,0,1.49.37,1.08,1.08,0,1,0-1.49-.37Z"/>
            <path class="cls-8" d="M270.61,50.53a1.08,1.08,0,0,0,1.48.37,1.08,1.08,0,1,0-1.48-.37Z"/>
            <path class="cls-8" d="M309.39,33.11A1.08,1.08,0,1,0,311.25,32a1.08,1.08,0,0,0-1.86,1.11Z"/>
            <path class="cls-8" d="M279.39,32.83a.85.85,0,0,0,1.16.29.85.85,0,0,0-.87-1.45A.85.85,0,0,0,279.39,32.83Z"/>
            <path class="cls-8" d="M258.9,62a.85.85,0,1,0,.29-1.16A.85.85,0,0,0,258.9,62Z"/>
            <path class="cls-8" d="M304.66,34.34a.85.85,0,0,0,1.45-.87.85.85,0,0,0-1.45.87Z"/>
            <path class="cls-8" d="M260.46,38.56a.85.85,0,0,0,1.16.29.85.85,0,0,0-.87-1.45A.85.85,0,0,0,260.46,38.56Z"/>
          </g>
          <g>
            <path class="cls-8" d="M313.6,15.69a2.15,2.15,0,1,0,3-.53A2.15,2.15,0,0,0,313.6,15.69Z"/>
            <path class="cls-8" d="M307.88,7.55a1.06,1.06,0,1,0,1.47-.26A1.06,1.06,0,0,0,307.88,7.55Z"/>
            <path class="cls-8" d="M306.27,1.64a1.06,1.06,0,1,0,1.47-.25A1.06,1.06,0,0,0,306.27,1.64Z"/>
            <path class="cls-8" d="M300.37,5.44a1.06,1.06,0,0,0,1.73,1.21,1.06,1.06,0,0,0-.26-1.47A1,1,0,0,0,300.37,5.44Z"/>
            <path class="cls-8" d="M320.78,7.39a1.06,1.06,0,1,0,1.47-.26A1.06,1.06,0,0,0,320.78,7.39Z"/>
            <path class="cls-8" d="M321.64,13.6a.9.9,0,1,0,1.26-.22A.91.91,0,0,0,321.64,13.6Z"/>
            <path class="cls-8" d="M319.31,18.71a.9.9,0,1,0,1.25-.22A.89.89,0,0,0,319.31,18.71Z"/>
            <path class="cls-8" d="M312.83,5a1.73,1.73,0,1,0,2.42-.42A1.73,1.73,0,0,0,312.83,5Z"/>
            <path class="cls-8" d="M326.1,14.25a1.73,1.73,0,1,0,2.41-.43A1.73,1.73,0,0,0,326.1,14.25Z"/>
            <path class="cls-8" d="M330.6,2.05a1.06,1.06,0,1,0,1.47-.26A1.06,1.06,0,0,0,330.6,2.05Z"/>
            <path class="cls-8" d="M332.7,8.2a1.06,1.06,0,0,0,1.74,1.21A1.06,1.06,0,0,0,332.7,8.2Z"/>
            <path class="cls-8" d="M324.56,3.23A.9.9,0,1,0,325.81,3,.89.89,0,0,0,324.56,3.23Z"/>
            <path class="cls-8" d="M340,7.72a1.06,1.06,0,1,0,1.47-.26A1.06,1.06,0,0,0,340,7.72Z"/>
            <path class="cls-8" d="M338.43,1.81a1.06,1.06,0,1,0,1.47-.26A1.06,1.06,0,0,0,338.43,1.81Z"/>
            <path class="cls-8" d="M347.43,2.67a1.09,1.09,0,0,0,1.49.37,1.08,1.08,0,0,0,.37-1.48,1.08,1.08,0,1,0-1.86,1.11Z"/>
          </g>
        </g>
        <g>
          <path class="cls-7" d="M483.75,489.29l.26.07.08.3v.72l0,.25,0,.24v.27l0,.26v2.34l-.05.24-.19,0V492.7l0-.27V491l0-.31v-.51l0-.27-.05-.24-.24-.05h-.25l-.19.06-.18,0,.08.34v.51l0,.24v.51l0,.24v.32l0,.26v1.37l.05.26L483,494l-.24,0,.07-.27,0-.27v-.22l0-.26,0-.24v-.29l0-.25,0-.25,0-.29v-.51l0-.24V490l0-.29,0-.29Z"/>
          <path class="cls-7" d="M486.21,490.88h.24l.22.08v.84l0,.25,0,.29v.78l0,.26V494l-.21,0,0-.24v-.51l0-.24V491.8l0-.26,0-.4-.28,0h-.23v.32l0,.24,0,.25,0,.26,0,.25v.72l-.06.26,0,.2-.08.22-.18.17-.34.05-.07-.29h.26l.15-.1.12-.36,0-.27.05-.26v-1.78l0-.17Z"/>
          <path class="cls-7" d="M488.24,490.72l.24,0,.2.14.14.2.12.24.05.25v.24l0,.26v1l0,.32-.12.31-.22.12-.27.1-.24,0-.27-.13-.12-.24-.07-.24-.05-.29,0-.27v-1.58l.08-.27.2-.16Zm-.35.23-.11.24,0,.26,0,.25v.72l0,.27,0,.25.05.35.1.22.18.18.2.1.25-.1.14-.2.05-.24,0-.27v-1.53l-.14-.34-.2-.13-.24-.09Z"/>
          <path class="cls-7" d="M490.14,490.68v1l0,.24v.49l0,.27v.87l0,.21.3.05.34-.05.24-.08v-.53l0-.24,0-.25,0-.24v-1.33l0-.48.27.06-.07.22,0,.24v.25l0,.26v.25l0,.24,0,.27,0,.19,0,.27,0,.36,0,.29v.17l.23.08h.66l.07-.35v-.24l0-.25v-.24l0-.24v-.54l0-.24v-.78l0-.26.22-.13V491l0,.25v.24l-.05.29V493l0,.26v.57l.37,0h.33l0,.24-.08.28.05.31,0,.49-.3,0,0-.24,0-.32-.05-.33,0-.23-.24,0h-1.79l-.55,0-.23,0,0-.24v-.61l0-.32v-1.89l0-.27Z"/>
          <path class="cls-7" d="M494.05,491.2l.08-.23.12-.22.22-.12.29,0,.25,0,.19.14.15.2.09.24v1.87l0,.24v.25l.08.21.1.27-.23,0-.1-.31-.07-.25-.15.22-.14.22-.24.07h-.25l-.17-.08-.17-.22-.06-.26,0-.26,0-.27.06-.25.13-.22.22-.19.22,0,.28,0,.28-.06,0-.15,0-.19v-.24l0-.24,0-.28-.12-.18-.2-.11-.38.05-.14.26-.06.17Zm.8,1.23-.25.06-.18.1-.14.2,0,.24v.27l0,.24.14.2.24,0,.27-.13.12-.22.13-.27,0-.28v-.47Z"/>
          <path class="cls-7" d="M498.17,491.47v-.27l0-.31,0-.24,0-.35L498,490l-.1-.2-.09-.29-.26-.25-.33,0-.34.1-.21.23-.14-.32.14-.15.24-.14h.31l.27,0,.29.11.2.18.13.28.06.26.07.22.05.31.07.33,0,.34v.33l0,.26v.61l0,.34,0,.29-.06.26-.05.27-.13.31-.16.22-.18.15-.28.1-.22,0-.24-.11-.16-.17-.19-.28-.1-.26,0-.25,0-.26,0-.26v-.29l0-.29.06-.26.08-.29.13-.24.23-.16.24-.07.26.07.25.11Zm0,.24-.26-.19-.19-.13-.24-.14-.23-.05-.23.11-.14.19-.05.27v.52l0,.26v.53l.07.26.1.2.07.18.14.1.23.08.2,0,.2-.15.12-.23.09-.27.07-.32,0-.28,0-.28v-.7Z"/>
          <path class="cls-7" d="M499.39,490.59l.29.14-.05.25v.25l-.05.22,0,.19v.16l.25.07.23.11.22.16.09.18.05.21.09.27v.43l-.07.24-.08.22-.12.16-.17.13-.22.08h-.25l-.26,0,0-.22v-.74l0-.22V492l0-.22v-1Zm.15,1.42,0,.28,0,.29,0,.26v.24l0,.22,0,.24v.22l.2,0h.2l.17-.15.09-.22,0-.22,0-.21,0-.22-.05-.27-.11-.19-.12-.18-.2-.13Z"/>
          <path class="cls-7" d="M482.75,501.56l0-.24v-.27l0-.24v-1.09l0-.28v-.55l0-.24.05-.29,0-.24,0-.25,0-.24.05-.24.1-.25.24-.09.17.19,0,.24,0,.25.05.24v.24l0,.25,0,.24,0,.24.08.24.14.2.15-.2.09-.26.05-.28v-.5l0-.27.05-.24.07-.27.1-.24.24-.05.24.05.12.22v.53l0,.27,0,.24,0,.27v.29l0,.24,0,.27v.73l0,.32v.55l0,.27,0,.26H485l0-.26V500l0-.24v-.25l0-.27-.06-.31,0-.26v-.73l0-.25-.08-.24-.21-.12-.13.16-.09.2v.25l0,.24v.49l0,.24-.05.24-.12.23-.1.13-.25.19-.21-.23-.1-.2,0-.23,0-.26,0-.26-.06-.23V498l0-.48-.16-.06-.09.22,0,.23,0,.23v.25l0,.24,0,.26,0,.25,0,.2v.25l.05.24v.49l0,.24v.78l.05.24Z"/>
          <path class="cls-7" d="M486.18,498.14l.12.22.07.24.07.24.05.27.05.24,0,.27,0,.24.05.25v.26l0,.25.05.29.05.23.09.33.1-.37,0-.24.05-.24,0-.25,0-.24.05-.24,0-.25,0-.24,0-.25.08-.23.09-.25-.1-.19.15-.19.09.24v.24l-.05.24,0,.25-.05.24-.08.27,0,.24,0,.24v.25l0,.24,0,.24-.05.24-.07.25-.08.26L487,502l0,.24-.06.25-.05.24-.05.27-.09.26-.05.25-.29.12-.08-.15.25-.26.05-.25,0-.24.05-.29.07-.27.05-.24,0-.27-.07-.24,0-.24-.07-.25,0-.24,0-.24,0-.27-.07-.29-.05-.25,0-.26-.08-.29,0-.25-.09-.29-.05-.29Z"/>
          <path class="cls-7" d="M488.68,498.39l.24.16,0,.21.15.26.06.26.07.29.09.2.21.25.2.12v-.53l0-.25,0-.32,0-.29v-.28l.12-.23.18.2v.26l0,.31,0,.51.05.56.3-.48.25-.38.13-.38.23-.18.33-.05.08.13-.29.18-.2.18-.2.31-.19.38-.27.29.1.14.24.17.19.23.1.23.06.27.19.21.26.17v.26l-.26,0-.21-.08-.13-.18-.07-.24-.11-.28-.11-.34-.41-.31v.55l0,.31,0,.26v.29l-.1.21-.18-.14,0-.26v-.59l0-.55-.21-.06-.22.2-.15.24L489,501l-.12.3-.12.25-.21.16-.16-.14.18-.14.08-.29.11-.26.15-.24.18-.24.11-.19.16-.14-.31-.3-.15-.23-.05-.28-.12-.32,0-.27-.16-.19Z"/>
          <path class="cls-7" d="M492.38,500.15l0,.35,0,.26.05.31.21.19h.27l.2,0,.15-.16.17.07-.14.24-.24.12h-.26l-.26,0-.19-.18,0-.27-.05-.26,0-.31v-1.14l0-.28,0-.27.08-.26.21-.16.26-.07.26,0,.21.21.1.26v.55l-.05.29-.05.26-.18.19-.25.12h-.26Zm0-.19h.26l.27-.1.17-.22,0-.26,0-.31v-.28l-.09-.26-.26-.07-.25.07-.07.22-.08.21,0,.31v.3Z"/>
          <path class="cls-7" d="M495.89,498.9l-.08.26-.25-.06.05-.23-.13-.22-.14-.09-.25-.08-.24,0-.18.09-.08.19-.06.23,0,.28,0,.29v.49l0,.27,0,.28.07.4.18.2.22.13h.24l.24-.05.13-.11.15.08-.14.2-.24.07-.24,0h-.28l-.23-.11-.14-.17-.11-.22,0-.24,0-.27,0-.26v-1l0-.24v-.24l.05-.3.19-.19.25,0h.53l.29.17.15.21Z"/>
          <path class="cls-7" d="M496.79,498.2l.28,0,.28.07h1.06v.33l-.3-.11-.34,0,0,.37,0,.25v.75l0,.24,0,.29,0,.25v.53l0,.37-.14.07-.14-.1.07-.39v-.24l0-.24v-.27l0-.24,0-.3v-1l0-.28-.24-.09H497l-.19.15Z"/>
          <path class="cls-7" d="M500.53,500.4l.33.08.12.26V501l-.07.29-.19.21-.28.14h-.36l-.29-.05-.23-.12-.17-.21-.07-.31v-.3l0-.29.05-.31.05-.38.07-.29.07-.28.16-.26.22-.19.28-.12.29-.09.26,0,.28,0,.21.21.06.24v.26l0,.26-.08.26-.16.26-.16.2-.19.15Zm-1,.16.31,0,.42-.15.29-.2.19-.19.17-.21,0-.26.08-.27V499l-.12-.23-.26-.08h-.31l-.19.09-.2.17-.16.22-.07.14-.06.28-.05.23-.09.41Zm0,.15v.15l0,.26.16.21.24.12.26.05.24-.07.22-.22,0-.26-.05-.26-.23-.12-.27,0-.39.13Z"/>
          <path class="cls-7" d="M502.33,498.79l.08-.24.12-.22.22-.12.29,0,.24,0,.2.15.14.19.1.25v1.87l0,.24v.24l.08.21.11.27-.23,0-.11-.32-.06-.25-.15.22-.15.22-.24.07h-.24l-.18-.08-.17-.22-.05-.26-.06-.25,0-.28.05-.25.14-.21.21-.2.23,0,.27,0,.28-.06,0-.15,0-.18v-.24l0-.25,0-.27-.12-.18-.2-.11-.38.05-.15.26-.05.17Zm.8,1.23-.25.05-.18.11-.15.19-.05.25v.26l.05.25.15.19.24,0,.27-.13.12-.21.13-.27,0-.29V500Z"/>
        </g>
      </g>
      <path class="cls-4" d="M379.76,83.53c-.41-.48-80.2,67.61-80.2,67.61"/>
      <polyline class="cls-4" points="564.64 46.59 532.41 51.25 498.12 76.25 437.1 0.56"/>
      <line class="cls-4" x1="529.97" y1="53.02" x2="486.63" y2="0.56"/>
      <polyline class="cls-3" points="365.8 0 232.27 107.25 10.41 273.13"/>
      <line class="cls-3" x1="568.72" y1="264.18" x2="493.91" y2="238.42"/>
      <path class="cls-3" d="M171.56,34.5C168.91,35.75,19.87,69.28,19.87,69.28"/>
      <path class="cls-3" d="M424.6,137.45c.81,1,73.52-61.2,73.52-61.2"/>
      <g>
        <polyline class="cls-4" points="199.88 104.1 148.06 143.92 88.33 159.47 95.69 198.2 43.87 209.66"/>
        <line class="cls-4" x1="97.6" y1="52" x2="120.6" y2="151.07"/>
        <line class="cls-4" x1="145.88" y1="41.91" x2="152.42" y2="72.73"/>
        <line class="cls-4" x1="34.03" y1="65.63" x2="55.56" y2="167.11"/>
        <polyline class="cls-4" points="55.56 240.2 47.41 230.66 34.32 171.47 88.33 161.1"/>
        <line class="cls-4" x1="25.87" y1="135.74" x2="34.32" y2="171.47"/>
        <polyline class="cls-4" points="92.05 179.02 38.45 190.1 10.41 195.31"/>
        <line class="cls-4" x1="64.06" y1="165.76" x2="68.13" y2="183.97"/>
        <polyline class="cls-4" points="105.24 149.1 89.42 76.28 10.05 94.01"/>
        <line class="cls-4" x1="41.29" y1="99.82" x2="92.05" y2="88.37"/>
        <line class="cls-4" x1="43.87" y1="110.65" x2="75.24" y2="106.01"/>
        <line class="cls-4" x1="46.91" y1="126.3" x2="98" y2="115.8"/>
        <line class="cls-4" x1="88.33" y1="159.47" x2="83.36" y2="118.81"/>
        <polyline class="cls-4" points="117.83 139.14 145.88 133.28 148.06 143.92"/>
      </g>
      <polyline class="cls-4" points="305.31 146.02 298.49 138.74 291.43 142.92 270.53 119.14 275.49 114.7 270.53 110.52 293 89.35 277.86 70.63"/>
      <polyline class="cls-4" points="288.66 83.99 298.49 76.02 320.18 100.85 324.88 97.19 340.56 116"/>
      <polyline class="cls-4" points="326.5 128.2 309.2 109.73 320.18 100.85"/>
      <line class="cls-4" x1="318.34" y1="102.34" x2="333.69" y2="122.23"/>
      <line class="cls-4" x1="279.21" y1="102.34" x2="261.41" y2="83.85"/>
      <polyline class="cls-4" points="360.3 99.57 342.91 76.02 347.62 71.58 342.91 62.95 355.07 53.84"/>
      <polyline class="cls-4" points="293.97 57.7 302.41 71.58 325.53 53.29 323.41 34.05"/>
      <line class="cls-4" x1="249.84" y1="129.83" x2="270.53" y2="110.52"/>
      <polyline class="cls-4" points="443.58 122.38 484.81 171.59 492.83 154.59 528.45 165.18 538.08 137.26 489.29 83.85"/>
      <polyline class="cls-4" points="30.1 1.52 37.32 44.02 37.32 64.89"/>
      <polyline class="cls-4" points="89.54 0.37 105.24 22.02 105.24 49.68"/>
      <polyline class="cls-4" points="46.91 246.42 64.06 286.87 66.16 325.17"/>
      <path class="cls-9" d="M521.05,464.08a6.41,6.41,0,0,1,3.05-2.36c.71,2.36,1.4,4.73,2.11,7.09.7-2.36,1.39-4.73,2.08-7.09a6.37,6.37,0,0,1,2,1.16,6,6,0,0,1,2,3.29,6.43,6.43,0,0,1-.14,3.37,8.06,8.06,0,0,1-1.34,2.37c-1,0-1.92,0-2.88,0a7.13,7.13,0,0,0,2.88-2.88,5,5,0,0,0,.09-3.74,4.92,4.92,0,0,0-1-1.59.88.88,0,0,0-.69-.33.58.58,0,0,0-.44.45c-.84,2.68-1.66,5.35-2.49,8-.82-2.66-1.64-5.33-2.47-8a.65.65,0,0,0-.4-.48.76.76,0,0,0-.65.23,4.79,4.79,0,0,0-.75,5.95,7.75,7.75,0,0,0,2.58,2.35c-1,0-1.92,0-2.88,0a6.78,6.78,0,0,1-1.63-4.07,6.25,6.25,0,0,1,1-3.76"/>
    </g>
  </g>
</svg>
